<?xml version="1.0" encoding="utf-8"?>
<!-- Generator: Adobe Illustrator 19.2.1, SVG Export Plug-In . SVG Version: 6.00 Build 0)  -->
<svg version="1.1" id="Слой_1" xmlns="http://www.w3.org/2000/svg" xmlns:xlink="http://www.w3.org/1999/xlink" x="0px" y="0px"
	 viewBox="0 0 840.7 466.8" style="enable-background:new 0 0 840.7 466.8;" xml:space="preserve">
<style type="text/css">
	.st0{fill:#D9DADA;}
</style>
<g id="Слой_x0020_1">
	<path class="st0" d="M840.3,234.6c-13.4,8.5-26.6,20.3-42.2,34.1c-18,15.9-39.3,34.4-67.6,53.3c24-18,43.1-36.1,60-52
		c18.1-17.1,33.6-31.8,49.9-41.6v-1c-16.6,9.9-32.3,24.8-50.7,42.1c-19.9,18.8-42.9,40.5-73.2,61.6c-0.2,0.1-0.4,0.3-0.6,0.4
		c26.2-20.4,47.1-41.7,66-60.6c20.7-20.7,38.8-38.7,58.5-49.8v-1c-20,11.2-38.4,29.3-59.3,50.3c-20.4,20.5-43.3,43.6-72.4,65.5
		c-1,0.6-2,1.2-3.1,1.8c26.1-21.7,47.7-45,67.5-65.9c23.2-24.5,44.1-45.8,67.2-58v-1c-23.6,12.2-44.7,33.8-68,58.5
		c-20.9,22.1-43.7,46.7-71.7,69.3c-1.4,0.8-2.8,1.6-4.3,2.4c25.6-22.7,47.4-47.6,67.9-70.3c25.6-28.3,49.3-53.1,76-66.2v-1
		c-27.2,13.1-51.1,38.2-76.8,66.6c-21.4,23.6-44,49.5-70.8,72.9c-1.7,0.9-3.4,1.8-5.1,2.7c24.9-23.6,46.7-49.9,67.9-74.3
		c27.9-32.1,54.5-60.5,84.9-74.3v-1c-30.9,13.8-57.7,42.5-85.7,74.8c-21.8,25.1-44.4,52.3-70.2,76.4c-1.8,1-3.7,1.9-5.6,2.9
		c24.1-24.4,46-52.1,67.7-77.9c30.2-36,59.8-68.1,93.9-82.5v-0.9c-34.6,14.4-64.4,46.8-94.7,82.9c-22.2,26.4-44.7,54.9-69.5,79.7
		c-2,1-4,2-6,3c23.4-25.3,45.3-54.2,67.4-81.4c32.4-39.9,65.1-75.8,102.8-90.6v-0.9c-38.2,14.8-71.1,51-103.7,91
		c-22.6,27.8-45,57.3-68.9,82.9c-2.1,1-4.2,2-6.3,3c22.6-26.1,44.6-56.1,67.1-84.6c34.6-43.8,70.5-83.6,111.9-98.6v-0.9
		c-41.9,15.1-78,55.1-112.7,99.1c-22.9,29-45.3,59.7-68.3,86c-2.2,1-4.4,2-6.6,3c22-26.8,43.9-58,66.8-87.6
		c36.8-47.8,75.9-91.5,120.9-106.6v-0.9c-45.6,15.2-84.8,59.2-121.8,107.1c-23.2,30.2-45.6,61.9-67.9,89c-2.3,1-4.6,2-6.8,2.9
		c21.3-27.6,43.3-59.7,66.5-90.5c38.9-51.8,81.4-99.5,129.9-114.6v-0.9c-49.2,15.2-91.7,63.2-130.8,115.1
		c-23.5,31.2-45.8,63.9-67.4,91.7c-2.4,1-4.6,1.9-6.9,2.8c20.7-28.3,42.7-61.4,66.1-93.2c41.1-55.8,86.9-107.5,139-122.6v-0.9
		c-52.8,15-98.7,67.1-139.9,123c-23.8,32.2-46,65.8-67,94.3c-2.4,0.9-4.7,1.8-7,2.7c20.2-29,42.1-62.9,65.8-95.6
		c43.2-59.8,92.5-115.7,148.1-130.5v-0.9c-56.3,14.8-105.6,71-149,130.9c-24,33.1-46.1,67.4-66.5,96.6c-2.4,0.9-4.8,1.7-7.1,2.5
		c19.7-29.6,41.5-64.2,65.3-97.7c45.4-63.9,98.1-123.9,157.2-138.3v-0.9c-59.8,14.5-112.6,74.7-158.1,138.8
		c-24.1,33.9-46.1,68.9-66,98.7c-2.4,0.8-4.8,1.6-7.1,2.3c19.2-30.2,40.9-65.3,64.8-99.6c47.5-68,103.7-132.2,166.4-146.2v-0.9
		c-63.4,14-119.7,78.5-167.2,146.6c-24.1,34.6-46,70.1-65.4,100.4c-2.4,0.7-4.8,1.4-7.1,2c18.8-30.7,40.3-66.3,64.2-101.1
		c49.6-72.1,109.4-140.5,175.5-153.9V128c-66.8,13.5-126.7,82.2-176.4,154.4c-24.1,35.1-45.8,71-64.7,101.8
		c-2.4,0.6-4.8,1.2-7.1,1.7c18.3-31.1,39.7-67,63.6-102.2C707.6,207.5,771,134.8,840.5,122v-0.9C770.3,134,706.8,207,655,283.3
		c-24,35.4-45.5,71.6-64,102.9c-2.4,0.5-4.7,1-7,1.4c29.1-50.9,66.4-113.8,109.5-166.6c44-53.8,93.9-96.9,147-105.7v-0.9
		c-73.7,12.2-140.8,89.4-194.7,169.9c-23.8,35.6-45.1,71.9-63.1,103.5c-2.4,0.4-4.7,0.7-6.9,1c28.8-52,66.5-115.8,110.1-169.5
		c46.1-56.9,99-102.5,154.7-110.7v-0.8c-77.1,11.4-147.9,92.9-203.8,177.6c-23.6,35.7-44.5,71.9-62.1,103.7
		c-2.3,0.3-4.6,0.5-6.9,0.6c17.2-31.7,37.6-67.5,60.7-102.9c57.9-88.7,132.5-174.3,212.1-184.8v-0.9
		c-80.4,10.5-154.9,96.4-213,185.2c-23.2,35.5-43.8,71.5-61,103.4c-2.1,0.1-4.2,0.2-6.2,0.2c-0.2,0-0.3,0-0.5,0
		c16.8-31.7,36.9-67.1,59.5-102.2c60-92.9,138.3-182.9,221.2-192.4v-0.9c-83.8,9.6-162,99.9-222.1,192.8
		c-22.7,35.2-42.9,70.8-59.7,102.5c-2.2,0-4.5-0.1-6.6-0.3c16.4-31.5,36-66.4,58.1-100.9c62.1-97.1,144.2-191.5,230.4-200v-0.8
		C753.5,96.2,671.5,190.9,609.3,288c-22.2,34.7-41.8,69.7-58.3,101.2c-76.1-6.3-112.2-90.8-267-195.9c-7.4-5-14.7-9.7-21.8-14
		C201.9,104.2,126.5,42.3,67.6,0h-1.6C124.5,42,199.5,103.4,259.8,177.9c-2.4-1.4-4.7-2.8-7-4.1C189.3,98.9,111.1,38.9,53.2,0h-1.6
		C109,38.6,186.9,98.1,250.3,172.4c-2.4-1.3-4.7-2.6-7-3.9C175.9,93.2,93.9,35.2,37.5,0h-1.7c56,34.8,137.6,92.4,205.1,167.2
		c-2.3-1.2-4.6-2.4-6.9-3.6C161,86.8,73.7,30.7,19.8,0h-1.8c53.3,30.3,140.3,86,213.4,162.3c-2.3-1.2-4.6-2.3-6.9-3.4
		C143.9,79,48.6,24.9,0.1,0.2v1c48.4,24.6,142.1,78,221.9,156.5c-2.3-1.1-4.6-2.1-6.8-3.1C136.8,81.7,47.2,33.7,0,11.3v1
		c46.9,22.3,135,69.6,212.5,141.2c-2.3-1-4.5-1.9-6.7-2.9C129.8,84.4,45.7,42.3,0,22.2v1c45.3,20,128,61.5,203,126.4
		c-2.2-0.9-4.5-1.8-6.7-2.6C123,87.3,44.2,50.7,0,32.9v0.9c43.7,17.6,121.2,53.7,193.7,112c-2.2-0.8-4.4-1.6-6.6-2.4
		C116.4,90.3,42.6,58.8,0,43.5v0.9c42.1,15.3,114.5,46.2,184.3,98.2c-2.2-0.7-4.3-1.4-6.5-2.1C109.9,93.4,40.9,66.8,0,53.8v0.9
		c40.4,12.9,108,39,174.9,84.9c-2.1-0.6-4.2-1.2-6.3-1.8C103.5,96.5,39.3,74.6,0,63.9v0.9c38.7,10.6,101.7,32.1,165.6,72.2
		c-2.1-0.5-4.1-1.1-6.2-1.6C97.4,99.8,37.5,82.1,0,73.7v0.9c36.9,8.3,95.4,25.5,156.4,60c-2-0.5-4-0.9-6-1.3
		C91.3,103,35.8,89.4,0,83.3v0.9c35.1,6,89.3,19.3,147.2,48.5c-1.9-0.4-3.9-0.7-5.8-1.1C85.5,106.3,34,96.4,0,92.5v0.9
		c33.3,3.8,83.4,13.4,138,37.6c-1.8-0.3-3.7-0.6-5.5-0.8C79.8,109.7,32.2,103.2,0,101.4v0.9c31.4,1.7,77.5,8,128.8,27.4
		c-1.7-0.2-3.4-0.4-5.1-0.6c-47.4-15.4-89.6-19.2-119.8-19.2c-1.3,0-2.6,0-3.9,0v0.9c1.3,0,2.6,0,3.9,0c29.3,0,69.9,3.6,115.7,17.9
		c-1.6-0.1-3.1-0.3-4.7-0.4C81.6,119.7,51.4,117,26.4,117c-9.6,0-18.4,0.4-26.3,1v0.9c7.9-0.6,16.7-1,26.3-1
		c23.8,0,52.4,2.5,84,10.2c-1.3-0.1-2.7-0.1-4-0.2c-21.9-4.2-42.2-5.7-60.3-5.7c-17.5,0-32.9,1.4-46,3.4v0.9c13-2,28.5-3.5,46-3.5
		c16.6,0,35.1,1.3,54.9,4.8c-1,0-2,0-3,0c0,0-0.1,0-0.1,0c-12.3-1.5-24-2.1-35.1-2.1c-24.4,0-45.6,3.1-62.6,7v0.9
		c17-3.9,38.2-7,62.6-7c9,0,18.4,0.4,28.3,1.4c-0.5,0-1.1,0-1.6,0.1c-4.3-0.2-8.6-0.3-12.7-0.3c-30.5,0-56.4,5.2-76.6,11.5v0.9
		c20.1-6.3,46-11.5,76.6-11.5c0.6,0,1.1,0,1.7,0c-31.4,1.2-57.8,8.3-78.3,16.4v0.9C17,139,37.9,133,62.5,130.5
		c-24.7,3.8-45.6,11.2-62.5,19.3v1c20.9-10.1,48.2-19.2,81.3-21.6c2.3-0.1,4.6-0.1,6.9-0.1c3.1,0,6.3,0.1,9.5,0.2
		c5.6,0.4,11.2,1,17,1.9c5.7,1,11.4,2.2,17.3,3.6c5.8,1.6,11.6,3.3,17.6,5.3c6,2.2,12,4.6,18.1,7.2c6.1,2.8,12.2,5.8,18.3,9
		c6.2,3.5,12.4,7.1,18.6,11c6.2,4.1,12.3,8.4,18.5,12.9c6.4,4.9,12.8,10.1,19.1,15.5c6.2,5.5,12.4,11.3,18.4,17.3
		c6.9,7,13.5,14.4,20.1,22c7,8.5,13.8,17.3,20.2,26.5c6.2,9,12.1,18.4,17.6,28c6.1,10.9,11.7,22.3,16.8,34c1.4,3.2,2.7,6.5,3.9,9.8
		c1.4,3.7,2.9,7.3,4.3,10.9c2,5.9,4.1,11.6,6.1,17.1c1.8,5.8,3.6,11.5,5.4,17c1.7,6,3.3,11.7,5,17.2c1.5,5.9,2.9,11.5,4.5,17
		c1.3,5.9,2.7,11.6,4.1,17.1c2.8,13.9,5.7,26.3,8.8,37.5h1c-1.7-6-3.3-12.3-4.8-19c2,6.7,4,13.1,6,19h1.1
		c-3.7-10.5-7.2-22.4-10.6-35.7c4.2,13.5,8.6,25.3,13,35.7h1.1c-5.5-13.1-10.9-28.4-16.2-46.3c-0.1-0.7-0.3-1.5-0.4-2.2
		c6.6,19.2,13.4,35.2,20.1,48.6h1.1c-7.5-14.8-15.1-33-22.4-55.1c-0.2-1.3-0.4-2.6-0.7-3.9l0,0c9.4,24.3,18.7,43.7,27.9,59h1.2
		c-9.9-16.2-19.9-37.2-29.9-63.9c-0.3-1.6-0.5-3.3-0.8-4.9l0,0c12.7,29.7,25,52.2,37,68.8h1.2c-12.5-17.3-25.5-41-38.8-72.9
		c-0.3-1.7-0.5-3.3-0.7-5c0-0.2-0.1-0.4-0.1-0.6c16.7,35.7,32.5,61,47.5,78.5h1.3c-15.5-17.9-31.9-44.3-49.4-82.1
		c-0.4-2.2-0.7-4.5-1.1-6.7c21.9,42.8,41.8,71.1,60.2,88.8h1.4c-19-18-39.5-47.2-62.2-92.2l0,0c-0.5-2.6-1-5.2-1.6-7.9
		c28.7,51.8,53.3,83,75.8,100.1h1.5c-23-17.1-48.4-49.2-78.1-103.5c-0.7-3-1.4-5.9-2.2-8.9c38,63.7,68.1,97.5,95.6,112.4h1.9
		c-27.9-14.6-58.9-49.2-98.3-115.9c-0.9-3.3-1.8-6.5-2.8-9.8c53,82.9,89.9,117.9,125.1,125.6h4.4c-36.2-5.7-74.4-40.6-130.6-129.1
		c-1.1-3.5-2.3-7.1-3.5-10.6l0,0c67.7,99,108.4,133.8,151.4,133.8c6,0,12-0.7,18.1-2c-0.9,2-1.8,3.9-2.6,5.8
		c-3.4,0.9-6.7,1.6-10.1,2.1h4.9c1.6-0.3,3.1-0.7,4.7-1.1l-0.5,1.1h1.1l0.6-1.4c2.2-0.6,4.3-1.2,6.5-2l-1.6,3.3h1.1l1.8-3.8l0,0
		c2.1-0.7,4.3-1.5,6.5-2.4c-0.8,1.6-1.6,3.2-2.4,4.7c-1.1,0.5-2.3,1-3.4,1.5h2.2l0.5-0.2l-0.1,0.2h1.1l0.5-0.9l0,0
		c2-0.9,4.1-1.9,6.2-2.9c-0.8,1.3-1.5,2.6-2.2,3.8h1.9c1.5-0.9,2.9-1.7,4.5-2.6c-0.6,0.9-1.2,1.8-1.7,2.6h2l2.7-1.8
		c-0.5,0.6-1,1.2-1.6,1.8h1.6l0.9-0.6c2.4-1.7,4.9-4,7.5-6.8c3-2,6.2-4.8,9.5-8.1c3.2-2.2,6.5-5,9.9-8.3c3.3-2.4,6.8-5.3,10.3-8.5
		c3.5-2.6,7.1-5.5,10.7-8.7c3.7-2.7,7.3-5.6,11-8.8c3.8-2.7,7.6-5.8,11.3-9c4-2.9,7.9-6,11.8-9.2c4.1-2.9,8.1-6,12-9.2
		c4.3-3,8.4-6.2,12.6-9.4c4.4-3.1,8.7-6.2,12.9-9.5c4.5-3.1,8.9-6.3,13.2-9.5c4.7-3.2,9.3-6.4,13.8-9.7c4.9-3.2,9.6-6.5,14.2-9.8
		c5.1-3.3,10-6.5,14.7-9.8c35.7-22.1,60.9-44,81.8-62.4c15.4-13.5,28.4-25.2,41.5-33.6v-1.1L840.3,234.6z M106.1,128.9L106.1,128.9
		c-0.5-0.1-0.9-0.1-1.4-0.2c0.4,0,0.9,0,1.3,0.1c0.4,0.1,0.9,0.2,1.2,0.3C106.8,128.9,106.4,128.9,106.1,128.9L106.1,128.9z
		 M676.8,354.2L676.8,354.2c1.7-0.9,3.5-1.8,5.2-2.6c-1.1,1-2.2,2-3.3,3c-1.6,0.9-3.3,1.8-5,2.7
		C674.7,356.3,675.8,355.2,676.8,354.2z M668.4,358.3L668.4,358.3c1.9-0.9,3.8-1.8,5.7-2.8c-1.2,1.1-2.3,2.3-3.5,3.4
		c-1.8,1-3.6,1.9-5.5,2.9C666.3,360.6,667.3,359.5,668.4,358.3z M353.3,355.4L353.3,355.4c-0.7-2.9-1.5-5.7-2.4-8.5
		c0.9,1.5,1.7,2.9,2.6,4.4c0.8,2.9,1.5,5.8,2.2,8.7C354.9,358.5,354.1,357,353.3,355.4z M354,362.7L354,362.7
		c-0.6-1.3-1.2-2.6-1.9-3.9c-0.6-2.3-1.2-4.6-1.8-6.8c0.7,1.2,1.3,2.5,2,3.7C352.9,358,353.5,360.4,354,362.7z M162.5,139.8
		L162.5,139.8c1.8,0.5,3.5,1,5.3,1.6c1.8,1.1,3.7,2.2,5.5,3.3c-1.7-0.6-3.5-1.2-5.2-1.8C166.2,141.9,164.3,140.9,162.5,139.8
		L162.5,139.8z M163.7,141.6L163.7,141.6c-1.6-0.5-3.2-1-4.7-1.5c-1.8-0.9-3.5-1.8-5.2-2.6c1.6,0.4,3.3,0.8,4.9,1.3
		C160.4,139.7,162,140.6,163.7,141.6z M171.3,142.5L171.3,142.5c1.8,0.6,3.7,1.2,5.6,1.8c2,1.3,3.9,2.6,5.8,3.9
		c-1.8-0.7-3.6-1.4-5.4-2C175.3,144.9,173.3,143.7,171.3,142.5z M641.5,376.3L641.5,376.3c-1.5,0.7-3.1,1.4-4.6,2.2
		c-0.5,0.2-1,0.5-1.5,0.7c1-1.3,2.1-2.6,3.1-3.9c2.1-0.9,4.2-1.8,6.3-2.8l0,0C643.7,373.8,642.6,375.1,641.5,376.3z M646.9,371.6
		L646.9,371.6c2-0.9,4-1.8,6-2.8c-1.1,1.2-2.3,2.5-3.4,3.7c-1.9,1-3.9,1.9-5.8,2.8C644.7,374.1,645.8,372.8,646.9,371.6z
		 M207.9,160.1L207.9,160.1c2,0.9,3.9,1.9,5.9,2.9c2.1,1.9,4.3,3.8,6.3,5.7c-2-1.1-3.9-2.2-5.9-3.2
		C212.2,163.7,210,161.9,207.9,160.1L207.9,160.1z M210.5,163.5L210.5,163.5c-1.9-1-3.7-1.9-5.6-2.8c-2.1-1.6-4.1-3.2-6.2-4.8
		c1.9,0.9,3.8,1.7,5.7,2.6C206.5,160.1,208.5,161.8,210.5,163.5L210.5,163.5z M217.1,164.7L217.1,164.7c2,1,4.1,2.1,6.1,3.2
		c2.2,2.1,4.4,4.2,6.6,6.3c-2-1.2-4-2.4-6-3.5C221.6,168.7,219.3,166.7,217.1,164.7L217.1,164.7z M613,392.5L613,392.5
		c-2.2,0.9-4.4,1.8-6.5,2.7c1-1.4,1.9-2.8,2.9-4.3c2.2-0.8,4.4-1.7,6.6-2.6C615,389.7,614,391.1,613,392.5L613,392.5z M617.7,387.7
		L617.7,387.7c2.1-0.9,4.3-1.7,6.5-2.7c-1,1.3-2,2.7-3.1,4c-2.2,0.9-4.3,1.9-6.3,2.7C615.7,390.4,616.7,389.1,617.7,387.7z
		 M254.7,191.2L254.7,191.2c2.1,1.4,4.2,2.9,6.3,4.4c2.4,2.8,4.7,5.7,7,8.6c-2.1-1.6-4.1-3.2-6.2-4.8
		C259.4,196.7,257,193.9,254.7,191.2z M258.2,196.8L258.2,196.8c-2-1.5-4.1-3-6.1-4.4c-2.3-2.5-4.6-5-6.9-7.5c2,1.3,4.1,2.7,6.2,4.1
		C253.7,191.6,256,194.2,258.2,196.8L258.2,196.8z M292.3,226L292.3,226c1.9,1.7,3.7,3.4,5.6,5.1c0.3,0.2,0.5,0.5,0.8,0.7
		c2.5,3.8,4.8,7.7,7.2,11.5c-1.2-1.2-2.3-2.3-3.5-3.5c-0.9-0.9-1.8-1.8-2.7-2.7C297.3,233.4,294.9,229.7,292.3,226L292.3,226z
		 M296.5,234L296.5,234c-2.1-2-4.1-4-6.2-5.9c-2.4-3.4-4.8-6.8-7.2-10.2c2.1,1.8,4.2,3.6,6.3,5.4C291.8,226.8,294.2,230.4,296.5,234
		L296.5,234z M565,418.4L565,418.4c-2.3,0.7-4.6,1.2-6.8,1.8c0.9-1.7,1.9-3.5,2.8-5.2c2.2-0.5,4.5-1,6.8-1.6
		C566.9,415.1,565.9,416.7,565,418.4L565,418.4z M569.2,413L569.2,413c2.2-0.6,4.5-1.2,6.7-1.9c-1,1.6-1.9,3.2-2.8,4.7
		c-2.3,0.8-4.5,1.4-6.7,2.1C567.3,416.4,568.2,414.7,569.2,413z M537.7,429.9L537.7,429.9c-2.3,0.3-4.5,0.6-6.7,0.7c1-2,1.9-4,2.9-6
		c2.2-0.1,4.4-0.3,6.6-0.5C539.6,426.1,538.6,428,537.7,429.9L537.7,429.9z M541.8,424L541.8,424c2.2-0.3,4.4-0.6,6.7-0.9
		c-1,1.8-1.9,3.7-2.8,5.5c-2.3,0.5-4.5,0.9-6.7,1.2C539.8,427.8,540.8,425.9,541.8,424z M537.2,430.8L537.2,430.8
		c-1,1.9-1.9,3.8-2.8,5.7c-2.2,0.4-4.5,0.7-6.7,0.9c0.9-2,1.9-3.9,2.9-6C532.8,431.3,535,431.1,537.2,430.8L537.2,430.8z
		 M533.9,437.5L533.9,437.5c-0.9,1.9-1.9,3.8-2.8,5.6c-2.2,0.5-4.5,0.9-6.7,1.2c0.9-2,1.8-3.9,2.8-5.9
		C529.5,438.2,531.7,437.8,533.9,437.5z M535.2,437.3L535.2,437.3c2.2-0.4,4.4-0.9,6.7-1.4c-0.9,1.8-1.8,3.6-2.7,5.3
		c-2.2,0.6-4.5,1.2-6.7,1.6C533.3,441,534.2,439.2,535.2,437.3L535.2,437.3z M535.6,436.3L535.6,436.3c0.9-1.9,1.9-3.7,2.8-5.7
		c2.2-0.3,4.4-0.7,6.7-1.1c-0.9,1.8-1.9,3.6-2.8,5.4C540,435.5,537.8,435.9,535.6,436.3L535.6,436.3z M546.3,429.3L546.3,429.3
		c2.2-0.5,4.4-1,6.7-1.6c-0.9,1.7-1.8,3.4-2.7,5.1c-2.3,0.7-4.5,1.3-6.7,1.8C544.5,432.9,545.4,431.1,546.3,429.3z M546.9,428.3
		L546.9,428.3c0.9-1.8,1.9-3.6,2.8-5.4c2.2-0.4,4.5-0.9,6.7-1.4c-1,1.8-1.9,3.5-2.8,5.2C551.3,427.3,549.1,427.8,546.9,428.3z
		 M557.7,421.2L557.7,421.2c2.2-0.5,4.5-1.1,6.7-1.7c-0.9,1.6-1.9,3.3-2.8,4.9c-2.3,0.7-4.5,1.4-6.7,2
		C555.8,424.6,556.8,422.9,557.7,421.2z M557,420.5L557,420.5c-2.3,0.5-4.5,1-6.8,1.4c0.9-1.8,1.9-3.7,2.9-5.5
		c2.2-0.3,4.5-0.7,6.7-1.2C558.8,417,557.9,418.8,557,420.5L557,420.5z M549,422.1L549,422.1c-2.3,0.4-4.5,0.7-6.7,1
		c1-1.9,1.9-3.8,2.9-5.8c2.2-0.2,4.5-0.5,6.7-0.8C550.9,418.4,549.9,420.3,549,422.1z M541,423.2L541,423.2
		c-2.3,0.3-4.5,0.4-6.7,0.5c1-2,2-4,3-6c2.2,0,4.4-0.1,6.6-0.3C543,419.4,542,421.3,541,423.2L541,423.2z M533.2,423.8L533.2,423.8
		c-1.2,0.1-2.4,0.1-3.6,0.1c-62.1,0.1-103.4-58.9-220.8-177.5c-2.4-4-4.8-7.9-7.3-11.8c127.2,118.4,167,183.2,234.3,183.3
		c0.1,0,0.3,0,0.4,0C535.2,419.8,534.2,421.8,533.2,423.8z M308,246.8L308,246.8c2.4,3.9,4.6,7.9,6.9,11.9c-1.9-2.1-3.8-4.2-5.8-6.3
		c-2.3-3.9-4.7-7.8-7.1-11.7C304,242.8,306,244.8,308,246.8L308,246.8z M310.8,249.6L310.8,249.6C426,366.3,467,424.6,529.6,424.7
		c1,0,2.1,0,3.2-0.1c-1,2-2,4.1-2.9,6.1c-2.2,0.1-4.3,0.2-6.5,0.2c-57.6,0.1-99.7-52.9-205.7-169.1
		C315.5,257.8,313.2,253.7,310.8,249.6L310.8,249.6z M523.4,431.8L523.4,431.8c2,0,4-0.1,6.1-0.2c-1,2-1.9,4.1-2.9,6
		c-3.2,0.3-6.3,0.5-9.4,0.5c-53.4,0.1-95.8-47.5-191.1-160.5c-2.1-4.1-4.2-8.2-6.4-12.3C423.6,379.3,465.3,431.7,523.4,431.8
		L523.4,431.8z M517.2,438.9L517.2,438.9c2.9,0,6-0.1,9-0.4c-1,2-1.9,4-2.8,6c-4.2,0.6-8.3,0.9-12.4,0.9
		c-49.5,0.1-91.7-42.7-177.4-152c-1.8-4.1-3.8-8.1-5.7-12.2C421.3,391.9,463.3,438.9,517.2,438.9z M524.1,445.2L524.1,445.2
		c2.2-0.3,4.4-0.7,6.6-1.1c-0.9,1.9-1.8,3.7-2.7,5.6c-2.2,0.6-4.5,1-6.7,1.4C522.2,449.1,523.1,447.2,524.1,445.2z M527.5,450.7
		L527.5,450.7c-0.9,1.9-1.8,3.7-2.6,5.4c-2.2,0.7-4.5,1.2-6.6,1.7c0.9-1.9,1.8-3.8,2.7-5.8C523.1,451.6,525.3,451.2,527.5,450.7z
		 M528.8,450.3L528.8,450.3c2.2-0.5,4.4-1.2,6.6-1.8c-0.9,1.7-1.8,3.4-2.6,5c-2.2,0.8-4.4,1.5-6.6,2.2
		C527,454,527.9,452.2,528.8,450.3z M529.3,449.3L529.3,449.3c0.9-1.8,1.8-3.6,2.7-5.5c2.2-0.5,4.4-1,6.6-1.6
		c-0.9,1.8-1.8,3.5-2.7,5.2C533.7,448.2,531.4,448.8,529.3,449.3z M539.9,441.9L539.9,441.9c2.2-0.6,4.4-1.2,6.6-2
		c-0.9,1.6-1.8,3.2-2.6,4.8c-2.2,0.8-4.4,1.6-6.6,2.3C538.1,445.3,539,443.6,539.9,441.9L539.9,441.9z M540.4,440.8L540.4,440.8
		c0.9-1.7,1.8-3.5,2.7-5.2c2.2-0.5,4.4-1.1,6.6-1.8c-0.9,1.7-1.8,3.3-2.7,5C544.8,439.5,542.6,440.2,540.4,440.8z M551.1,433.4
		L551.1,433.4c2.2-0.7,4.4-1.3,6.6-2.1c-0.9,1.6-1.8,3.1-2.7,4.6c-2.2,0.9-4.4,1.6-6.6,2.4C549.3,436.7,550.1,435.1,551.1,433.4
		L551.1,433.4z M551.7,432.4L551.7,432.4c0.9-1.6,1.8-3.3,2.7-5c2.2-0.6,4.4-1.2,6.7-1.9c-0.9,1.6-1.8,3.2-2.7,4.8
		C556.1,431,553.8,431.7,551.7,432.4z M562.4,425L562.4,425c2.2-0.7,4.3-1.4,6.6-2.2c-0.9,1.5-1.8,3-2.7,4.5
		c-2.2,0.9-4.4,1.7-6.5,2.4C560.6,428.2,561.5,426.6,562.4,425L562.4,425z M563,423.9L563,423.9c0.9-1.6,1.8-3.2,2.7-4.8
		c2.2-0.6,4.4-1.3,6.7-2c-0.9,1.6-1.9,3.1-2.8,4.6C567.4,422.4,565.2,423.2,563,423.9L563,423.9z M573.9,416.6L573.9,416.6
		c2.2-0.7,4.3-1.5,6.6-2.3c-0.9,1.5-1.9,2.9-2.8,4.4c-2.2,0.9-4.4,1.7-6.5,2.5C572.1,419.6,573,418.1,573.9,416.6L573.9,416.6z
		 M574.6,415.4L574.6,415.4c0.9-1.5,1.8-3.1,2.8-4.7c2.2-0.7,4.4-1.4,6.7-2.2c-1,1.5-1.9,3-2.8,4.5
		C578.9,413.9,576.7,414.7,574.6,415.4z M585.5,408.1L585.5,408.1c2.2-0.7,4.3-1.5,6.6-2.4c-1,1.4-1.9,2.9-2.8,4.3
		c-2.2,0.9-4.4,1.7-6.5,2.5C583.6,411,584.6,409.5,585.5,408.1L585.5,408.1z M586.2,406.9L586.2,406.9c0.9-1.5,1.9-3,2.8-4.5
		c2.2-0.7,4.5-1.5,6.7-2.3c-1,1.5-1.9,2.9-2.9,4.4C590.6,405.3,588.4,406.1,586.2,406.9z M584.7,407.4L584.7,407.4
		c-2.3,0.8-4.5,1.5-6.7,2.2c0.9-1.6,1.9-3.2,2.8-4.8c2.2-0.6,4.5-1.3,6.8-2C586.6,404.4,585.7,405.9,584.7,407.4L584.7,407.4z
		 M576.6,410.1L576.6,410.1c-2.3,0.7-4.6,1.4-6.8,1.9c0.6-1,1.1-2,1.7-3c0.4-0.7,0.8-1.3,1.1-2c2.2-0.5,4.5-1.1,6.8-1.7
		C578.5,406.9,577.5,408.5,576.6,410.1L576.6,410.1z M570.6,408.6L570.6,408.6c-0.7,1.2-1.4,2.5-2.1,3.7c-2.3,0.6-4.6,1.1-6.8,1.6
		c1-1.8,1.9-3.5,2.9-5.3c2.2-0.4,4.5-0.9,6.8-1.4C571.1,407.8,570.8,408.2,570.6,408.6L570.6,408.6z M560.4,414.2L560.4,414.2
		L560.4,414.2c-2.3,0.5-4.6,0.9-6.8,1.2c1-1.8,1.9-3.7,2.9-5.6c2.2-0.3,4.5-0.6,6.8-1C562.3,410.7,561.3,412.5,560.4,414.2
		L560.4,414.2z M552.3,415.6L552.3,415.6c-2.3,0.3-4.5,0.6-6.7,0.8c1-1.9,2-3.9,3-5.8c2.2-0.1,4.5-0.3,6.7-0.6
		C554.3,411.9,553.3,413.8,552.3,415.6z M544.4,416.6L544.4,416.6c-2.3,0.2-4.5,0.3-6.7,0.3c1-2,2-4,3-6.1c0.4,0,0.8,0,1.1,0
		c1.8,0,3.6-0.1,5.5-0.1C546.4,412.7,545.4,414.6,544.4,416.6L544.4,416.6z M536.6,416.9L536.6,416.9c-0.3,0-0.6,0-0.9,0
		C469,417,428.9,351.6,299.5,231.3c-2.5-3.8-5-7.6-7.5-11.4c0.7,0.6,1.5,1.2,2.2,1.9c136.3,116.8,175.2,187.4,245.5,189
		C538.6,412.8,537.6,414.9,536.6,416.9L536.6,416.9z M296.6,228.7L296.6,228.7c-2.2-2-4.3-3.9-6.5-5.9c-2.4-3.5-4.9-7.1-7.4-10.5
		c2.2,1.8,4.3,3.5,6.5,5.4C291.7,221.3,294.2,225,296.6,228.7L296.6,228.7z M287.1,220.2L287.1,220.2c-2.2-1.9-4.3-3.7-6.4-5.5
		c-2.4-3.3-4.8-6.5-7.3-9.7c2.2,1.7,4.3,3.3,6.5,5.1C282.3,213.4,284.7,216.8,287.1,220.2L287.1,220.2z M277.5,212L277.5,212
		c-2.1-1.8-4.2-3.5-6.3-5.2c-2.4-3-4.8-6-7.2-9c2.1,1.6,4.3,3.1,6.4,4.7C272.8,205.7,275.2,208.9,277.5,212L277.5,212z M270.4,207.4
		L270.4,207.4c2.3,2.9,4.6,5.9,6.8,8.8c-2-1.7-4-3.5-6-5.1c-2.3-2.8-4.6-5.7-6.9-8.5C266.4,204.2,268.4,205.8,270.4,207.4
		L270.4,207.4z M273.7,210.1L273.7,210.1c2,1.7,4.1,3.4,6.2,5.1c2.4,3.2,4.7,6.5,7,9.8c-2-1.9-4.1-3.7-6.1-5.5
		C278.4,216.3,276.1,213.2,273.7,210.1L273.7,210.1z M289.5,228.6L289.5,228.6c2.3,3.3,4.6,6.7,6.8,10.1c-2-2-3.9-4-5.9-6
		c-2.2-3.2-4.5-6.4-6.9-9.6C285.5,224.9,287.5,226.7,289.5,228.6L289.5,228.6z M292.8,231.8L292.8,231.8c2,1.9,4,3.9,6,5.9
		c2.4,3.7,4.7,7.4,7,11.2c-2-2.2-4-4.3-6-6.4C297.6,238.9,295.2,235.3,292.8,231.8L292.8,231.8z M305.4,249.8L305.4,249.8
		c1,1,1.9,2.1,2.9,3.1c2.3,3.8,4.5,7.7,6.6,11.5c-1.6-1.9-3.3-3.9-4.9-5.8c-0.2-0.3-0.4-0.5-0.6-0.7c-2.2-3.7-4.5-7.5-6.8-11.1
		C303.5,247.7,304.4,248.7,305.4,249.8z M311.4,256.3L311.4,256.3c1.8,2,3.7,4,5.4,6c2.2,4,4.3,8,6.4,12.1c-1.7-2-3.4-4.1-5.2-6.1
		C315.9,264.2,313.7,260.3,311.4,256.3L311.4,256.3z M325.2,278.1L325.2,278.1c2,4,3.9,8,5.8,12c-1.5-1.9-3-3.9-4.6-5.8
		c-2-4-4-8-6.1-11.9C321.9,274.2,323.5,276.2,325.2,278.1z M332.6,293.8L332.6,293.8c1.8,3.9,3.4,7.8,5.1,11.7
		c-1.3-1.8-2.7-3.7-4-5.5c-1.7-3.9-3.5-7.8-5.4-11.7C329.8,290.1,331.3,291.9,332.6,293.8L332.6,293.8z M335.2,297L335.2,297
		c84,106.9,125.9,149.2,175.7,149.2c3.9,0,7.9-0.3,12-0.8c-0.9,2-1.9,4-2.8,5.9c-5.2,0.9-10.4,1.4-15.4,1.4
		c-45.9,0.1-87.7-38.6-164.5-143.9C338.6,304.8,336.9,300.9,335.2,297L335.2,297z M504.7,453.6L504.7,453.6c4.9,0,9.9-0.5,15-1.3
		c-0.9,2-1.8,3.9-2.7,5.9c-6.3,1.4-12.4,2.1-18.5,2.1c-42.6,0.1-83.7-35.2-152.6-136.5c-1.4-3.8-2.8-7.5-4.2-11.3
		C417,415.3,458.4,453.5,504.7,453.6L504.7,453.6z M517.8,458.8L517.8,458.8c2.2-0.5,4.4-1,6.6-1.6c-0.9,1.8-1.7,3.6-2.6,5.3
		c-2.2,0.7-4.4,1.4-6.6,2C516,462.7,516.9,460.8,517.8,458.8z M523.1,462.1L523.1,462.1c0.8-1.7,1.7-3.5,2.5-5.2
		c2.2-0.6,4.3-1.3,6.5-2.1c-0.9,1.7-1.7,3.3-2.5,4.9C527.5,460.5,525.3,461.3,523.1,462.1L523.1,462.1z M533.5,454.3L533.5,454.3
		c2.1-0.8,4.3-1.6,6.4-2.4c-0.9,1.5-1.7,3-2.5,4.5c-2.2,1-4.3,1.9-6.4,2.8C531.9,457.5,532.7,455.9,533.5,454.3z M534.1,453.1
		L534.1,453.1c0.8-1.6,1.7-3.3,2.6-5c2.2-0.7,4.3-1.4,6.5-2.2c-0.9,1.6-1.7,3.1-2.6,4.6C538.4,451.5,536.3,452.3,534.1,453.1z
		 M544.6,445.4L544.6,445.4c2.1-0.8,4.2-1.6,6.4-2.5c-0.9,1.4-1.7,2.9-2.5,4.3c-2.1,1-4.3,1.9-6.3,2.8
		C542.9,448.5,543.7,447,544.6,445.4z M545.2,444.3L545.2,444.3c0.9-1.6,1.7-3.1,2.6-4.7c2.1-0.7,4.3-1.5,6.5-2.3
		c-0.9,1.5-1.8,3-2.6,4.5C549.5,442.6,547.3,443.5,545.2,444.3z M555.7,436.7L555.7,436.7c2.1-0.8,4.2-1.6,6.3-2.5
		c-0.9,1.4-1.7,2.8-2.6,4.1c-2.1,1-4.2,1.9-6.3,2.7C554,439.7,554.9,438.2,555.7,436.7L555.7,436.7z M556.4,435.5L556.4,435.5
		c0.9-1.5,1.7-3,2.6-4.6c2.1-0.7,4.3-1.5,6.5-2.4c-0.9,1.5-1.8,2.9-2.7,4.3C560.7,433.8,558.5,434.7,556.4,435.5L556.4,435.5z
		 M567,428L567,428c2.1-0.8,4.1-1.6,6.3-2.5c-0.9,1.4-1.8,2.7-2.7,4.1c-2.1,0.9-4.2,1.9-6.2,2.7C565.3,430.9,566.1,429.4,567,428z
		 M567.8,426.8L567.8,426.8c0.9-1.4,1.8-2.9,2.7-4.4c2.1-0.8,4.3-1.6,6.4-2.4c-0.9,1.4-1.8,2.8-2.7,4.2
		C572,425.1,569.8,426,567.8,426.8z M578.4,419.4L578.4,419.4c2-0.8,4.1-1.7,6.2-2.6c-0.9,1.4-1.8,2.7-2.8,4
		c-2.1,0.9-4.1,1.8-6.1,2.7C576.6,422.1,577.5,420.7,578.4,419.4z M579.2,418.1L579.2,418.1c0.9-1.4,1.8-2.8,2.7-4.3
		c2.1-0.8,4.3-1.6,6.4-2.5c-0.9,1.4-1.9,2.8-2.8,4.1C583.4,416.4,581.3,417.3,579.2,418.1L579.2,418.1z M590,410.7L590,410.7
		c2-0.8,4.1-1.7,6.2-2.6c-1,1.3-1.9,2.6-2.9,3.9c-2.1,0.9-4.1,1.8-6.1,2.7C588.2,413.4,589.1,412.1,590,410.7L590,410.7z
		 M590.9,409.4L590.9,409.4c0.9-1.4,1.8-2.8,2.8-4.2c2.1-0.8,4.3-1.6,6.4-2.5c-1,1.4-1.9,2.7-2.9,4.1
		C595,407.7,592.9,408.6,590.9,409.4z M594.5,404L594.5,404c0.9-1.4,1.9-2.9,2.8-4.3c2.2-0.8,4.4-1.6,6.6-2.5c-1,1.4-2,2.8-2.9,4.2
		C598.8,402.2,596.6,403.1,594.5,404L594.5,404z M605.6,396.5L605.6,396.5c2.1-0.8,4.3-1.7,6.4-2.6c-1,1.4-2,2.7-3,4
		c-2.1,0.9-4.3,1.8-6.3,2.7C603.6,399.3,604.6,398,605.6,396.5L605.6,396.5z M604.8,395.9L604.8,395.9c-2.3,0.9-4.5,1.7-6.7,2.5
		c1-1.5,1.9-2.9,2.9-4.5c2.2-0.7,4.5-1.5,6.8-2.4C606.8,393,605.8,394.4,604.8,395.9L604.8,395.9z M596.6,399L596.6,399
		c-2.3,0.8-4.6,1.6-6.8,2.3c1-1.5,1.9-3.1,2.9-4.6c2.2-0.7,4.5-1.4,6.8-2.2C598.5,396,597.5,397.5,596.6,399z M588.3,401.8
		L588.3,401.8c-2.3,0.7-4.6,1.4-6.9,2.1c1-1.6,1.9-3.2,2.9-4.9c2.2-0.6,4.5-1.2,6.9-1.9C590.2,398.7,589.2,400.2,588.3,401.8
		L588.3,401.8z M580.1,404.2L580.1,404.2c-2.3,0.7-4.6,1.2-6.9,1.8c1-1.7,1.9-3.4,2.9-5.1c2.3-0.5,4.5-1,6.9-1.6
		C582,401,581,402.6,580.1,404.2z M571.9,406.3L571.9,406.3c-2.3,0.5-4.6,1-6.9,1.4c1-1.8,2-3.6,2.9-5.4c2.2-0.4,4.5-0.8,6.9-1.2
		C573.8,402.9,572.9,404.6,571.9,406.3L571.9,406.3z M563.8,408L563.8,408c-2.3,0.4-4.6,0.8-6.8,1c1-1.8,2-3.7,3-5.6
		c2.2-0.2,4.5-0.5,6.8-0.9C565.7,404.4,564.7,406.2,563.8,408z M555.7,409.2L555.7,409.2c-2.3,0.3-4.5,0.5-6.7,0.6
		c1-1.9,2-3.9,3-5.8c2.2-0.1,4.5-0.2,6.7-0.4C557.7,405.5,556.7,407.4,555.7,409.2L555.7,409.2z M547.8,409.9L547.8,409.9
		c-2,0.1-4,0.2-5.9,0.2c-0.3,0-0.5,0-0.7,0c1-2,2-4,3.1-6.1c1.2,0.1,2.5,0.1,3.7,0.1c1,0,1.9,0,2.9,0
		C549.8,406,548.8,408,547.8,409.9L547.8,409.9z M540.1,410L540.1,410c-69.5-1.1-108.5-71.5-245.1-188.7c-1.6-1.4-3.3-2.8-4.9-4.1
		c-2.5-3.6-5-7.2-7.6-10.8c2.7,2,5.4,4.1,8.1,6.2c142.3,112.8,180.2,188,252.7,191.3C542.1,406,541.1,408,540.1,410L540.1,410z
		 M287.3,214.9L287.3,214.9c-2.2-1.8-4.4-3.6-6.6-5.4c-2.5-3.4-5-6.7-7.5-10.1c2.2,1.6,4.5,3.3,6.7,4.9
		C282.3,207.8,284.8,211.3,287.3,214.9L287.3,214.9z M277.7,207.2L277.7,207.2c-2.2-1.7-4.4-3.4-6.6-5.1c-2.4-3.1-4.9-6.3-7.4-9.4
		c2.2,1.5,4.4,3.1,6.7,4.7C272.9,200.7,275.3,203.9,277.7,207.2L277.7,207.2z M268.2,199.9L268.2,199.9c-2.2-1.6-4.3-3.2-6.5-4.8
		c-2.4-2.9-4.8-5.8-7.3-8.6c2.2,1.4,4.4,2.9,6.5,4.4C263.3,193.9,265.8,196.9,268.2,199.9L268.2,199.9z M258.6,193L258.6,193
		c-2.2-1.5-4.3-3-6.4-4.5c-2.4-2.7-4.8-5.3-7.2-8c2.2,1.3,4.3,2.7,6.5,4.1C253.8,187.4,256.2,190.2,258.6,193z M249,186.4L249,186.4
		c-2.1-1.4-4.2-2.8-6.3-4.1c-2.3-2.4-4.6-4.9-7-7.3c2.1,1.2,4.3,2.5,6.4,3.8C244.4,181.3,246.7,183.8,249,186.4L249,186.4z
		 M239.4,180.1L239.4,180.1c-2.1-1.3-4.1-2.6-6.2-3.8c-2.3-2.2-4.6-4.5-6.9-6.6c2.1,1.1,4.2,2.3,6.2,3.5
		C234.8,175.5,237.1,177.8,239.4,180.1L239.4,180.1z M232.5,176.9L232.5,176.9c2.1,2.1,4.3,4.2,6.3,6.3c-1.9-1.3-3.8-2.5-5.7-3.7
		c-2.1-2-4.3-4.1-6.4-6C228.6,174.6,230.5,175.8,232.5,176.9z M235.9,179.1L235.9,179.1c2,1.2,4,2.5,6,3.8c2.2,2.3,4.4,4.7,6.6,7.1
		c-2-1.4-3.9-2.7-5.9-4.1C240.3,183.6,238.1,181.3,235.9,179.1L235.9,179.1z M251.4,193.1L251.4,193.1c2.1,2.4,4.3,4.7,6.3,7.1
		c-1.8-1.4-3.7-2.9-5.6-4.3c-2.1-2.3-4.3-4.6-6.4-6.9C247.6,190.3,249.5,191.7,251.4,193.1L251.4,193.1z M255,195.7L255,195.7
		c2,1.4,3.9,2.9,5.9,4.4c2.2,2.6,4.4,5.3,6.6,8c-1.9-1.6-3.9-3.2-5.8-4.7C259.5,200.8,257.2,198.2,255,195.7z M270.4,211.7
		L270.4,211.7c2.1,2.7,4.3,5.4,6.3,8.1c-1.8-1.7-3.7-3.3-5.5-5c-2.1-2.6-4.3-5.2-6.4-7.8C266.7,208.6,268.6,210.2,270.4,211.7z
		 M274.2,214.9L274.2,214.9c1.9,1.7,3.9,3.3,5.8,5.1c2.2,3,4.4,6,6.6,9.1c-1.9-1.8-3.8-3.7-5.7-5.5
		C278.6,220.7,276.4,217.8,274.2,214.9z M289.5,233.3L289.5,233.3c2.2,3.1,4.3,6.3,6.4,9.4c-1.8-2-3.6-3.9-5.4-5.8
		c-2.1-3-4.3-6-6.4-9C285.9,229.7,287.7,231.5,289.5,233.3L289.5,233.3z M293.3,237.1L293.3,237.1c1.9,1.9,3.7,3.8,5.6,5.8
		c2.2,3.5,4.5,7,6.6,10.5c-1.8-2.1-3.7-4.3-5.6-6.3C297.8,243.8,295.5,240.5,293.3,237.1L293.3,237.1z M308.4,258.3L308.4,258.3
		c2.1,3.6,4.2,7.2,6.2,10.8c-0.3-0.4-0.7-0.8-1-1.2c-1.4-1.8-2.8-3.6-4.2-5.4c-2-3.5-4.1-6.9-6.3-10.3
		C304.9,254.2,306.7,256.3,308.4,258.3L308.4,258.3z M312.1,262.7L312.1,262.7c1.7,2,3.4,4,5.1,6c2.1,3.8,4.1,7.7,6.1,11.6
		c-1.6-2-3.2-4.1-4.8-6.2C316.4,270.2,314.2,266.4,312.1,262.7L312.1,262.7z M325.4,284.6L325.4,284.6c1.9,3.8,3.7,7.6,5.4,11.4
		c-1.4-1.9-2.7-3.8-4.1-5.8c-1.8-3.8-3.7-7.5-5.6-11.3C322.5,280.9,324,282.7,325.4,284.6L325.4,284.6z M332.7,300.3L332.7,300.3
		c1.6,3.6,3.1,7.2,4.6,10.9c-1.2-1.7-2.3-3.5-3.5-5.2c-1.6-3.6-3.2-7.2-4.8-10.8C330.2,296.9,331.5,298.6,332.7,300.3z M335.4,304
		L335.4,304c1.3,1.8,2.5,3.5,3.8,5.2c1.5,3.7,2.9,7.4,4.3,11.1c-1.2-1.7-2.4-3.5-3.5-5.2C338.5,311.4,337,307.7,335.4,304L335.4,304
		z M344.9,324.1L344.9,324.1c1.2,3.5,2.4,6.9,3.6,10.5c-1-1.6-2.1-3.3-3.1-4.9c-1.2-3.5-2.5-6.9-3.8-10.4
		C342.7,320.8,343.8,322.5,344.9,324.1L344.9,324.1z M528.1,464.8L528.1,464.8c0.8-1.5,1.6-3,2.4-4.6c2.1-0.9,4.2-1.7,6.3-2.7
		c-0.8,1.4-1.6,2.9-2.4,4.2C532.2,462.8,530.1,463.9,528.1,464.8z M538.2,456.9L538.2,456.9c2-0.9,4-1.9,6.1-2.9
		c-0.8,1.3-1.6,2.6-2.3,3.8c-2,1.1-4,2.2-6,3.2C536.7,459.6,537.5,458.3,538.2,456.9L538.2,456.9z M539,455.6L539,455.6
		c0.8-1.4,1.6-2.9,2.4-4.3c2.1-0.9,4.1-1.7,6.2-2.7c-0.8,1.4-1.6,2.7-2.4,4.1C543.1,453.7,541,454.6,539,455.6z M549.2,447.8
		L549.2,447.8c2-0.9,3.9-1.8,6-2.8c-0.8,1.3-1.6,2.5-2.4,3.7c-2,1-3.9,2.1-5.9,3C547.5,450.5,548.3,449.2,549.2,447.8L549.2,447.8z
		 M549.9,446.5L549.9,446.5c0.8-1.4,1.6-2.7,2.5-4.2c2-0.9,4.1-1.7,6.2-2.7c-0.9,1.3-1.7,2.7-2.5,3.9
		C554,444.6,552,445.6,549.9,446.5z M560.2,438.9L560.2,438.9c1.9-0.9,3.9-1.8,5.8-2.7c-0.9,1.2-1.7,2.5-2.6,3.7
		c-1.9,1-3.9,2-5.7,2.9C558.5,441.5,559.4,440.2,560.2,438.9z M561,437.6L561,437.6c0.8-1.3,1.7-2.7,2.5-4.1c2-0.9,4-1.7,6.1-2.6
		c-0.9,1.3-1.8,2.6-2.6,3.9C565,435.7,563,436.7,561,437.6z M571.3,430.1L571.3,430.1c1.9-0.9,3.8-1.7,5.7-2.7
		c-0.9,1.2-1.8,2.4-2.7,3.6c-1.9,1-3.7,1.9-5.6,2.8C569.6,432.7,570.4,431.4,571.3,430.1L571.3,430.1z M572.2,428.7L572.2,428.7
		c0.9-1.3,1.7-2.6,2.6-4c2-0.9,4-1.7,6-2.6c-0.9,1.3-1.8,2.6-2.7,3.8C576.1,427,574.2,427.9,572.2,428.7z M582.6,421.4L582.6,421.4
		c1.8-0.9,3.7-1.7,5.6-2.6c-0.9,1.2-1.9,2.4-2.8,3.6c-1.8,0.9-3.7,1.8-5.4,2.7C580.8,423.9,581.7,422.6,582.6,421.4z M583.6,420
		L583.6,420c0.9-1.3,1.8-2.6,2.7-3.9c2-0.8,3.9-1.7,6-2.6c-1,1.3-1.9,2.6-2.8,3.8C587.4,418.2,585.5,419.1,583.6,420L583.6,420z
		 M594,412.6L594,412.6c1.8-0.8,3.7-1.7,5.5-2.6c-1,1.2-2,2.5-3,3.7c-1.8,0.9-3.6,1.8-5.3,2.6C592.2,415.1,593.1,413.9,594,412.6z
		 M595.1,411.2L595.1,411.2c0.9-1.3,1.8-2.6,2.8-3.9c1.9-0.9,3.9-1.7,5.9-2.6c-1,1.3-2,2.6-3,3.8
		C598.8,409.4,596.9,410.3,595.1,411.2z M598.8,405.9L598.8,405.9c0.9-1.3,1.9-2.6,2.8-4c2-0.8,4.1-1.7,6.2-2.6c-1,1.3-2,2.6-3,3.9
		C602.8,404.2,600.8,405.1,598.8,405.9z M609.7,398.6L609.7,398.6c1.9-0.9,3.9-1.7,5.9-2.6c-1,1.3-2.1,2.6-3.1,3.8
		c-1.9,0.9-3.8,1.8-5.6,2.6C607.8,401.1,608.7,399.9,609.7,398.6L609.7,398.6z M610.8,397.1L610.8,397.1c1-1.3,1.9-2.6,2.9-3.9
		c2-0.9,4.1-1.7,6.2-2.7c-1,1.3-2,2.6-3.1,3.9C614.7,395.3,612.7,396.3,610.8,397.1z M621.8,389.7L621.8,389.7
		c1.9-0.9,3.9-1.7,5.9-2.6c-1.1,1.3-2.1,2.5-3.2,3.7c-0.8,0.4-1.5,0.8-2.3,1.1c-1.1,0.5-2.2,1-3.3,1.6
		C619.7,392.3,620.7,391,621.8,389.7z M622.9,388.2L622.9,388.2c1-1.3,2-2.6,3-3.9c2-0.9,4.1-1.8,6.2-2.7c-1.1,1.3-2.1,2.6-3.2,3.9
		C626.9,386.4,624.9,387.3,622.9,388.2L622.9,388.2z M634.1,380.7L634.1,380.7c1.1-0.5,2.2-1,3.3-1.5c0.9-0.4,1.8-0.8,2.7-1.2
		c-1.1,1.2-2.2,2.5-3.3,3.7c-1.9,0.9-3.8,1.8-5.7,2.7C632,383.3,633.1,382,634.1,380.7z M633.3,380.1L633.3,380.1
		c-2.2,1-4.3,1.9-6.4,2.8c1-1.3,2-2.7,3-4c2.2-0.9,4.3-1.8,6.5-2.7C635.5,377.5,634.4,378.8,633.3,380.1L633.3,380.1z M625.2,383.7
		L625.2,383.7c-2.2,1-4.4,1.9-6.6,2.7c1-1.4,2-2.7,3-4.2c2.2-0.9,4.5-1.7,6.7-2.6C627.2,381,626.2,382.4,625.2,383.7z M616.8,387.1
		L616.8,387.1c-2.3,0.9-4.5,1.8-6.7,2.6c1-1.4,2-2.9,2.9-4.3c2.2-0.8,4.5-1.6,6.8-2.5C618.9,384.3,617.9,385.7,616.8,387.1z
		 M608.5,390.3L608.5,390.3c-2.3,0.9-4.6,1.7-6.9,2.4c1-1.5,2-3,2.9-4.5c2.3-0.7,4.6-1.5,6.9-2.3
		C610.5,387.4,609.5,388.9,608.5,390.3z M600.2,393.3L600.2,393.3c-2.4,0.8-4.6,1.5-6.9,2.2c1-1.6,1.9-3.1,2.9-4.8
		c2.3-0.6,4.6-1.3,6.9-2C602.1,390.2,601.1,391.7,600.2,393.3z M591.8,395.9L591.8,395.9c-2.4,0.7-4.7,1.4-6.9,2c1-1.6,2-3.3,2.9-5
		c2.3-0.5,4.6-1.1,6.9-1.8C593.8,392.7,592.8,394.3,591.8,395.9L591.8,395.9z M583.5,398.2L583.5,398.2c-2.4,0.6-4.7,1.2-6.9,1.6
		c1-1.7,2-3.5,2.9-5.2c2.3-0.4,4.6-0.9,6.9-1.4C585.5,394.9,584.5,396.6,583.5,398.2z M575.3,400.1L575.3,400.1
		c-2.4,0.5-4.6,0.9-6.9,1.3c1-1.8,2-3.6,3-5.4c2.3-0.3,4.6-0.7,6.9-1.1C577.2,396.7,576.3,398.4,575.3,400.1L575.3,400.1z
		 M567.2,401.6L567.2,401.6c-2.3,0.4-4.6,0.7-6.8,0.9c1-1.9,2-3.7,3-5.7c2.2-0.2,4.5-0.4,6.8-0.7C569.2,398,568.2,399.8,567.2,401.6
		L567.2,401.6z M559.1,402.6L559.1,402.6c-2.3,0.2-4.5,0.4-6.8,0.5c1-2,2-3.9,3.1-5.9c2.2,0,4.5-0.1,6.7-0.3
		C561.1,398.8,560.1,400.7,559.1,402.6L559.1,402.6z M551.2,403.1L551.2,403.1c-1.1,0-2.2,0.1-3.3,0.1c-1.1,0-2.2,0-3.3-0.1
		c1-2,2.1-4.1,3.1-6.1c2.1,0.1,4.1,0.2,6.3,0.2c0.1,0,0.2,0,0.4,0C553.3,399.2,552.2,401.2,551.2,403.1L551.2,403.1z M543.5,403.1
		L543.5,403.1c-71.7-2.9-109.7-78-252.4-191.1c-3.5-2.8-7.1-5.6-10.6-8.2c-2.5-3.5-5.1-6.9-7.7-10.3c4.6,3.1,9.2,6.4,13.8,9.8
		C435.1,312,472,392,546.6,397C545.5,399,544.5,401,543.5,403.1L543.5,403.1z M277.9,201.8L277.9,201.8c-2.3-1.7-4.5-3.3-6.8-4.9
		c-2.5-3.2-5-6.4-7.6-9.6c2.3,1.5,4.5,3,6.8,4.5C272.9,195.1,275.4,198.5,277.9,201.8L277.9,201.8z M268.4,194.9L268.4,194.9
		c-2.2-1.6-4.5-3.1-6.7-4.6c-2.5-3-5-6-7.5-9c2.2,1.4,4.5,2.8,6.8,4.3C263.4,188.6,265.9,191.7,268.4,194.9L268.4,194.9z
		 M258.8,188.4L258.8,188.4c-2.2-1.5-4.5-2.9-6.7-4.4c-2.4-2.8-4.9-5.6-7.4-8.3c2.2,1.3,4.5,2.6,6.7,4
		C253.9,182.6,256.4,185.4,258.8,188.4L258.8,188.4z M249.3,182.2L249.3,182.2c-2.2-1.4-4.4-2.7-6.6-4.1c-2.4-2.6-4.8-5.2-7.3-7.7
		c2.2,1.2,4.4,2.5,6.7,3.7C244.5,176.8,246.9,179.5,249.3,182.2z M239.8,176.3L239.8,176.3c-2.2-1.3-4.3-2.6-6.5-3.8
		c-2.4-2.4-4.8-4.8-7.1-7.1c2.2,1.1,4.4,2.3,6.6,3.5C235,171.4,237.4,173.8,239.8,176.3L239.8,176.3z M230.2,170.8L230.2,170.8
		c-2.2-1.2-4.3-2.4-6.4-3.5c-2.3-2.2-4.6-4.4-7-6.5c2.2,1,4.3,2.1,6.5,3.2C225.6,166.3,227.9,168.5,230.2,170.8L230.2,170.8z
		 M220.6,165.6L220.6,165.6c-2.1-1.1-4.2-2.2-6.3-3.2c-2.3-2-4.6-4-6.9-5.9c2.1,0.9,4.2,1.9,6.3,2.9
		C216.1,161.4,218.4,163.5,220.6,165.6z M211.1,160.8L211.1,160.8c-2-1-4.1-2-6.1-2.9c-2.2-1.8-4.5-3.6-6.7-5.4
		c2.1,0.9,4.1,1.7,6.2,2.6C206.7,157,208.9,158.9,211.1,160.8L211.1,160.8z M201.6,156.3L201.6,156.3c-2-0.9-4-1.8-5.9-2.6
		c-2.2-1.6-4.3-3.2-6.5-4.8c2,0.8,4,1.6,6,2.4C197.4,152.9,199.5,154.6,201.6,156.3L201.6,156.3z M192.1,152.1L192.1,152.1
		c-1.9-0.8-3.8-1.6-5.7-2.3c-2.1-1.4-4.1-2.8-6.2-4.2c1.9,0.7,3.9,1.4,5.8,2.1C188,149.1,190,150.6,192.1,152.1L192.1,152.1z
		 M185.8,150.5L185.8,150.5c1.8,1.2,3.6,2.5,5.4,3.7c-1.6-0.7-3.3-1.4-4.9-2.2c-1.8-1.2-3.7-2.4-5.6-3.6
		C182.4,149.1,184.1,149.8,185.8,150.5L185.8,150.5z M189.6,152.1L189.6,152.1c1.8,0.7,3.6,1.5,5.4,2.3c1.9,1.4,3.9,2.9,5.8,4.4
		c-1.8-0.9-3.5-1.7-5.3-2.5C193.6,154.8,191.6,153.4,189.6,152.1z M204.2,161.4L204.2,161.4c1.8,1.4,3.5,2.8,5.3,4.2
		c-1.6-0.9-3.1-1.7-4.7-2.6c-1.8-1.4-3.6-2.7-5.4-4.1C200.9,159.8,202.5,160.6,204.2,161.4z M208.3,163.4L208.3,163.4
		c1.8,0.9,3.5,1.8,5.3,2.7c1.9,1.6,3.8,3.3,5.7,4.9c-1.7-1-3.4-2-5.2-2.9C212.2,166.6,210.3,165,208.3,163.4z M217.4,168.3
		L217.4,168.3c1.9,1,3.7,2.1,5.6,3.1c2,1.8,4,3.7,6,5.6c-1.8-1.1-3.7-2.3-5.5-3.3C221.6,171.8,219.5,170,217.4,168.3L217.4,168.3z
		 M232.4,180.2L232.4,180.2c1.9,1.8,3.8,3.7,5.7,5.5c-1.7-1.2-3.3-2.3-5-3.4c-1.9-1.8-3.9-3.6-5.8-5.3
		C228.9,178,230.6,179.1,232.4,180.2z M236.4,182.8L236.4,182.8c1.8,1.2,3.6,2.4,5.4,3.6c2,2.1,4,4.2,6,6.3
		c-1.8-1.3-3.5-2.6-5.3-3.9C240.5,186.8,238.4,184.8,236.4,182.8L236.4,182.8z M251.3,196.5L251.3,196.5c1.9,2,3.8,4.1,5.6,6.2
		c-1.6-1.3-3.2-2.6-4.9-3.9c-1.9-2-3.8-4-5.7-6C248,194,249.7,195.2,251.3,196.5L251.3,196.5z M255.6,199.7L255.6,199.7
		c1.8,1.4,3.5,2.7,5.3,4.1c2,2.4,4,4.8,6,7.1c-1.7-1.5-3.5-3-5.2-4.5C259.7,204.3,257.6,202,255.6,199.7L255.6,199.7z M270.5,215.4
		L270.5,215.4c1.9,2.3,3.7,4.7,5.6,7c-1.6-1.5-3.1-3-4.7-4.5c-1.9-2.3-3.8-4.6-5.7-6.8C267.3,212.6,268.9,214,270.5,215.4z
		 M274.8,219.3L274.8,219.3c1.7,1.6,3.5,3.2,5.2,4.8c2,2.7,4,5.4,6,8.2c-1.7-1.8-3.4-3.5-5.1-5.2
		C278.9,224.5,276.9,221.9,274.8,219.3z M289.7,237.5L289.7,237.5c1.9,2.7,3.7,5.4,5.5,8.1c-1.5-1.8-3.1-3.5-4.6-5.2
		c-1.8-2.6-3.7-5.2-5.6-7.8C286.5,234.2,288.1,235.8,289.7,237.5z M294.1,242.1L294.1,242.1c1.7,1.8,3.4,3.7,5,5.5
		c2,3.1,4,6.3,5.9,9.4c-1.6-2-3.3-4-5-6C298.1,248.1,296.1,245.1,294.1,242.1L294.1,242.1z M308.6,263L308.6,263
		c1.9,3.2,3.7,6.4,5.5,9.6c-1.5-2-3-4.1-4.5-6.1c-1.8-3.1-3.7-6.2-5.6-9.2C305.5,259.2,307,261,308.6,263L308.6,263z M312.8,268.4
		L312.8,268.4c1.6,2,3.1,4.1,4.7,6c1.9,3.6,3.8,7.2,5.6,10.8c-1.5-2-2.9-4.1-4.4-6.2C316.8,275.4,314.8,271.9,312.8,268.4
		L312.8,268.4z M325.7,290.5L325.7,290.5c1.7,3.5,3.3,6.9,4.8,10.4c-1.2-1.8-2.3-3.5-3.5-5.3c-1.6-3.5-3.3-6.9-5.1-10.3
		C323.2,287.1,324.5,288.8,325.7,290.5L325.7,290.5z M332.9,306.2L332.9,306.2c1.4,3.2,2.7,6.4,4,9.7c-0.9-1.5-1.8-3.1-2.8-4.6
		c-1.4-3.2-2.8-6.4-4.2-9.6C330.9,303.2,331.9,304.7,332.9,306.2z M335.9,310.7L335.9,310.7c1.1,1.6,2.1,3.2,3.2,4.7
		c1.3,3.4,2.6,6.7,3.8,10.1c-1-1.6-2-3.2-2.9-4.8C338.6,317.4,337.3,314,335.9,310.7z M344.4,329.8L344.4,329.8
		c1,3.1,2.1,6.2,3.1,9.3c-0.9-1.5-1.7-2.9-2.5-4.4c-1-3.1-2.1-6.1-3.2-9.1C342.6,327,343.5,328.4,344.4,329.8z M346.7,333.5
		L346.7,333.5c1,1.6,1.9,3.1,2.9,4.6c1,3.2,2,6.4,2.9,9.6c-0.9-1.6-1.8-3.1-2.7-4.7C348.7,339.8,347.7,336.7,346.7,333.5z
		 M356.5,363.7L356.5,363.7c0.6,2.5,1.1,5.1,1.6,7.6c-0.7-1.5-1.5-2.9-2.2-4.4c-0.6-2.5-1.1-4.9-1.8-7.4
		C355,360.9,355.7,362.3,356.5,363.7z M358.9,374.9L358.9,374.9c0.4,2.1,0.8,4.3,1.2,6.4c-0.7-1.5-1.3-2.9-2-4.4
		c-0.4-2-0.8-4.1-1.2-6.1C357.5,372.2,358.2,373.6,358.9,374.9z M533.1,466L533.1,466c0.7-1.2,1.4-2.5,2.1-3.7c1.9-1,3.9-2,5.8-3.1
		c-0.7,1.2-1.5,2.3-2.2,3.4C536.9,463.8,535,464.9,533.1,466L533.1,466z M542.8,458.3L542.8,458.3c1.8-1,3.6-2,5.4-3
		c-0.7,1-1.4,2-2.2,3c-1.8,1.1-3.5,2.2-5.3,3.2C541.4,460.5,542.1,459.4,542.8,458.3z M543.8,456.8L543.8,456.8
		c0.7-1.2,1.5-2.4,2.2-3.6c1.9-0.9,3.8-1.9,5.7-2.9c-0.8,1.2-1.6,2.3-2.3,3.4C547.5,454.7,545.6,455.7,543.8,456.8L543.8,456.8z
		 M553.5,449.3L553.5,449.3c1.7-0.9,3.4-1.8,5.2-2.8c-0.8,1.1-1.6,2.1-2.4,3.1c-1.7,1-3.3,2-5,2.9
		C552,451.4,552.8,450.4,553.5,449.3z M554.5,447.7L554.5,447.7c0.8-1.2,1.5-2.4,2.3-3.5c1.8-0.9,3.7-1.8,5.6-2.8
		c-0.8,1.2-1.6,2.3-2.5,3.4C558.1,445.8,556.3,446.8,554.5,447.7L554.5,447.7z M564.3,440.4L564.3,440.4c1.6-0.9,3.3-1.7,4.9-2.6
		c-0.9,1.1-1.7,2.2-2.6,3.2c-1.6,0.9-3.1,1.8-4.7,2.6C562.7,442.6,563.5,441.6,564.3,440.4z M565.4,438.9L565.4,438.9
		c0.8-1.1,1.6-2.3,2.4-3.5c1.8-0.9,3.6-1.8,5.4-2.7c-0.9,1.2-1.8,2.3-2.6,3.4C568.8,437,567.1,438,565.4,438.9z M575.2,431.7
		L575.2,431.7c1.6-0.8,3.1-1.6,4.7-2.4c-1,1.1-1.9,2.2-2.8,3.3c-1.5,0.8-2.9,1.6-4.4,2.4C573.5,433.9,574.3,432.8,575.2,431.7
		L575.2,431.7z M576.4,430.1L576.4,430.1c0.9-1.2,1.7-2.3,2.6-3.5c1.7-0.8,3.5-1.7,5.2-2.6c-0.9,1.2-1.9,2.4-2.8,3.5
		C579.7,428.4,578,429.3,576.4,430.1z M586.2,423L586.2,423c1.5-0.7,3-1.5,4.5-2.3c-1,1.2-2,2.3-3,3.4c-0.8,0.5-1.6,0.9-2.4,1.3
		c-0.6,0.3-1.1,0.6-1.7,0.9C584.4,425.3,585.3,424.1,586.2,423z M587.5,421.4L587.5,421.4c0.9-1.2,1.8-2.3,2.7-3.5
		c1.7-0.8,3.4-1.6,5.1-2.5c-1,1.2-2,2.4-3,3.5C590.7,419.7,589.1,420.5,587.5,421.4L587.5,421.4z M597.4,414.3L597.4,414.3
		c1-0.5,2.1-1,3.2-1.6c0.4-0.2,0.8-0.4,1.2-0.6c-1,1.1-2,2.2-3.1,3.3c-1.4,0.8-2.7,1.6-4.1,2.3C595.5,416.6,596.4,415.5,597.4,414.3
		z M600,412L600,412c-0.4,0.2-0.9,0.4-1.3,0.6c0.9-1.2,1.9-2.4,2.9-3.5c1.6-0.8,3.3-1.6,5-2.4c-1,1.2-2.1,2.4-3.1,3.5
		C602.3,410.9,601.2,411.5,600,412L600,412z M602.8,407.5L602.8,407.5c1-1.2,1.9-2.4,2.9-3.7c1.8-0.8,3.6-1.7,5.5-2.5
		c-1,1.2-2.1,2.5-3.1,3.7c-0.2,0.1-0.5,0.2-0.7,0.3C605.8,406.1,604.3,406.8,602.8,407.5L602.8,407.5z M613.2,400.3L613.2,400.3
		c0.7-0.3,1.4-0.7,2-1c1-0.5,1.9-1,2.9-1.4c-1,1.2-2.1,2.3-3.1,3.4c-1.6,0.9-3.1,1.7-4.7,2.5C611.3,402.7,612.3,401.5,613.2,400.3z
		 M614.7,398.6L614.7,398.6c-0.1,0-0.1,0.1-0.2,0.1c1-1.2,2-2.4,3-3.7c1.7-0.8,3.4-1.6,5.1-2.4c0.1-0.1,0.2-0.1,0.3-0.2
		c-1.1,1.2-2.2,2.4-3.2,3.6C618.1,397,616.5,397.8,614.7,398.6L614.7,398.6z M625.2,391.4L625.2,391.4c1.6-0.8,3.3-1.6,4.9-2.4
		c-1,1.1-2.1,2.2-3.2,3.3c-1.6,0.9-3.1,1.7-4.7,2.6C623.1,393.7,624.2,392.6,625.2,391.4L625.2,391.4z M626.6,389.7L626.6,389.7
		c1-1.2,2-2.4,3.1-3.6c0.1-0.1,0.2-0.1,0.3-0.1c1.7-0.8,3.4-1.6,5.1-2.4c-1.1,1.2-2.2,2.4-3.3,3.5
		C630.1,388,628.4,388.9,626.6,389.7z M637.5,382.4L637.5,382.4c1.6-0.8,3.3-1.6,4.9-2.5c-1.1,1.1-2.1,2.2-3.2,3.2
		c-1.6,0.9-3.1,1.8-4.7,2.6C635.4,384.6,636.4,383.5,637.5,382.4z M639.1,380.6L639.1,380.6c1-1.2,2.1-2.4,3.1-3.6
		c1.9-0.9,3.7-1.8,5.5-2.7c-1.1,1.2-2.2,2.3-3.3,3.5C642.6,378.8,640.9,379.7,639.1,380.6z M650.2,373.2L650.2,373.2
		c1.7-0.9,3.3-1.7,5-2.6c-1.1,1.1-2.2,2.1-3.3,3.1c-1.6,0.9-3.2,1.8-4.8,2.7C648.1,375.3,649.1,374.3,650.2,373.2z M651.9,371.3
		L651.9,371.3c1.1-1.2,2.1-2.3,3.2-3.5c1.9-0.9,3.7-1.8,5.6-2.7c-1.1,1.2-2.3,2.3-3.4,3.4C655.5,369.4,653.7,370.3,651.9,371.3z
		 M663.3,363.8L663.3,363.8c1.7-0.9,3.4-1.7,5.1-2.6c-1.1,1-2.2,2.1-3.3,3.1c-1.6,0.9-3.2,1.8-4.9,2.7
		C661.2,365.9,662.2,364.8,663.3,363.8L663.3,363.8z M659.9,362.4L659.9,362.4c2-0.9,4.1-1.9,6.1-2.8c-1.1,1.2-2.3,2.4-3.5,3.6
		c-2,1-3.9,2-5.9,2.9C657.8,364.8,658.9,363.6,659.9,362.4L659.9,362.4z M651.4,366.2L651.4,366.2c0.3-0.1,0.5-0.2,0.8-0.3
		c1.9-0.9,3.8-1.7,5.6-2.5c-1.1,1.3-2.3,2.6-3.4,3.8c-2,1-4.1,2-6.2,2.9C649.2,368.8,650.3,367.5,651.4,366.2L651.4,366.2z
		 M642.8,369.9L642.8,369.9c2.2-0.9,4.4-1.9,6.6-2.8c-1.1,1.3-2.2,2.6-3.3,3.9c-0.6,0.3-1.2,0.6-1.8,0.9c-1.6,0.7-3.1,1.4-4.6,2
		C640.7,372.6,641.7,371.3,642.8,369.9z M634.2,373.4L634.2,373.4c2.2-0.9,4.5-1.8,6.8-2.7c-1,1.4-2.1,2.7-3.2,4
		c-2.3,1-4.5,1.9-6.7,2.8C632.1,376.2,633.1,374.8,634.2,373.4L634.2,373.4z M625.5,376.7L625.5,376.7c2.3-0.8,4.6-1.7,6.9-2.6
		c-1,1.4-2.1,2.8-3.1,4.2c-2.3,0.9-4.6,1.8-6.8,2.7C623.5,379.6,624.5,378.2,625.5,376.7L625.5,376.7z M617,379.7L617,379.7
		c2.3-0.8,4.6-1.6,7-2.4c-1,1.4-2,2.9-3,4.3c-2.4,0.9-4.6,1.7-6.9,2.6C615,382.7,616,381.2,617,379.7L617,379.7z M608.4,382.5
		L608.4,382.5c2.3-0.7,4.6-1.4,7-2.2c-1,1.5-2,3-3,4.5c-2.4,0.8-4.7,1.6-7,2.4C606.5,385.5,607.4,384,608.4,382.5L608.4,382.5z
		 M600,384.8L600,384.8c2.3-0.6,4.6-1.2,7-2c-1,1.6-2,3.1-3,4.7c-2.4,0.8-4.7,1.5-7,2.1C598,388.1,599,386.5,600,384.8z
		 M591.6,386.8L591.6,386.8c2.3-0.5,4.6-1,7-1.6c-1,1.6-2,3.3-3,4.9c-2.4,0.7-4.7,1.3-7,1.8C589.6,390.2,590.6,388.5,591.6,386.8z
		 M583.3,388.4L583.3,388.4c2.3-0.4,4.6-0.8,7-1.3c-1,1.7-2,3.4-3,5.1c-2.4,0.6-4.7,1-7,1.5C581.2,392,582.2,390.2,583.3,388.4
		L583.3,388.4z M575.1,389.6L575.1,389.6c2.3-0.3,4.6-0.6,6.9-0.9c-1,1.8-2,3.5-3,5.3c-2.4,0.4-4.6,0.8-6.9,1.1
		C573,393.3,574,391.4,575.1,389.6L575.1,389.6z M567,390.3L567,390.3c2.2-0.1,4.5-0.3,6.8-0.6c-1,1.9-2,3.7-3.1,5.5
		c-2.3,0.3-4.6,0.5-6.9,0.7C565,394.1,566,392.2,567,390.3L567,390.3z M559.2,390.4L559.2,390.4c0.3,0,0.6,0,1,0
		c1.9,0,3.8-0.1,5.8-0.1c-1,1.9-2.1,3.8-3.1,5.7c-2.3,0.2-4.5,0.3-6.8,0.3C557.1,394.4,558.1,392.5,559.2,390.4L559.2,390.4z
		 M551.4,390.1L551.4,390.1c2.2,0.2,4.4,0.3,6.6,0.3c-1,2-2.1,4-3.1,6c-0.3,0-0.5,0-0.8,0c-2,0-3.9-0.1-5.8-0.2
		C549.3,394.2,550.4,392.1,551.4,390.1z M283.1,194L283.1,194c154.5,104.8,190.4,189.4,267.2,196c-1.1,2.1-2.1,4.1-3.2,6.2
		c-73.9-4.6-111-84.4-259.7-193.5c-5.5-4-10.9-7.8-16.2-11.4c-2.5-3.3-5.1-6.6-7.7-9.8C270,185.3,276.5,189.5,283.1,194L283.1,194z
		 M261.2,179.9L261.2,179.9c2.6,3.2,5.1,6.4,7.6,9.6c-2.3-1.5-4.6-3-6.9-4.5c-2.5-3.1-5-6.2-7.6-9.2
		C256.5,177.1,258.8,178.5,261.2,179.9L261.2,179.9z M251.8,174.4L251.8,174.4c2.5,3,5,6,7.5,9c-2.3-1.4-4.6-2.9-6.9-4.3
		c-2.5-2.9-5-5.8-7.5-8.6C247.2,171.8,249.5,173.1,251.8,174.4z M242.4,169.1L242.4,169.1c2.5,2.8,5,5.6,7.4,8.4
		c-2.3-1.4-4.6-2.7-6.8-4c-2.5-2.7-5-5.4-7.5-8.1C237.8,166.7,240.1,167.9,242.4,169.1L242.4,169.1z M233,164.2L233,164.2
		c2.4,2.6,4.9,5.2,7.3,7.8c-2.3-1.3-4.5-2.5-6.8-3.7c-2.4-2.5-4.9-5-7.3-7.5C228.4,161.9,230.7,163,233,164.2L233,164.2z
		 M223.6,159.6L223.6,159.6c2.4,2.4,4.8,4.8,7.2,7.2c-2.2-1.2-4.5-2.4-6.7-3.5c-2.4-2.3-4.8-4.6-7.2-6.9
		C219.1,157.5,221.4,158.5,223.6,159.6z M214.2,155.3L214.2,155.3c2.4,2.2,4.7,4.4,7.1,6.7c-2.2-1.1-4.4-2.2-6.6-3.2
		c-2.4-2.1-4.7-4.3-7.1-6.3C209.8,153.4,212,154.3,214.2,155.3L214.2,155.3z M204.9,151.3L204.9,151.3c2.3,2,4.6,4.1,6.9,6.1
		c-2.2-1-4.3-2-6.5-2.9c-2.3-2-4.6-3.9-7-5.8C200.5,149.5,202.7,150.4,204.9,151.3L204.9,151.3z M195.6,147.6L195.6,147.6
		c2.3,1.8,4.5,3.7,6.8,5.6c-2.1-0.9-4.3-1.8-6.4-2.7c-2.3-1.8-4.6-3.5-6.8-5.3C191.3,146,193.4,146.8,195.6,147.6L195.6,147.6z
		 M186.3,144.3L186.3,144.3c2.2,1.6,4.4,3.3,6.6,5c-2.1-0.8-4.2-1.6-6.2-2.4c-2.2-1.6-4.5-3.2-6.7-4.8
		C182.1,142.8,184.2,143.5,186.3,144.3L186.3,144.3z M177.1,141.3L177.1,141.3c2.1,1.5,4.3,3,6.4,4.5c-2-0.7-4-1.4-6-2.1
		c-2.2-1.4-4.3-2.8-6.5-4.2C173,140,175,140.6,177.1,141.3L177.1,141.3z M167.9,138.6L167.9,138.6c2.1,1.3,4.1,2.6,6.2,4
		c-2-0.6-3.9-1.2-5.8-1.8c-2.1-1.2-4.2-2.5-6.3-3.7C163.9,137.5,165.9,138,167.9,138.6L167.9,138.6z M158.8,136.2L158.8,136.2
		c2,1.1,3.9,2.3,5.9,3.4c-1.9-0.5-3.7-1.1-5.6-1.6c-2-1.1-4-2.2-6-3.2C155,135.3,156.9,135.7,158.8,136.2L158.8,136.2z M149.8,134.2
		L149.8,134.2c1.8,1,3.7,1.9,5.6,2.9c-1.8-0.5-3.5-0.9-5.3-1.3c-1.9-0.9-3.8-1.8-5.7-2.7C146.2,133.5,148,133.8,149.8,134.2
		L149.8,134.2z M140.9,132.5L140.9,132.5c1.7,0.8,3.5,1.6,5.2,2.4c-1.7-0.4-3.3-0.7-5-1c-1.8-0.7-3.5-1.4-5.3-2.2
		C137.5,131.9,139.2,132.2,140.9,132.5L140.9,132.5z M114.7,129.7L114.7,129.7c-1-0.2-2-0.4-3.1-0.7c1,0.1,1.9,0.1,2.9,0.2
		c1,0.3,2,0.5,2.9,0.8C116.5,129.9,115.6,129.8,114.7,129.7L114.7,129.7z M123.3,131.8L123.3,131.8c-0.3-0.1-0.7-0.2-1-0.3
		c0.3,0,0.5,0.1,0.8,0.1c0.3,0.1,0.6,0.2,0.9,0.3C123.8,131.8,123.6,131.8,123.3,131.8L123.3,131.8z M123.4,130.8L123.4,130.8
		c-1.4-0.4-2.7-0.8-4.1-1.1c1.3,0.1,2.6,0.3,4,0.4c1.3,0.4,2.6,0.9,3.9,1.3C125.9,131.2,124.6,131,123.4,130.8L123.4,130.8z
		 M132.1,133.4L132.1,133.4c-0.9-0.3-1.8-0.6-2.7-0.9c0.9,0.1,1.7,0.3,2.6,0.4c0.9,0.3,1.8,0.6,2.7,0.9
		C133.7,133.7,132.9,133.6,132.1,133.4z M132.2,132.2L132.2,132.2c-1.6-0.6-3.2-1.1-4.8-1.6c1.5,0.2,3.1,0.4,4.6,0.6
		c1.5,0.6,3.1,1.2,4.6,1.8C135.1,132.7,133.7,132.4,132.2,132.2z M140.9,136.3L140.9,136.3c-0.2-0.1-0.4-0.1-0.6-0.2
		c0.1,0,0.2,0.1,0.3,0.1c0.2,0.1,0.3,0.1,0.5,0.2C141,136.3,141,136.3,140.9,136.3L140.9,136.3z M141,135.3L141,135.3
		c-1.3-0.5-2.6-1-3.9-1.4c1.2,0.2,2.4,0.5,3.7,0.7c1.3,0.5,2.5,1,3.8,1.6C143.3,135.9,142.2,135.6,141,135.3z M149.8,138.8
		L149.8,138.8c-0.9-0.3-1.7-0.7-2.6-1c0.8,0.2,1.5,0.4,2.3,0.6c0.8,0.3,1.5,0.7,2.3,1C151.2,139.2,150.5,139,149.8,138.8
		L149.8,138.8z M150,137.6L150,137.6c-1.6-0.7-3.1-1.4-4.7-2c1.5,0.3,2.9,0.7,4.4,1c1.5,0.7,3,1.4,4.5,2.2
		C152.8,138.4,151.4,138,150,137.6z M158.8,141.6L158.8,141.6c-1.2-0.6-2.4-1.1-3.7-1.7c1.1,0.3,2.2,0.7,3.4,1
		c1.2,0.6,2.4,1.2,3.5,1.8C161,142.4,159.9,142,158.8,141.6z M167.9,146L167.9,146c-0.8-0.4-1.5-0.8-2.3-1.1
		c0.6,0.2,1.2,0.5,1.9,0.7c0.7,0.3,1.3,0.7,2,1.1C169,146.4,168.5,146.2,167.9,146z M168,144.8L168,144.8c-1.5-0.8-3-1.6-4.5-2.4
		c1.4,0.4,2.7,0.9,4.1,1.3c1.4,0.8,2.9,1.6,4.4,2.5C170.6,145.8,169.3,145.3,168,144.8L168,144.8z M177,149.8L177,149.8
		c-1.2-0.7-2.3-1.3-3.5-1.9c1,0.4,2,0.8,3,1.2c1.1,0.7,2.2,1.3,3.3,2C179,150.6,178,150.2,177,149.8z M177.1,148.3L177.1,148.3
		c-1.7-1-3.4-2-5.1-3c1.6,0.5,3.1,1.1,4.7,1.7c1.6,1,3.3,2.1,5,3.1C180.1,149.5,178.6,148.9,177.1,148.3L177.1,148.3z M186.3,155.1
		L186.3,155.1c-0.7-0.4-1.3-0.8-1.9-1.1c0.5,0.2,0.9,0.4,1.3,0.6c0.6,0.3,1.1,0.7,1.7,1C187,155.4,186.6,155.2,186.3,155.1
		L186.3,155.1z M186.2,153.8L186.2,153.8c-1.4-0.9-2.9-1.8-4.3-2.7c1.3,0.5,2.6,1.1,3.9,1.6c1.4,0.9,2.8,1.8,4.1,2.7
		C188.7,154.9,187.5,154.4,186.2,153.8L186.2,153.8z M195.5,159.8L195.5,159.8c-1.1-0.7-2.2-1.4-3.3-2.1c0.9,0.4,1.8,0.9,2.7,1.3
		c1,0.7,2,1.4,3,2.1C197.1,160.6,196.3,160.2,195.5,159.8L195.5,159.8z M195.5,158.3L195.5,158.3c-1.7-1.1-3.3-2.3-5-3.4
		c1.5,0.7,2.9,1.3,4.5,2c1.6,1.2,3.3,2.4,4.9,3.5C198.4,159.7,197,159,195.5,158.3L195.5,158.3z M204.8,166L204.8,166
		c-0.5-0.3-1-0.7-1.5-1c0.3,0.2,0.6,0.3,0.9,0.5c0.4,0.3,0.9,0.6,1.3,0.9C205.2,166.3,205,166.2,204.8,166z M204.8,164.8
		L204.8,164.8c-1.4-1-2.8-2-4.2-3c1.2,0.6,2.4,1.2,3.5,1.8c1.3,1,2.7,2,4,3C207,166.1,205.9,165.5,204.8,164.8L204.8,164.8z
		 M214.2,171.8L214.2,171.8c-1-0.8-2-1.5-3-2.3c0.8,0.5,1.6,0.9,2.4,1.4c0.9,0.7,1.8,1.4,2.7,2.1
		C215.5,172.6,214.8,172.2,214.2,171.8L214.2,171.8z M214.2,170.3L214.2,170.3c-1.6-1.3-3.3-2.6-4.9-3.8c1.4,0.8,2.8,1.6,4.3,2.4
		c1.6,1.3,3.1,2.6,4.7,3.9C216.9,171.9,215.6,171.1,214.2,170.3L214.2,170.3z M223.6,179.1L223.6,179.1c-0.4-0.3-0.8-0.6-1.1-0.9
		c0.1,0.1,0.2,0.1,0.3,0.2c0.3,0.3,0.7,0.5,1,0.8C223.8,179.2,223.7,179.2,223.6,179.1z M223.6,177.9L223.6,177.9
		c-1.3-1.1-2.7-2.2-4-3.3c1.1,0.7,2.2,1.4,3.3,2.1c1.3,1.1,2.6,2.2,3.8,3.3C225.7,179.3,224.6,178.6,223.6,177.9L223.6,177.9z
		 M223.7,176.1L223.7,176.1c-1.8-1.5-3.6-3.1-5.4-4.6c1.6,0.9,3.1,1.8,4.7,2.8c1.8,1.6,3.5,3.1,5.2,4.7
		C226.7,178,225.2,177.1,223.7,176.1L223.7,176.1z M233.1,185.9L233.1,185.9c-0.9-0.8-1.8-1.6-2.7-2.4c0.7,0.5,1.4,1,2,1.4
		c0.8,0.7,1.6,1.5,2.4,2.2C234.2,186.8,233.7,186.4,233.1,185.9z M233.1,184.4L233.1,184.4c-1.6-1.4-3.1-2.8-4.6-4.2
		c1.3,0.9,2.7,1.8,4,2.7c1.5,1.4,3,2.8,4.5,4.3C235.6,186.2,234.4,185.3,233.1,184.4L233.1,184.4z M242.7,193.3L242.7,193.3
		c-1.3-1.2-2.6-2.4-3.9-3.6c1,0.7,2,1.5,3,2.2c1.2,1.2,2.4,2.4,3.7,3.6C244.6,194.7,243.6,194,242.7,193.3z M242.6,191.3
		L242.6,191.3c-1.8-1.7-3.5-3.4-5.3-5.1c1.5,1,3.1,2.1,4.6,3.2c1.7,1.7,3.4,3.5,5.1,5.2C245.6,193.6,244.1,192.4,242.6,191.3z
		 M252.1,202.5L252.1,202.5c-0.8-0.8-1.6-1.6-2.4-2.4c0.6,0.5,1.2,0.9,1.7,1.4c0.8,0.8,1.5,1.6,2.3,2.4
		C253.2,203.5,252.7,203,252.1,202.5z M252.2,200.9L252.2,200.9c-1.5-1.6-3.1-3.2-4.6-4.7c1.3,1,2.6,2,3.9,3.1
		c1.5,1.6,3,3.2,4.5,4.8C254.7,203,253.4,202,252.2,200.9z M261.8,211.1L261.8,211.1c-1.2-1.3-2.4-2.6-3.6-3.9c1,0.9,2,1.7,2.9,2.6
		c1.2,1.3,2.3,2.6,3.5,3.9C263.6,212.9,262.7,212,261.8,211.1z M261.8,209.2L261.8,209.2c-1.7-1.9-3.5-3.9-5.2-5.8
		c1.5,1.2,2.9,2.4,4.4,3.7c1.7,2,3.4,4,5.1,6C264.7,211.7,263.3,210.5,261.8,209.2z M271.5,222.1L271.5,222.1
		c-0.8-0.9-1.6-1.8-2.4-2.7c0.5,0.5,1,1,1.5,1.5c0.7,0.9,1.5,1.8,2.2,2.7C272.5,223.1,272,222.6,271.5,222.1z M271.4,220.3
		L271.4,220.3c-1.4-1.7-2.9-3.5-4.4-5.2c1.2,1.1,2.4,2.2,3.7,3.4c1.4,1.8,2.9,3.5,4.3,5.3C273.8,222.6,272.6,221.4,271.4,220.3
		L271.4,220.3z M281.2,232.2L281.2,232.2c-1.2-1.5-2.4-3-3.6-4.5c0.9,0.9,1.8,1.9,2.7,2.8c1.2,1.5,2.3,3,3.5,4.6
		C282.9,234.2,282,233.2,281.2,232.2L281.2,232.2z M281.1,230L281.1,230c-1.7-2.2-3.4-4.3-5.1-6.5c1.4,1.4,2.8,2.7,4.2,4.1
		c1.7,2.2,3.4,4.5,5,6.7C283.9,232.9,282.5,231.4,281.1,230z M290.9,245.1L290.9,245.1c-0.8-1-1.5-2.1-2.3-3.1
		c0.5,0.5,0.9,1.1,1.4,1.6c0.7,1,1.4,2,2.1,3C291.7,246.1,291.3,245.6,290.9,245.1L290.9,245.1z M290.8,243L290.8,243
		c-1.4-2-2.9-4.1-4.4-6.1c1.2,1.2,2.3,2.5,3.5,3.8c1.5,2.1,2.9,4.2,4.4,6.3C293.1,245.7,291.9,244.4,290.8,243z M300.4,257
		L300.4,257c-1.2-1.8-2.4-3.5-3.5-5.3c0.9,1,1.7,2.1,2.6,3.2c1.2,1.8,2.3,3.5,3.4,5.3C302,259.2,301.2,258.1,300.4,257z
		 M300.3,254.5L300.3,254.5c-1.7-2.6-3.4-5.1-5.1-7.7c1.4,1.6,2.7,3.2,4.1,4.8c1.7,2.6,3.4,5.3,5,7.9
		C303,257.8,301.6,256.1,300.3,254.5L300.3,254.5z M309.9,272L309.9,272c-0.7-1.2-1.5-2.5-2.3-3.7c0.4,0.6,0.9,1.2,1.3,1.8
		c0.7,1.2,1.4,2.4,2.2,3.7C310.6,273.1,310.3,272.6,309.9,272z M309.8,269.6L309.8,269.6c-1.4-2.4-2.9-4.8-4.4-7.2
		c1.1,1.5,2.3,3,3.4,4.5c1.5,2.5,2.9,5,4.3,7.5C312,272.8,310.9,271.2,309.8,269.6L309.8,269.6z M319,286L319,286
		c-1.2-2.2-2.3-4.3-3.5-6.4c0.9,1.3,1.7,2.6,2.6,3.8c1.1,2.2,2.3,4.3,3.4,6.5C320.7,288.6,319.9,287.3,319,286L319,286z
		 M321.3,286.5L321.3,286.5c-0.8-1.2-1.5-2.3-2.3-3.5c-1.6-3-3.3-6.1-5-9.1c0.9,1.2,1.8,2.4,2.6,3.7c0.4,0.6,0.9,1.2,1.3,1.8
		c1.7,3.1,3.3,6.3,4.9,9.4C322.3,288,321.8,287.2,321.3,286.5L321.3,286.5z M328.7,305.1L328.7,305.1c-0.3-0.6-0.6-1.1-0.9-1.7
		c-0.8-1.7-1.6-3.4-2.4-5c0.4,0.7,0.9,1.5,1.3,2.2c0.8,1.7,1.6,3.5,2.4,5.2C329,305.5,328.8,305.3,328.7,305.1L328.7,305.1z
		 M327.6,300.2L327.6,300.2c-1.4-2.9-2.8-5.8-4.2-8.6c1,1.5,1.9,2.9,2.9,4.4c1.4,2.9,2.7,5.9,4.1,8.8
		C329.4,303.2,328.5,301.7,327.6,300.2L327.6,300.2z M333.6,316.2L333.6,316.2c0.1,0.1,0.1,0.2,0.1,0.3c0.5,1.2,1,2.4,1.5,3.7
		C334.7,318.8,334.1,317.5,333.6,316.2L333.6,316.2z M334.7,316.1L334.7,316.1c-1.1-2.6-2.2-5.1-3.3-7.7c0.7,1.1,1.3,2.1,1.9,3.2
		c1.1,2.6,2.2,5.2,3.2,7.8C335.9,318.3,335.3,317.2,334.7,316.1L334.7,316.1z M339.1,321.1L339.1,321.1c1.1,2.9,2.2,5.8,3.2,8.7
		c-0.7-1.3-1.5-2.7-2.2-4c-1.1-2.9-2.2-5.8-3.3-8.6C337.5,318.5,338.3,319.8,339.1,321.1z M340.3,330.3L340.3,330.3
		c-0.8-2.2-1.6-4.3-2.4-6.4c0.4,0.8,0.9,1.5,1.2,2.3c0.8,2.2,1.6,4.3,2.4,6.5C341.1,331.9,340.7,331.1,340.3,330.3z M344.5,342.4
		L344.5,342.4c-0.5-1.6-1-3.1-1.6-4.6c0.3,0.5,0.5,1,0.8,1.5c0.5,1.6,1,3.1,1.5,4.7C345,343.4,344.8,342.9,344.5,342.4L344.5,342.4z
		 M344.7,339.1L344.7,339.1c-0.8-2.5-1.7-5-2.6-7.5c0.6,1.1,1.3,2.2,1.9,3.3c0.9,2.5,1.6,5,2.4,7.6
		C345.9,341.4,345.3,340.2,344.7,339.1z M348.8,343.3L348.8,343.3c0.8,2.7,1.6,5.5,2.4,8.2c-0.7-1.3-1.4-2.7-2.2-4.1
		c-0.8-2.7-1.6-5.4-2.5-8.1C347.3,340.6,348,341.9,348.8,343.3z M347.6,352.4L347.6,352.4c-0.1-0.2-0.1-0.4-0.2-0.7
		c-0.2-0.6-0.3-1.1-0.5-1.7c0.1,0.3,0.3,0.6,0.4,0.9c0.2,0.8,0.5,1.6,0.7,2.3C347.9,352.9,347.8,352.6,347.6,352.4L347.6,352.4z
		 M348.3,350.7L348.3,350.7c-0.6-2-1.2-3.9-1.8-5.9c0.5,1,1,1.9,1.5,2.8c0.6,2,1.2,4.1,1.8,6.2C349.3,352.8,348.8,351.8,348.3,350.7
		z M351.1,360.7L351.1,360.7c-0.4-1.4-0.7-2.7-1.1-4.1c0.4,0.9,0.8,1.7,1.2,2.5c0.4,1.5,0.7,2.9,1.1,4.4
		C351.9,362.6,351.5,361.6,351.1,360.7z M353.4,369.5L353.4,369.5c-0.2-0.7-0.4-1.4-0.6-2.2c0.3,0.6,0.5,1.2,0.8,1.7
		c0.1,0.5,0.2,1,0.3,1.5c0.1,0.3,0.1,0.5,0.2,0.7C353.9,370.7,353.7,370.1,353.4,369.5z M354.6,368.8L354.6,368.8
		c-0.4-1.8-0.8-3.5-1.2-5.2c0.6,1.2,1.1,2.3,1.7,3.4c0.4,1.9,0.8,3.8,1.2,5.6C355.7,371.4,355.2,370.1,354.6,368.8L354.6,368.8z
		 M356.6,377.8L356.6,377.8c-0.3-1.3-0.6-2.6-0.9-3.9c0.5,1.1,0.9,2.1,1.4,3.2c0.2,0.9,0.3,1.8,0.5,2.7c0.1,0.4,0.2,0.9,0.2,1.3
		C357.4,380,357,378.9,356.6,377.8L356.6,377.8z M358.6,386.6L358.6,386.6c-0.2-0.7-0.3-1.5-0.5-2.2c0.2,0.6,0.5,1.2,0.7,1.8
		c0.1,0.7,0.3,1.4,0.4,2.2C359.1,387.7,358.9,387.1,358.6,386.6L358.6,386.6z M358.9,381.1L358.9,381.1c0.6,1.4,1.2,2.7,1.8,4
		c0.2,1.4,0.4,2.7,0.6,4.1c0.1,0.3,0.1,0.7,0.2,1c-0.6-1.4-1.1-2.8-1.7-4.2C359.5,384.3,359.3,382.7,358.9,381.1L358.9,381.1z
		 M361.6,394.8L361.6,394.8c-0.3-1.3-0.5-2.6-0.8-3.9c0.5,1.1,0.9,2.2,1.4,3.3c0.2,1.3,0.4,2.6,0.6,3.9
		C362.4,397.1,362,396,361.6,394.8L361.6,394.8z M363.3,403.6L363.3,403.6c-0.1-0.7-0.3-1.4-0.5-2.2c0.2,0.6,0.5,1.2,0.7,1.8
		c0.1,0.7,0.2,1.5,0.4,2.2C363.7,404.8,363.5,404.2,363.3,403.6z M538,465.9L538,465.9c0.6-0.9,1.2-1.8,1.8-2.7c1.6-1,3.3-2,4.9-3
		c-0.7,0.9-1.3,1.7-2,2.5C541.1,463.8,539.5,464.9,538,465.9L538,465.9z M542.6,464.5L542.6,464.5c0.3-0.4,0.6-0.8,0.9-1.2
		c0.6-0.4,1.1-0.8,1.7-1.2C544.3,463,543.4,463.8,542.6,464.5z M548.5,458.8L548.5,458.8c0,0-0.1,0.1-0.1,0.1
		c-1,0.7-2.1,1.4-3.2,2.1c0.5-0.7,1.1-1.4,1.6-2.2c1.2-0.8,2.5-1.6,3.8-2.4C549.9,457.3,549.2,458.1,548.5,458.8L548.5,458.8z
		 M552.4,455.9L552.4,455.9c0.3-0.4,0.6-0.7,0.9-1.1c0.4-0.2,0.8-0.5,1.1-0.7C553.8,454.7,553.1,455.3,552.4,455.9L552.4,455.9z
		 M552.6,454.2L552.6,454.2c-1.4,0.9-2.9,1.8-4.4,2.7c0.7-0.9,1.3-1.8,2-2.8c1.5-0.9,3.1-1.8,4.6-2.7
		C554.1,452.4,553.4,453.3,552.6,454.2L552.6,454.2z M558.1,450.7L558.1,450.7c-0.8,0.5-1.5,1-2.2,1.5c-0.2,0.1-0.4,0.3-0.6,0.4
		c0.7-0.8,1.3-1.6,2-2.5c1.1-0.7,2.2-1.3,3.3-2C559.6,449.1,558.8,449.9,558.1,450.7L558.1,450.7z M562.8,447.1L562.8,447.1
		c0.2-0.2,0.3-0.4,0.5-0.5c0.2-0.1,0.3-0.2,0.5-0.3C563.4,446.5,563.1,446.8,562.8,447.1L562.8,447.1z M562.6,445.9L562.6,445.9
		c-1.3,0.8-2.6,1.6-3.9,2.4c0.7-0.9,1.4-1.9,2.2-2.9c1.4-0.8,2.9-1.6,4.3-2.4C564.3,444,563.4,445,562.6,445.9L562.6,445.9z
		 M567.9,442.4L567.9,442.4c-0.9,0.6-1.8,1.2-2.6,1.8c0.7-0.9,1.4-1.7,2.2-2.6c1-0.5,1.9-1.1,2.9-1.6
		C569.6,440.8,568.7,441.6,567.9,442.4L567.9,442.4z M572.6,437.6L572.6,437.6c-0.7,0.4-1.4,0.8-2,1.2c-0.5,0.3-1,0.6-1.5,0.9
		c0.8-1,1.6-2,2.4-3c1.3-0.7,2.7-1.4,4-2.2C574.5,435.5,573.6,436.6,572.6,437.6L572.6,437.6z M578.2,433.9L578.2,433.9
		c-0.8,0.6-1.6,1.1-2.4,1.7c0.7-0.8,1.4-1.6,2.1-2.4c0.2-0.1,0.4-0.2,0.7-0.4c0.6-0.3,1.2-0.7,1.8-1
		C579.6,432.5,578.9,433.2,578.2,433.9L578.2,433.9z M583.1,429.1L583.1,429.1c-1.2,0.7-2.3,1.4-3.5,2.1c0.9-1,1.7-2,2.6-3.1
		c1.2-0.7,2.4-1.3,3.7-2C585,427.1,584,428.1,583.1,429.1L583.1,429.1z M588.8,425.2L588.8,425.2c-0.7,0.5-1.4,1-2.2,1.5
		c0.6-0.7,1.2-1.3,1.9-2c0.7-0.4,1.5-0.9,2.2-1.3C590.1,424,589.4,424.6,588.8,425.2z M593.8,420.4L593.8,420.4
		c-1.1,0.7-2.2,1.4-3.3,2.1c0.9-1,1.7-2,2.6-3c0.1,0,0.1-0.1,0.2-0.1c1.1-0.6,2.2-1.2,3.3-1.8C595.7,418.6,594.8,419.5,593.8,420.4
		L593.8,420.4z M599.8,416.3L599.8,416.3c-0.7,0.5-1.3,0.9-1.9,1.4c0.5-0.6,1.1-1.1,1.6-1.7c0.7-0.4,1.3-0.8,2-1.2
		C600.9,415.3,600.3,415.8,599.8,416.3L599.8,416.3z M605,411.5L605,411.5c-1.1,0.7-2.2,1.4-3.3,2.1c0.9-0.9,1.7-1.8,2.6-2.8
		c1.1-0.6,2.3-1.2,3.4-1.9C606.8,409.8,605.9,410.7,605,411.5z M611.1,407.3L611.1,407.3c-0.6,0.4-1.1,0.8-1.7,1.2
		c0.5-0.5,0.9-0.9,1.4-1.4c0.6-0.4,1.2-0.7,1.8-1.1C612.1,406.4,611.6,406.9,611.1,407.3z M610.1,406.5L610.1,406.5
		c-1.4,0.8-2.7,1.6-4.1,2.4c0.9-1.1,1.9-2.2,2.8-3.3c1.4-0.7,2.8-1.4,4.2-2.2C612.1,404.5,611.1,405.5,610.1,406.5z M616.6,402.4
		L616.6,402.4c-1.1,0.7-2.2,1.4-3.2,2.1c0.8-0.9,1.6-1.7,2.4-2.6c1.1-0.6,2.2-1.2,3.3-1.8C618.3,400.8,617.4,401.6,616.6,402.4
		L616.6,402.4z M622.9,398.1L622.9,398.1c-0.5,0.3-1,0.7-1.4,1c0.4-0.4,0.7-0.7,1.1-1.1c0.5-0.3,1-0.6,1.5-0.9
		C623.7,397.5,623.3,397.8,622.9,398.1z M621.9,397.4L621.9,397.4c-1.4,0.8-2.7,1.6-4.1,2.4c0.9-1,1.9-2.1,2.8-3.1
		c1.4-0.7,2.8-1.5,4.3-2.3C623.8,395.4,622.9,396.4,621.9,397.4L621.9,397.4z M628.5,393.2L628.5,393.2c-1,0.7-2.1,1.3-3.1,2
		c0.8-0.8,1.5-1.6,2.3-2.3c1-0.6,2.1-1.2,3.2-1.8C630.1,391.8,629.3,392.5,628.5,393.2L628.5,393.2z M635,388.8L635,388.8
		c-0.4,0.3-0.8,0.6-1.2,0.9c0.3-0.3,0.6-0.6,0.9-0.9c0.4-0.2,0.8-0.5,1.2-0.7C635.6,388.4,635.3,388.6,635,388.8L635,388.8z
		 M634,388.2L634,388.2c-1.4,0.8-2.7,1.6-4.1,2.4c0.9-1,1.9-2,2.8-3c1.4-0.7,2.8-1.5,4.2-2.3C636,386.3,635,387.2,634,388.2
		L634,388.2z M640.8,384L640.8,384c-1,0.6-2,1.2-2.9,1.9c0.7-0.7,1.5-1.4,2.2-2.2c1-0.6,2.1-1.2,3.1-1.8
		C642.3,382.6,641.5,383.3,640.8,384L640.8,384z M647.5,379.4L647.5,379.4c-0.4,0.3-0.8,0.5-1.1,0.8c0.3-0.3,0.6-0.5,0.8-0.7
		c0.3-0.2,0.7-0.4,1-0.6C648,379,647.8,379.2,647.5,379.4z M646.5,378.9L646.5,378.9c-1.4,0.8-2.7,1.6-4.1,2.4
		c0.9-0.9,1.9-1.9,2.8-2.9c1.4-0.7,2.8-1.5,4.2-2.2C648.5,377.1,647.5,378,646.5,378.9z M653.5,374.5L653.5,374.5
		c-1,0.6-2,1.3-3,1.9c0.7-0.7,1.4-1.4,2.2-2.1c1-0.6,2.1-1.2,3.1-1.8C655.1,373.2,654.3,373.8,653.5,374.5L653.5,374.5z
		 M660.4,369.9L660.4,369.9c-0.3,0.2-0.7,0.4-1,0.7c0.2-0.2,0.4-0.3,0.6-0.5c0.3-0.2,0.6-0.4,0.9-0.5
		C660.8,369.7,660.6,369.8,660.4,369.9z M659.4,369.4L659.4,369.4c-1.3,0.8-2.7,1.6-4.1,2.4c0.9-0.9,1.8-1.8,2.8-2.7
		c1.4-0.7,2.8-1.5,4.2-2.3C661.4,367.7,660.4,368.6,659.4,369.4L659.4,369.4z M666.6,365L666.6,365c-1,0.6-2,1.3-3,1.9
		c0.7-0.7,1.5-1.3,2.2-2c1-0.6,2-1.1,3-1.7C668.1,363.7,667.4,364.4,666.6,365L666.6,365z M673.7,360.4L673.7,360.4
		c-0.2,0.2-0.5,0.3-0.7,0.5c0.1-0.1,0.3-0.2,0.4-0.3c0.3-0.1,0.5-0.3,0.7-0.4C673.9,360.2,673.8,360.3,673.7,360.4L673.7,360.4z
		 M672.6,359.9L672.6,359.9c-1.3,0.8-2.7,1.6-4.1,2.4c0.9-0.9,1.9-1.8,2.8-2.7c1.4-0.8,2.9-1.5,4.3-2.3
		C674.6,358.2,673.6,359,672.6,359.9L672.6,359.9z M680.2,355.3L680.2,355.3c-1,0.6-2,1.2-3,1.9c0.7-0.6,1.4-1.3,2.2-1.9
		c1-0.5,2-1.1,2.9-1.6C681.6,354.2,680.9,354.8,680.2,355.3L680.2,355.3z M687.5,350.7L687.5,350.7c-0.2,0.1-0.4,0.3-0.6,0.4
		c0.1-0.1,0.2-0.1,0.3-0.2c0.2-0.1,0.4-0.2,0.6-0.3C687.6,350.6,687.5,350.6,687.5,350.7L687.5,350.7z M686.4,350.2L686.4,350.2
		c-1.4,0.8-2.8,1.6-4.2,2.4c1-0.9,1.9-1.8,2.9-2.6c1.5-0.8,2.9-1.5,4.4-2.3C688.5,348.5,687.5,349.4,686.4,350.2L686.4,350.2z
		 M694.2,345.6L694.2,345.6c-1,0.6-2,1.2-3,1.8c0.7-0.6,1.4-1.2,2.1-1.8c1-0.5,2-1.1,3-1.6C695.6,344.5,694.9,345,694.2,345.6
		L694.2,345.6z M701.7,340.9L701.7,340.9c-0.2,0.1-0.4,0.3-0.6,0.4c0.1-0.1,0.1-0.1,0.2-0.2C701.5,341,701.6,341,701.7,340.9
		C701.7,340.9,701.7,340.9,701.7,340.9z"/>
</g>
</svg>
