<?xml version="1.0" encoding="utf-8"?>
<!-- Generator: Adobe Illustrator 22.0.1, SVG Export Plug-In . SVG Version: 6.00 Build 0)  -->
<svg version="1.1" id="Слой_2" xmlns="http://www.w3.org/2000/svg" xmlns:xlink="http://www.w3.org/1999/xlink" x="0px" y="0px"
	 viewBox="0 0 595.3 607.4" style="enable-background:new 0 0 595.3 607.4;" xml:space="preserve">
<style type="text/css">
	.st0{fill:none;stroke:#010100;stroke-width:2;stroke-miterlimit:10;}
	.st1{fill:none;stroke:#000000;stroke-width:2;stroke-miterlimit:10;}
	.st2{stroke:#000000;stroke-miterlimit:10;}
</style>
<rect x="156.9" y="216.1" transform="matrix(0.3891 -0.9212 0.9212 0.3891 -118.8785 488.9872)" class="st0" width="304.7" height="236"/>
<rect x="321.2" y="154" transform="matrix(0.3891 -0.9212 0.9212 0.3891 -8.5075 467.8582)" class="st1" width="54.7" height="172.7"/>
<rect x="247.2" y="249.9" transform="matrix(0.3891 -0.9212 0.9212 0.3891 -90.1279 414.5996)" class="st1" width="40.7" height="50.7"/>
<rect x="227.8" y="296" transform="matrix(0.3891 -0.9212 0.9212 0.3891 -144.4422 424.8128)" class="st1" width="40.7" height="50.7"/>
<rect x="208.3" y="342" transform="matrix(0.3891 -0.9212 0.9212 0.3891 -198.7565 435.0261)" class="st1" width="40.7" height="50.7"/>
<rect x="188.8" y="388.1" transform="matrix(0.3891 -0.9212 0.9212 0.3891 -253.0708 445.2393)" class="st1" width="40.7" height="50.7"/>
<rect x="303.4" y="273.7" transform="matrix(0.3891 -0.9212 0.9212 0.3891 -77.6678 480.863)" class="st1" width="40.7" height="50.7"/>
<rect x="283.9" y="319.7" transform="matrix(0.3891 -0.9212 0.9212 0.3891 -131.9821 491.0763)" class="st1" width="40.7" height="50.7"/>
<rect x="264.5" y="365.8" transform="matrix(0.3891 -0.9212 0.9212 0.3891 -186.2964 501.2895)" class="st1" width="40.7" height="50.7"/>
<rect x="245" y="411.8" transform="matrix(0.3891 -0.9212 0.9212 0.3891 -240.6107 511.5027)" class="st1" width="40.7" height="50.7"/>
<rect x="359.6" y="297.4" transform="matrix(0.3891 -0.9212 0.9212 0.3891 -65.2076 547.1265)" class="st1" width="40.7" height="50.7"/>
<rect x="340.1" y="343.5" transform="matrix(0.3891 -0.9212 0.9212 0.3891 -119.5219 557.3397)" class="st1" width="40.7" height="50.7"/>
<rect x="320.7" y="389.5" transform="matrix(0.3891 -0.9212 0.9212 0.3891 -173.8362 567.553)" class="st1" width="40.7" height="50.7"/>
<rect x="301.2" y="435.6" transform="matrix(0.3891 -0.9212 0.9212 0.3891 -228.1505 577.7662)" class="st1" width="40.7" height="50.7"/>
<line class="st1" x1="441.4" y1="370.8" x2="465" y2="371.4"/>
<line class="st1" x1="488.1" y1="371.7" x2="529.7" y2="372.6"/>
<circle class="st1" cx="548.3" cy="376.5" r="8"/>
<circle class="st1" cx="388" cy="112.2" r="9.6"/>
<line class="st1" x1="396" y1="478.2" x2="423.5" y2="478.3"/>
<line class="st1" x1="439.3" y1="478.5" x2="476.1" y2="478.8"/>
<line class="st1" x1="484.8" y1="478.8" x2="502.1" y2="478.9"/>
<circle class="st1" cx="95.3" cy="438.8" r="8"/>
<circle class="st1" cx="54.7" cy="346.9" r="6.8"/>
<circle class="st2" cx="118.6" cy="164" r="5.5"/>
<line class="st1" x1="74.4" y1="369.2" x2="120.2" y2="370.4"/>
<line class="st1" x1="142.4" y1="371.1" x2="157.3" y2="371.6"/>
<line class="st1" x1="454.4" y1="157" x2="454" y2="179.6"/>
<line class="st1" x1="442.7" y1="168" x2="465.4" y2="168.7"/>
<path class="st1" d="M484.6,238.4c0,0,20.7-1.6,22.3-22.6"/>
<path class="st1" d="M527.3,239.8c0,0-20.8,1.4-22.5,22.4"/>
<path class="st1" d="M507.8,215.5c0,0-0.6,20.8,20.2,24.5"/>
<path class="st1" d="M504.5,264.3c0,0,1.7-20.7-18.9-25.5"/>
<path class="st1" d="M57.8,257.9l53,1.4c0,0,13.2,1.2,13.3,9.6s-2.9,12.6-12.7,12.9c-9.8,0.3-14.5,0.8-14.5,0.8s-10.6,1.4-9.1,12.6
	c1.5,11.2,8.5,12.7,13.4,13c4.9,0.3,73.9,1.7,73.9,1.7"/>
</svg>
