<?xml version="1.0" encoding="utf-8"?>
<!-- Generator: Adobe Illustrator 22.0.1, SVG Export Plug-In . SVG Version: 6.00 Build 0)  -->
<svg version="1.1" id="图层_1" xmlns="http://www.w3.org/2000/svg" xmlns:xlink="http://www.w3.org/1999/xlink" x="0px" y="0px"
	 viewBox="0 0 595.3 607.4" style="enable-background:new 0 0 595.3 607.4;" xml:space="preserve">
<style type="text/css">
	.st0{fill:none;stroke:#010100;stroke-miterlimit:10;}
</style>
<path class="st0" d="M428.2,130.9H167.1c-11.6,0-22.2,4.8-29.8,12.4c-7.7,7.7-12.4,18.2-12.4,29.8v261.1c0,11.6,4.8,22.2,12.4,29.8
	c7.7,7.7,18.2,12.4,29.8,12.4h261.1c11.6,0,22.2-4.8,29.8-12.4c7.7-7.7,12.4-18.2,12.4-29.8V173.1c0-11.6-4.8-22.2-12.4-29.8
	C450.4,135.6,439.8,130.9,428.2,130.9L428.2,130.9z M167.1,119.4h261.1c14.8,0,28.2,6,38,15.8c9.7,9.7,15.8,23.2,15.8,38v261.1
	c0,14.8-6,28.2-15.8,38c-9.7,9.7-23.2,15.8-38,15.8H167.1c-14.8,0-28.2-6-38-15.8c-9.7-9.7-15.8-23.2-15.8-38V173.1
	c0-14.8,6-28.2,15.8-38C138.8,125.4,152.3,119.4,167.1,119.4z"/>
<rect x="124.8" y="298.1" class="st0" width="345.6" height="11.1"/>
<rect x="292.1" y="130.9" class="st0" width="11.1" height="345.6"/>
<path class="st0" d="M353.7,367.9c-2.2-2.2-2.2-5.9,0-8.1c2.2-2.2,5.9-2.2,8.1,0l58.5,58.5c2.2,2.2,2.2,5.9,0,8.1
	c-2.2,2.2-5.9,2.2-8.1,0L353.7,367.9z"/>
<path class="st0" d="M361.8,426.4c-2.2,2.2-5.9,2.2-8.1,0c-2.2-2.2-2.2-5.9,0-8.1l58.5-58.5c2.2-2.2,5.9-2.2,8.1,0
	c2.2,2.2,2.2,5.9,0,8.1L361.8,426.4z"/>
<path class="st0" d="M166.8,220c-3.2,0-5.8-2.6-5.8-5.8s2.6-5.8,5.8-5.8h82.8c3.2,0,5.8,2.6,5.8,5.8s-2.6,5.8-5.8,5.8H166.8z"/>
<path class="st0" d="M345.6,220c-3.2,0-5.8-2.6-5.8-5.8s2.6-5.8,5.8-5.8h35.6v-35.6c0-3.2,2.6-5.8,5.8-5.8s5.8,2.6,5.8,5.8v35.6
	h35.6c3.2,0,5.8,2.6,5.8,5.8s-2.6,5.8-5.8,5.8h-35.6v35.6c0,3.2-2.6,5.8-5.8,5.8s-5.8-2.6-5.8-5.8V220H345.6z"/>
<path class="st0" d="M166.8,382.6c-3.2,0-5.8-2.6-5.8-5.8s2.6-5.8,5.8-5.8h82.8c3.2,0,5.8,2.6,5.8,5.8s-2.6,5.8-5.8,5.8H166.8z"/>
<path class="st0" d="M166.8,415c-3.2,0-5.8-2.6-5.8-5.8c0-3.2,2.6-5.8,5.8-5.8h82.8c3.2,0,5.8,2.6,5.8,5.8c0,3.2-2.6,5.8-5.8,5.8
	H166.8z"/>
</svg>
