<?xml version="1.0" encoding="utf-8"?>
<!-- Generator: Adobe Illustrator 22.0.1, SVG Export Plug-In . SVG Version: 6.00 Build 0)  -->
<svg version="1.1" id="图层_1" xmlns="http://www.w3.org/2000/svg" xmlns:xlink="http://www.w3.org/1999/xlink" x="0px" y="0px"
	 viewBox="0 0 595.3 607.4" style="enable-background:new 0 0 595.3 607.4;" xml:space="preserve">
<style type="text/css">
	.st0{fill:none;stroke:#333333;stroke-miterlimit:10;}
</style>
<g>
	<g>
		<path class="st0" d="M486.2,344.2c-49.4-0.1-101.4,7.1-124.4,34c-23.2-2.8-48.3-4.3-68.4,3.5c-17.6,6.8-26,17.3-49.9,19
			c14.5-58.4,2-133.9,6-201.8c15.4-2.3,28.1-6,37.5-15.5c2.5,0.8,5,1.7,7.5,2.5c16-7.6,31.5-32.8,36.5-49.9
			c13.8-1.8,36.3-7.8,37-22.5c0.6-13.4-15.9-11.6-26.5-10c-6.9-9.5-20.6-12.6-32-17.5c-8.9-3.8-16.9-9.4-28-11
			c-19.4-2.8-45.9,34-55.4,44.9c-12.8,16.5-25.6,33-38.5,49.4c-3.8,17.6-7.7,35.3-11.5,52.9c-13.7,48.2-27.4,89.7-35.5,146.8
			c-0.5,20-1,40-1.5,59.9c-1.8,13.4-6.9,32.6-1.5,45.9c3.5,4.7,7,9.3,10.5,14c20.4,26.7,37,8.6,72.4,16c31.4,6.6,70,17.7,110.4,12
			c41.9-5.9,80.5-31.4,128.9-17c10.2,3,17.8,8.9,26.5,13v-5.5c-60-34.2-93.5-3.3-152.3,5.5c-43,6.5-82-6.3-115.4-12
			c-45.3-7.7-51.7,13.5-75.9-24c-7.6-11.7,2.7-125.1,6.5-143.8c8.4-41.3,20.8-74.2,31-112.4c4.2-16,4.5-39.7,12.5-52.9
			c13.5-16.5,27-33,40.5-49.4c9.5-11.4,24.9-36.1,41-39.5c14.6-3.1,52.6,17,62.9,23.5c3.2,9.9-3,14.7-8,20.5
			c-8.7-0.2-29.3-30.3-43-29c13.7,8.9,52.7,30.3,36,51.4l-0.5,0.5c-7.3-11-37.1-46.7-54.9-40c4.5,0.7,9,1.3,13.5,2
			c12.3,12,24.6,24,37,36c2.1,3.3,1.4,7.3,0,10.5l-0.5,0.5c-17.6-7.3-26.2-24.7-42.5-33c8.3,15,25.1,26.9,39.5,36
			c-1.1,13.1-12.3,16.4-19,24c-0.8-0.2-1.7-0.3-2.5-0.5c-0.3-0.3-0.7-0.7-1-1c0-7.5,2.3-10.1,5-14.5h8.5v-0.5
			c-15.3-1.4-26.8-12.6-37-20c1.7,4.1,4,6.7,7.5,9c-1.6,19.7-29.2,41.5-54.4,39c6.3,3.7,17.3,3.9,25.5,4.5
			c-4.3,71.7,9.1,146.5-7.5,206.8c6.5-0.7,13-1.3,19.5-2c-5.2,8.1-14.3,12-18.5,21.5c9.9-8.5,18.1-18.3,29.5-25.5
			c41.9-26.2,97.7-18.4,138.8,2c-7-12.7-28.4-15.2-42-21.5c28.3-21.7,69.8-32.2,120.4-31.5V344.2z M342.3,107c2.8-0.5,5.7-1,8.5-1.5
			c5.5,0,8.7,1,12,3c4.8,15.8-18.2,22.4-31.5,23.5c-0.5-1.5-1-3-1.5-4.5C334.4,120.1,339.3,117.1,342.3,107z M278.4,158
			c4,2,8,4,12,6c-4.6,14.8-19.4,36.9-41.5,30h-1.5C260.8,184.7,272.7,174.6,278.4,158z M194,282.3c-2.6,24.9-12.7,67.3,1.5,88.9
			c-2.6-13.8-5.7-33.1-3.5-50.9C192.7,307.6,193.3,295,194,282.3z M424.2,412.2c22.2,15.8,46.2,28.4,61.4,50.9
			C489.6,449.3,438,414.9,424.2,412.2z"/>
	</g>
</g>
</svg>
