<?xml version="1.0" encoding="utf-8"?>
<!-- Generator: Adobe Illustrator 22.0.1, SVG Export Plug-In . SVG Version: 6.00 Build 0)  -->
<svg version="1.1" id="图层_1" xmlns="http://www.w3.org/2000/svg" xmlns:xlink="http://www.w3.org/1999/xlink" x="0px" y="0px"
	 viewBox="0 0 4868 2500" style="enable-background:new 0 0 4868 2500;" xml:space="preserve">
<style type="text/css">
	.st0{fill:#660000;stroke:#65140E;stroke-width:4;stroke-miterlimit:10;}
</style>
<g>
	<path class="st0" d="M5440.3,554.1c-16.9,1-34.1,1.7-51.9,2.3c-242.2,8.3-373.2-37.7-450.3-103.9
		c-63.1-54.6-89.7-122.8-109.9-185.8c-20.4-63.1-34.5-121-73.8-154.8c-23.6-20.3-56.4-32-104.7-30.3c-48.3,1.5-111.6,15.8-197.3,47
		c-58.8,21.4-128.1,50.8-209.6,89.5c-151.8,71.7-260,200.7-330.6,312.3c-70.6,111.5-103.7,205.7-104.6,207.6
		c-146.7,313.8,56.3,816.9-499.2,1019.2c-40.2,14.7-84.4,27.8-133,39c-351,81.7-628.7,163.8-849.7,244.4
		c-550,200.4-748.8,391.9-851.4,548.4c-52.3,79.6-79.5,150-115.5,207.9c1.1,0,2.1,0,3.2,0.2c36-58,63-128.2,115.3-207.3
		c102.4-156.3,301-347.4,850.2-547.6c220.8-80.5,498.6-162.5,849.3-244.1c48.7-11.3,93.2-24.5,133.4-39.3
		c557.1-203.2,353.4-707,500.4-1020.1c1-2.2,34-96,104.6-207.5c70.4-111.4,178.7-240.1,329.8-311.6c81.7-38.7,150.8-67.9,209.5-89.3
		c85.4-31.1,148.6-45.3,195.8-46.7c47.4-1.4,78.7,9.7,101.9,29.5c38.6,33.3,52.8,91,73.1,154.2c20.3,63.2,46.6,131.7,110.3,186.7
		c77.4,66.9,210.4,113.2,453.3,104.9c17.1-0.5,34-1.4,50.4-2.2C5439.5,555.3,5439.9,554.6,5440.3,554.1z"/>
	<path class="st0" d="M5460.8,502c-33.2,3.1-67.7,5.5-104.2,7.3c-229.9,11.2-360.5-29.3-443.4-89.2c-7.6-5.4-14.4-11.1-21.1-16.7
		c-56.3-48.3-84.6-106.6-107.9-160.7c-23.3-54.1-41.7-103.9-78.3-135.5c-25.7-22.2-60.8-35.4-112.7-34.3
		c-51.7,1.1-120,16.2-212.9,50.1c-53.1,19.4-114.5,44.9-185.3,77.5c-148.2,68.2-256.5,190.3-329.5,298c-36.3,53.8-64.2,104-83.3,142
		c-19.2,37.9-30.5,63.8-33.6,68.6c-16.9,25-23.4,53.3-32.2,81.5c-102.4,322.6,37.9,759.9-480.7,948.9c-24.1,8.9-49.6,17.1-76.7,24.7
		c-234.1,66.6-434.7,131.3-606.8,194.1c-605.7,220.8-863.4,416.9-1011.5,572.9c-102.8,108.4-152.7,197.4-229.4,262
		c0.2,0,0.3,0.1,0.6,0c1,0.1,1.8,0.3,2.8,0.4c76.7-64.8,126.4-153.5,228.8-261.4c147.9-155.9,405.2-351.7,1010.5-572.2
		c172.1-62.7,372.7-127.5,606.5-194c27.2-7.7,52.9-16,76.8-24.8c520.4-189.8,379.4-627.8,481.9-949.9c8.9-28.3,15.3-56.5,32.1-81.3
		c3.5-5.2,14.4-30.7,33.8-68.6c58.1-113.7,190.8-337.4,411.9-439.2c70.8-32.5,132-58.1,185.1-77.3c92.9-33.8,160.7-48.7,211.6-49.8
		c50.9-1,84.4,11.7,109.9,33.5c36.1,31.1,54.5,80.7,77.8,134.9s51.8,112.6,108.4,161.3c6.6,5.8,13.8,11.4,21.3,16.9
		c83.5,60.4,215.7,101.1,446.2,89.9c35.9-1.8,70.4-4.2,103.1-7.3C5460.3,503.3,5460.6,502.6,5460.8,502z"/>
	<path class="st0" d="M5477.8,446.9c-46.9,6.6-97.6,11.8-152.8,15.4c-219.7,14.2-349.8-21.6-438.4-76c-17-10.4-32-21.6-45.6-33.2
		c-96.7-83.1-115.1-191.8-181.7-249.1c-28.4-24.5-65.9-39.6-121.7-39.2c-55.7,0.5-129.3,16.3-230.8,53.2
		c-46.8,17-99.8,38.7-159.4,65.4c-144.5,64.7-252.7,180-327.8,283.8c-75.2,103.6-117.4,195.8-129.9,213.5
		c-17.4,24.6-24.4,52.6-34.1,80.6c-58.4,166.8-49.1,359.6-91.5,534.9c-42.8,175.4-137.3,333.2-403.3,430.2
		c-5.8,2.1-11.9,4.3-17.8,6.3c-67.6,23.3-132.3,46.2-194.3,68.9C1534,2316.9,1542.3,2652.5,1222,2787.7c1.6,0,3.2,0,4.8,0.2
		c319-136.9,313.6-471.2,1723.4-985c61.8-22.6,126.6-45.5,194.3-68.9c6-2.1,12.1-4.1,17.8-6.3c267.1-97.4,362-255.8,404.5-431.3
		c42.6-175.5,33.2-368.3,91.5-534.9c9.7-28,16.7-55.9,34-80.2c12.6-18,54.7-109.8,129.9-213.5c75.2-103.6,183.2-218.7,327-283.1
		c59.6-26.7,112.5-48.3,159.2-65.3c101.4-37.1,174.9-52.6,229.5-53.1c54.8-0.5,90.7,14.2,118.7,38.3
		c65.9,56.6,84.5,165.6,181.7,249.3c13.6,11.7,28.8,23,46,33.5c89.1,54.9,220.6,90.9,441,76.5c54.7-3.4,105-8.7,151.4-15.2
		C5477.1,448.2,5477.5,447.6,5477.8,446.9z"/>
	<path class="st0" d="M5501.2,386.5c-60.5,12.4-129.6,22.3-208.3,28.8c-209.5,17.1-339-13.7-433.1-62.9
		c-29.7-15.4-54.1-32.8-75.6-51c-78.7-67.8-110-149.3-168-199.2c-31.7-27.5-72-45.4-132.2-45.9C4424,55.6,4343.9,72,4231.9,113
		c-39.8,14.4-83.7,32.1-131.9,53c-282.1,122.2-431.6,434.4-469.3,485.9c-17.8,24.4-25.6,51.9-36.1,79.5
		c-129.7,336.7,29.8,761.7-468.1,969.3c-1410.9,588.7-1544.8,900.8-1894.7,1028.1c-53.6,19.5-112.2,34.8-181.1,45.9
		c1.5,0.3,2.5,0.8,3.2,1.4c68.3-11.3,126.4-26.3,179.7-45.7c351-128.1,483.9-439.5,1894.7-1028.3
		c499.7-208.7,339.4-634.1,469.3-970.2c10.7-27.6,18.4-55.1,35.8-79.2c37.5-51.8,187.3-363.6,468.4-485.2
		c48.4-21,92.2-38.6,131.6-52.9C4345.4,73.6,4425,57.3,4484.2,58c59.2,0.8,98,18.1,129.5,45.2c57.4,49.4,88.8,131,168,199.2
		c21.3,18.4,46.2,35.9,75.9,51.4c94.9,49.5,225.9,80.4,435.7,63.2c77.9-6.4,146.5-16.2,206.7-28.5
		C5500.7,387.8,5501,387.1,5501.2,386.5z"/>
	<path class="st0" d="M5524.2,319.6c-71.1,20.8-157.9,38.1-262.9,48.6c-199.1,20-328.1-5.8-428-49.6c-47.5-20.7-84.1-45.8-114.6-72
		c-57.2-49.2-92.7-102.9-138.2-142.1c-36.5-31.4-79.8-53.7-145.5-56.3c-65.6-2.6-153.4,14.2-279.7,60.3
		c-31.7,11.6-65.8,25-102.8,40.4c-275.2,115.2-430.3,407.6-480.6,474.7c-18,24-26.5,51.2-38,78.4
		c-141.6,336.3,18.7,743.2-423.6,967.2c-1147.6,581.7-1447.5,859.1-1788.3,983.4c-173.5,63.2-357.7,86.8-670.2,91c0,0-5.6,0-16.8,0
		c-76.6-0.9-405.5-9.4-842.9-82.1l0,0.1l-0.6,1.5c501.4,83.3,860.4,82.2,860.4,82.2c312.6-4.1,497.8-27.8,671.7-91.3
		c341.8-124.6,641.1-401.9,1788.6-983.5c443.6-225.1,282.9-632.3,424.4-968c11.4-27.4,20-54.4,37.7-78.2
		c50.3-67.3,205.6-359.3,479.9-474c36.8-15.4,70.9-28.8,102.8-40.4c125.9-46,213.4-62.5,278.1-60c64.5,2.5,106.7,24.3,143,55.5
		c45.3,39,81,92.8,138.2,142.1c30.7,26.4,67.5,51.5,115.5,72.5c100.6,44.1,230.9,69.9,430.5,50c104.4-10.4,190.6-27.6,261.4-48.2
		C5523.9,321,5524,320.3,5524.2,319.6z"/>
	<path class="st0" d="M5554.9,239.8c-14.3,6.4-30,12.5-46.4,18.5c-71.7,26.2-163.1,48.9-278.9,62.9c-188.8,22.7-317,2-423.1-36.3
		c-78.8-28.6-131.7-67.3-176.1-105.4c-23.9-20.6-45.3-41-67-59.7c-45.4-39.1-92-70.6-165.3-78.3s-171.6,8-321.5,62.7
		c-22.7,8.3-46.7,17.5-71.9,27.6c-268.6,108.1-428.6,380.8-491.9,463.4c-18.1,23.7-27.5,50.6-40,77.4
		c-153.8,335.8,7.6,725.8-379.2,965.1c-884.7,547.8-1276.5,808.4-1619.1,933.3c-258.2,94-488.6,111.2-881.8,116.5l0,0
		c0,0-5.9-0.1-16.9-0.3c-72.3-1.5-369.8-10.5-770.9-61.5l-0.6,1.6c463.5,59,788.5,61.8,788.7,61.9l0,0l0,0
		c393.4-5.2,624.6-22.6,883.4-116.8c343.4-125.2,735.2-385.8,1619.7-933.6c387.9-240.3,225.9-630.6,379.5-965.8
		c12.2-26.9,21.9-53.7,39.7-77.2c63.4-82.8,223.8-355.2,491.1-462.8c25.2-10.1,49.2-19.3,71.9-27.6
		c149.4-54.5,247.7-70.1,319.3-62.4c71.8,7.7,117.8,38.5,163.3,77.5c21.6,18.6,43.1,39.1,66.9,59.7c44.6,38.3,97.6,77.2,177.2,105.9
		c106.6,38.6,236.1,59.4,425.5,36.6c116.1-14.1,207.8-36.8,279.8-63c15.2-5.5,29.6-11.4,43.2-17.2
		C5553.8,241.8,5554.4,240.7,5554.9,239.8z"/>
	<path class="st0" d="M5594.4,132.9c-38,28.8-90.4,58.9-162.3,85.2c-62.3,22.6-139.4,42.5-234.4,56.1
		c-178.5,25.4-306.1,9.7-418.1-23.3c-164.4-48.4-226.1-131.5-319-178.4c-46.5-23.5-100.8-37.8-179.3-33.7s-180.9,26.2-324.3,75.5
		c-3.8,1.2-7.3,2.5-11,3.9c-264.1,96.3-416.7,351.5-492.4,448.2c-18.3,23.4-28.9,49.8-41.9,76.3c-165.9,335.3-2.5,709.2-334.6,963
		c-671,513.3-1078.5,766.8-1425.6,893.3c-361.3,131.7-657.3,125.8-1118.2,132l0,0c-0.8,0-6.4-0.1-16.7-0.4
		c-67.9-1.9-333.8-11.3-697.3-45.4l-0.6,1.6c423.5,39.7,715,45.9,715,45.9l0,0l0,0c460.6-6.3,757.4-0.3,1119.5-132.4
		c347.7-126.8,755.3-380.4,1426.3-893.8c332.8-254.6,169-629,335-963.5c13-26.5,23.6-52.9,41.6-76.1
		c75.7-96.9,228.6-351.8,491.4-447.5c3.7-1.3,7.1-2.7,11-3.9c143.2-49.2,245.5-71.2,323.2-75.2c116.6-6,178.2,28.5,242.5,73.9
		c63.9,45.4,130.1,101.5,254.1,138c112.5,33.2,241.2,48.9,420.3,23.4c95.5-13.6,172.6-33.5,235.5-56.4
		c69.8-25.5,121.1-54.4,159.1-82.5C5593.6,135.7,5594.1,134.3,5594.4,132.9z"/>
	<path class="st0" d="M474.9,2575.1C474.9,2575.1,474.8,2575.1,474.9,2575.1l0.1,0.9L474.9,2575.1z"/>
	<path class="st0" d="M5576.1,39.4c-36.7,43.8-101.8,96.7-217.1,138.6c-53,19.3-116.6,36.4-193,49.1c-168.1,28-295.1,17.5-412.8-10
		c-172.3-40.2-246.2-113.5-345.7-155.6c-49.7-21-106.1-33.9-183.9-30.7c-77.8,3.3-177.2,22.6-313.8,66.4c-8.1,2.6-16.2,5.3-24.1,8.2
		c-250.7,91.4-402.7,322.6-490.8,432.5c-18.4,23.1-29.7,49.1-43.9,75.3c-178.2,334.7-11.8,693.8-289.7,960.9
		c-516.4,496.5-904.9,748.1-1252.7,874.6c-449.3,163.7-831,119.4-1333.6,126.3l0,0l0.2,0l0.1,0.9l-0.1-0.9c-1-0.1-6.5-0.2-16.8-0.6
		c-63.1-2.3-297.5-11.8-622.2-33l0,0.1l-0.6,1.5c382.4,25,639.9,33.6,639.9,33.6l0.2,0l0,0c502.3-7,884.8,37.5,1335-126.6
		c348.3-126.9,737-378.6,1253.4-875.2c278.6-267.9,111.8-627.3,290.1-961.3c13.9-26.2,25.3-52.1,43.6-75.1
		c87.8-110,240.1-340.9,489.7-431.9c7.9-2.9,15.9-5.6,24.1-8.2C4048,54.6,4147.1,35.3,4224.4,32c115.8-4.8,182.4,26.4,253.2,66.6
		c70.8,40.2,145,89.5,275.1,119.7c118.4,27.6,246.3,38.1,415.1,10c76.5-12.7,140.6-29.8,193.9-49.3c116.4-42.3,181.8-95.9,218.5-140
		l-4-0.3L5576.1,39.4z"/>
	<path class="st0" d="M5471.8,32.3c-39.2,36.5-97.3,74.6-183.5,106.1c-43.7,16-94.8,30.2-154.3,41.7c-157.7,30.4-284,25.1-407.8,3.2
		c-180.2-32-266.5-95.8-372.8-133C4247,13.2,4120.6,3.4,3861.9,80c-13,3.9-25.9,8.1-38.5,12.7c-236.7,86.3-388,294.8-487.6,416.7
		c-18.7,22.8-30.9,48.4-45.8,74.1c-190.5,334.1-19.6,679.1-245.1,958.8c-399,495.2-760.2,748-1106.2,874.1
		c-514.6,187.6-996.5,95-1522.9,102.4l0,0l0.2,0l0.1,0.9l-0.1-0.9c-5.9-0.3-227.9-10.3-562.6-25l-0.6,1.8
		c120.9,5.3,227.4,10,314.1,13.8c78.5,3.5,140.8,6.2,183.4,8.2s65.7,3,65.8,3.1l0,0l0.2,0c525.5-7.5,1008.5,85.3,1524.2-102.7
		c346.6-126.3,707.9-379.5,1106.9-874.7c226-280.5,55-625.5,245.4-959c14.7-25.8,27.1-51.3,45.5-74.1
		c99.7-122,251.1-330.2,486.7-416.1c12.5-4.5,25.2-8.7,38.4-12.6c258.4-76.3,382.9-66.4,488.5-29.7
		c105.8,36.7,192.6,101,373.7,133.1c124.2,22,251.4,27.4,409.7-3.3c59.6-11.6,110.9-25.8,154.7-41.9
		c87.3-31.8,145.9-70.4,185.2-107.3l-3-0.2L5471.8,32.3z"/>
	<path class="st0" d="M415.9,2519L415.9,2519l0.1,0.9L415.9,2519z"/>
	<path class="st0" d="M357.2,2463.8l-0.1-0.9l0,0l-0.2,0L357.2,2463.8z"/>
	<path class="st0" d="M5363.3,24.9c-35.8,26.4-82.6,52-143.4,74.3c-34.4,12.5-73.6,24-117.5,33.9c-147.5,32.8-272.9,32.9-402.8,16.4
		c-188-23.9-292.1-83.5-408-118.5s-243.7-44.6-477.3,31.6c-8.1,2.6-16.2,5.5-24.3,8.3c-230,83.9-397.7,271.1-513.4,409.8
		c-18.8,22.6-32.1,47.6-47.5,73.2c-203.2,333.5-25.7,664.7-200.6,956.7c-301.2,503.8-633.7,760.4-977.5,885.6
		c-562.1,204.9-1155,58.8-1693.9,66.5l0,0l0.1,0.9l-0.3-0.8l0.2,0c-1-0.1-190.6-11-485.5-19.3l-0.6,1.8
		c89.3,2.5,169.1,5.2,236.8,7.9c78.2,2.9,140.7,5.9,183.4,7.9c21.4,1.1,37.9,1.9,48.9,2.5c11,0.6,16.8,0.9,16.8,0.9l0.2,0l0.2,0
		c537.8-8,1131.9,138.5,1695.5-66.7c344.5-125.6,677.1-382.5,978.5-886.4c175.1-292.7-2.4-623.9,200.6-956.7
		c15.4-25.4,28.9-50.7,47.5-73c115.7-138.7,283.3-325.7,512.3-409.1c7.9-2.9,16-5.8,24.1-8.3c233.3-76,359.2-66.2,474.3-31.6
		c115.2,34.7,219.8,94.6,409,118.7c130.1,16.5,256.6,16.6,404.3-16.5c44.4-9.9,83.4-21.4,118.2-33.9
		c61.8-22.6,109.3-48.6,145.5-75.4L5363.3,24.9L5363.3,24.9z"/>
	<path class="st0" d="M298,2407.7l0.1-0.9l0,0l-0.2,0L298,2407.7z"/>
	<path class="st0" d="M5248.6,17.2c-27.1,15.4-58.5,30.1-95.1,43.5c-25.1,9.1-52.7,17.7-83.1,25.5c-137.2,35.3-262,40.6-397.6,29.6
		C4476.7,100,4359.8,49.4,4237,19.1c-122.8-30.4-251.6-40.1-470.5,26.3c-14.1,4.3-27.9,8.8-41.3,13.7
		c-215.8,78.7-380.7,244.1-507.7,393.2c-19,22.3-33.3,47-49.6,72.1c-215.8,332.9-30.2,650.5-155.7,954.6
		c-214,518.1-518.4,780.3-859.8,904.8c-597.2,217.7-1309.4,14.9-1854.2,23l0,0l-0.1,0.9l-0.3-0.8l0.2,0
		c-1.9-0.2-158.5-11-407.1-15.6l-0.6,1.8c58.3,1.1,111.5,2.4,158.8,4.1c78.2,2.5,140.5,5.4,183.1,7.6c21.4,1.1,37.8,2.1,48.8,2.9
		c11,0.6,17,1.2,17,1.1l0,0l0.2,0c543.7-8.3,1256.9,194.9,1855.8-23.3c342.4-124.8,646.8-387.4,861-905.7
		c125.7-304.7-59.9-622.4,155.9-954.5c16.5-25.2,30.6-49.8,49.4-72c126.8-149,291.8-314.2,506.8-392.5c13.6-4.9,27-9.5,41.1-13.6
		C3986.6-19,4114-9.2,4236.1,20.9c122.2,30.2,239.5,81,436.6,96.8c136.1,10.9,261.6,5.6,399.2-29.8c30.4-7.8,58.1-16.4,83.4-25.5
		c37.6-13.8,69.8-28.8,97.5-44.6l-4.3-0.3L5248.6,17.2z"/>
	<path class="st0" d="M239.2,2351.6l0.1-0.9c0,0,0,0-0.2,0l-0.2,0L239.2,2351.6z"/>
	<path class="st0" d="M5123.7,8.7c-11.3,4.8-22.9,9.4-35.4,13.9c-15.7,5.7-32.2,11.2-49.9,16.3c-127.1,37.3-250.9,48.3-392.5,42.8
		c-204.2-7.6-333.6-49.2-463.4-75c-129.9-25.7-260-35.4-463.6,21.2c-21.1,5.9-41.7,12.5-62,19.9
		c-201.2,73.3-361.5,218.6-498.5,375.8c-19.2,21.9-34.4,46.3-51.4,71c-228.8,332.1-33.3,636.2-111.4,952.6
		c-131.9,536-408.7,804.6-748.1,928.4c-623.5,227.7-1461.1-33.2-2008.4-24.9l0.2,0l-0.1,0.9l-0.3-0.8l0.2,0
		c-4.3-0.3-127.9-10.3-328.4-13.4l-0.6,1.6c28.3,0.5,55.1,1.1,80.3,1.6c78.1,2.2,140.5,5,183,7.4c21.4,1.2,37.8,2.4,49,3
		c11.1,0.7,16.8,1.3,16.8,1.3l0.2,0l0.2,0c545.6-8.5,1384.3,252.8,2010.2,24.9c340.7-124.2,617.5-393.3,749.3-929.6
		c77.8-316.9-117.4-620.7,111.2-952.1c17.1-24.8,32.4-49,51.5-70.9c136.8-157.3,297-302.2,497.3-375.1c20.3-7.4,40.8-13.9,61.8-19.8
		c203.4-56.4,332-46.9,461.4-21.2c129.6,25.5,259.5,67.4,464.3,75c141.9,5.4,266.7-5.5,394.3-43c17.7-5.2,34.3-10.7,50-16.4
		c13.6-4.9,26-9.9,38.1-15.2L5123.7,8.7L5123.7,8.7z"/>
	<path class="st0" d="M4984.3-0.8c-110.3,34.3-226.7,48.7-365,48.9c-212.1,0.4-354.6-32.3-491.6-53.6
		c-136.8-21.2-268.1-30.7-456.6,16.4c-29.8,7.3-58.8,16.3-86.9,26.6c-185.4,67.5-340.2,194.9-484.8,357.7
		c-19.3,21.7-35.7,45.6-53.5,70c-241.7,331.4-35.4,621.7-66.5,950.5c-52.8,555.8-302.1,831.6-640.1,954.7
		c-322.3,117.5-725.3,96.4-1116.3,47c-391-49.4-769.5-127.2-1042.8-122.8l-0.1,0.9l-0.3-0.8l0.2,0l0,0c0,0-92.9-8.7-249.5-11.9
		l-0.6,1.6c0.6,0,1,0.1,1.6,0c77.9,1.6,140.1,4.6,182.8,7.2c21.3,1.3,37.6,2.5,48.9,3.4c11.2,0.8,16.9,1.4,16.9,1.4l0.2,0l0.2,0
		c272.5-4.4,651,73.3,1042.2,122.7c391.3,49.4,795.3,70.6,1118.7-47.3c339-123.6,588.6-400,641.4-956
		c31.1-329.3-174.9-619.3,66.3-949.9c17.7-24.5,34.1-48.2,53.3-69.9c144.4-162.6,299.3-289.9,483.9-357.2
		c28.2-10.2,57.2-19.1,86.6-26.5c188-46.9,317.9-37.4,454.5-16.3c136.5,21.2,279.7,54,492.3,53.6c140-0.3,258.2-15.1,370.2-50.2
		l-5.5-0.4L4984.3-0.8z"/>
	<path class="st0" d="M180.4,2295.5l0.1-0.9l-0.2,0L180.4,2295.5z"/>
	<path class="st0" d="M4818.2-12c-67.6,13.9-141.2,23.2-225.5,26.5c-220.2,8.4-375.5-15.6-519.6-32.3
		C3929.1-34.5,3796.9-44,3623.7-6.2c-39.8,8.6-78.4,19.9-115.8,33.6c-169.2,61.7-317.6,174.2-467.4,339.5
		c-19.4,21.5-36.8,44.8-55.3,68.9c-254.7,330.7-36.2,606.7-22,948.4c24.4,576.6-197.9,859.6-534.3,982.3
		c-330.3,120.4-771.2,86.4-1197.7,23.2c-426.3-63.1-837.7-155.4-1109.9-151.1l-0.1,0.9l-0.1-0.9c0.2,0,0.2,0,0.3,0.1l0,0
		c0,0-62.3-6.7-170.6-10.2l-0.6,1.6c42.6,1.4,78.1,3.3,105.5,5.1c21.3,1.3,37.7,2.7,48.8,3.7c11.1,1,16.7,1.5,16.7,1.5l0.2,0l0.2,0
		c271.1-4.5,682.8,87.8,1109.4,150.9c426.7,63.3,868.5,97.4,1199.9-23.3c337.7-123,560.1-406.7,535.7-983.8
		c-14.7-342.2-232.6-617.8,21.6-947.6c18.6-24.2,36-47.4,55.4-68.8c149.8-165.2,297.9-277.5,466.5-338.9
		c37.3-13.6,75.7-24.7,115.4-33.4c172.2-37.6,303.9-28.2,447.4-11.6c143.9,16.7,299.9,40.8,520.4,32.2
		c87.2-3.4,162.6-12.9,232.1-27.7l-7.1-0.5L4818.2-12z"/>
	<path class="st0" d="M121.5,2239.3l0.1-0.9c-0.2,0-0.2,0-0.3-0.1L121.5,2239.3z"/>
	<path class="st0" d="M4627.8-24.9c-20.1,2.2-40.5,4-62.1,5.6c-228.2,16.5-396.9,1.1-547.9-11.3c-151-12.3-284.5-21.6-441.6,7.2
		c-50.6,9.2-99.4,22.3-146.9,39.7c-153.7,56-295.1,157-447.7,322.1c-19.6,21.2-37.8,44.1-57.2,68c-268,329.7-36.8,591.1,22.8,946.3
		c100.3,597.9-95.1,888.4-430.2,1010.4c-336.6,122.7-815.4,75.5-1277.2-1.4c-461.8-76.9-906.9-183.6-1177.3-179
		c0.2,0,0.3,0.1,0.3,0.1l-0.1,0.9l-0.1-0.9l0,0c-3.4-0.4-35.8-4-91.8-7.3l-0.6,1.6c9.8,0.6,18.7,1.1,26.9,1.7
		c21.3,1.4,37.7,2.9,48.8,3.9c11.1,1,16.9,1.8,16.9,1.8l0.2,0l0.2,0c269.2-4.5,714.5,102,1176.7,178.9s941.3,124.4,1279.4,1.2
		c336.4-122.6,531.9-413.9,431.4-1011.9c-59.7-355.7-290.4-616.3-23-945.4c19.3-23.8,37.7-46.7,57.2-67.8
		c152.6-164.9,293.8-265.7,446.8-321.6c47.4-17.3,95.9-30.2,146.3-39.5c156.6-28.7,289.5-19.5,440.4-7
		c151,12.3,320.1,27.6,548.7,11.2c24.8-1.7,48.6-4,71.5-6.6L4627.8-24.9L4627.8-24.9z"/>
	<path class="st0" d="M62.4,2183.2l0.1-0.9c0,0-0.2,0-0.3-0.1l0,0L62.4,2183.2z"/>
	<path class="st0" d="M2866.3,377.4c19.9-23.5,39.5-45.7,59.1-66.7C3079.2,147.9,3213.5,55.3,3353,4.5
		c57.6-20.9,115.8-34.7,176.8-43.6c252.8-36.2,484.7,21.9,872.4-1.2l-14.1-0.9c-378.9,21.1-608.2-35.4-859.3,0.4
		C3467.7-32,3409-18.1,3351.2,2.9c-140,51-274.6,143.8-428.4,306.7c-19.8,20.9-39,43.3-59.1,66.8
		c-282.3,328.6-36.9,574.9,67.5,944.1c175.2,619.2,6.1,917-327.5,1038.6c-341.8,124.7-857.9,64.3-1355.5-26.3
		c-497.5-90.4-976-211.1-1244.2-206.6l0.2,0l-0.4,0.8l-0.1-0.9l0.2,0c-1-0.1-5.8-0.8-14.7-1.6l-0.6,1.6c10,1,15,1.6,15,1.7l0.2,0
		l0.2,0c266.9-4.7,745.8,116.1,1243.7,206.6c497.6,90.6,1014.4,151.3,1357.7,26.1c335.1-122.1,503.9-420.9,328.7-1040.4
		C2829.2,950.9,2584.5,705.3,2866.3,377.4z"/>
	<path class="st0" d="M3.6,2127.1l0.4-0.8c0,0,0,0-0.2,0l-0.2,0L3.6,2127.1z"/>
	<path class="st0" d="M2695.1,796.9c-46.1-146.4-37-285.4,110.1-449.1C2987,145.4,3133.1,41,3277.7-11.7
		c153.7-55.9,305.7-53.5,498.1-47.5c112.3,3.5,238.4,8.3,386.3,3.3c-4.2-0.4-8.2-0.9-12.4-1.3c-142.7,4.4-265-0.2-374.3-3.8
		c-192.2-6.1-345.3-8.5-499.5,47.8c-145.3,53-291.4,157.8-473.5,360.2c-147.5,164-156.7,303.5-110.4,450
		c46.3,146.5,148.1,300.1,222.5,492.1c249.1,640.3,106.1,945.7-226.2,1066.7c-346,126.3-899.6,52.7-1432.6-51.3
		c-492.8-96.3-968.1-218.6-1247-232.8l-0.6,1.6c277.6,13.9,753.7,136.4,1247.3,232.8c533.3,104.2,1087.4,178,1435.3,51.3
		c333.7-121.7,476.2-428,227.3-1068.5C2843,1096.7,2741.2,943.3,2695.1,796.9z"/>
</g>
</svg>
