<?xml version="1.0" encoding="utf-8"?>
<!-- Generator: Adobe Illustrator 22.0.1, SVG Export Plug-In . SVG Version: 6.00 Build 0)  -->
<svg version="1.1" id="图层_1" xmlns="http://www.w3.org/2000/svg" xmlns:xlink="http://www.w3.org/1999/xlink" x="0px" y="0px"
	 viewBox="0 0 2500 2500" style="enable-background:new 0 0 2500 2500;" xml:space="preserve">
<style type="text/css">
	.st0{fill:#660000;stroke:#65140E;stroke-width:4;stroke-miterlimit:10;}
</style>
<g>
	<path class="st0" d="M3226.9,1974.4c-9.5-7.6-19.1-15.5-28.9-23.8c-133.3-113.4-176.2-218.6-178.6-314.4
		c-1.8-78.8,23.7-151.2,49.6-216c25.8-64.9,52-122.1,50.8-171.1c-0.7-29.4-11.4-55.8-38-78.5c-26.5-22.8-68.4-41.9-132-57.5
		c-43.6-10.6-97.5-19.6-163.2-26.7c-122.3-13.4-254.6,44.7-356.8,106.4c-102.3,61.6-174.5,126.9-176.1,128.1
		c-260.1,199.2-444.6,737-856.8,635.9c-29.9-7.3-60.9-18-93.3-32.4c-233.7-103.9-428.8-171-592.9-211.1
		c-408.2-99.9-625-32.8-770.3,52c-74,43-129.3,90.6-182.1,123c0.7,0.6,1.1,1.1,1.6,1.8c52.7-32.4,107.9-79.8,181.6-122.6
		c145.1-84.6,361.5-151.6,769.3-51.8c164,40.2,359,107.2,592.5,211.1c32.4,14.5,63.7,25.2,93.6,32.4
		c413.7,101.1,598.2-437.6,858-636.1c1.8-1.4,73.8-66.4,176-128c102.1-61.7,234.4-119.4,356-106.2c65.8,7.1,119.5,16.2,163,26.7
		c63.4,15.6,105.2,34.7,131.1,57c25.9,22.3,36.1,47.6,36.9,76.4c1.2,48.1-24.8,105.3-50.8,170.2s-51.7,137.5-49.8,217
		c2.3,96.6,45.9,203.1,179.6,316.7c9.4,8.1,18.8,15.8,28.1,23.3C3225.8,1975,3226.3,1974.7,3226.9,1974.4z"/>
	<path class="st0" d="M3268.1,1939.3c-19.4-13.8-39.1-28.9-59.5-45.6c-128.5-104.8-174.2-204.9-183.5-298.2
		c-0.9-8.4-1.2-16.8-1.5-25.1c-1.8-70,17.1-134.6,36.2-193.2c19-58.5,38.3-111,37.1-156.6c-0.8-32.1-11.7-61-39.9-85.9
		c-28.1-24.8-73.1-45.7-142-62.6c-39.5-9.6-86.9-18-143.4-25.1c-118.3-14.6-246.7,37.5-347.9,94.6c-50.5,28.6-94.4,58.3-126.7,81.7
		c-32.2,23.3-53.2,40.2-57.7,42.8c-23.5,13.4-43.3,34.7-64.4,54.8c-241.8,229-421.3,678.4-806.2,584.1c-17.9-4.3-36.2-9.8-55.1-16.7
		c-162.9-58.9-306.9-102.5-434.8-133.7c-449.6-110.1-700.4-68.3-869.5-6.6c-117.5,42.9-195.7,95.3-273.9,113.1
		c0.1,0.1,0.2,0.2,0.3,0.3c0.5,0.5,0.8,1.1,1.2,1.8c78.3-18.1,156.3-70.3,273.2-112.9c169-61.6,419.3-103.4,868.6,6.6
		c127.8,31.3,271.8,75,434.6,133.7c18.9,6.9,37.3,12.4,55.2,16.8c386.4,94.5,566-355.9,807.4-584.4c21.2-20.2,41-41.4,64.2-54.6
		c4.8-2.7,25.5-19.5,57.8-42.7c96.9-69.8,297.1-197.8,473.7-176c56.5,7,103.8,15.3,143.2,25c69,16.9,113.6,37.8,141.2,62.2
		c27.6,24.4,38,52.1,38.8,83.8c1.1,44.9-18,97.2-37.1,155.8s-37.9,123.4-36.2,194c0.1,8.3,0.7,16.7,1.5,25.3
		c9.2,94.1,55.7,195.2,184.6,300.2c20.1,16.3,39.8,31.4,58.9,45C3267.1,1940.2,3267.6,1939.7,3268.1,1939.3z"/>
	<path class="st0" d="M3309.1,1900c-28.7-17.6-58.7-38.4-90-62.8c-124.9-97.1-173.1-192.9-188.5-284.2c-3-17.5-4.4-34.7-4.9-51.6
		c-3-120.3,50.3-223.8,48.3-306.7c-0.9-35.4-11.9-67.2-41.8-94.5c-29.8-27.3-78.1-50.3-153.4-68.7c-34.7-8.5-75.5-16.1-122.6-22.7
		c-114.3-15.9-238.7,30.4-338.8,83c-100,52.5-176,111.4-193,120.6c-23.6,12.7-43.5,33.5-64.9,52.9
		c-127.9,115.7-234.9,287.6-359.3,418.6c-124.5,131-266.3,220.8-463.9,172.4c-4.4-1-8.8-2.2-13.2-3.4c-49.4-13.5-97-25.8-143.1-37
		C130,1558.9-60.4,1854.3-308.9,1812.1c0.8,0.8,1.7,1.5,2.4,2.6c248.8,40.1,440.1-252.7,1486.7,3.5c46,11.2,93.6,23.6,143.1,37
		c4.4,1.2,8.8,2.4,13.2,3.4c198.3,48.5,340.6-41.7,465.2-172.8s231.6-303.1,359.3-418.6c21.4-19.4,41.3-40.2,64.6-52.7
		c17.2-9.3,92.9-68,193-120.6c100-52.5,224.2-98.6,338-82.8c47.1,6.6,87.7,14.1,122.4,22.7c75.4,18.4,123.4,41.4,152.7,68.3
		c29.3,26.9,39.9,57.4,40.8,92.4c2.1,81.9-51.3,185.7-48.4,306.8c0.4,17,1.9,34.3,4.9,52c15.4,92.1,64.3,188.8,189.6,286
		c31,24.2,60.7,44.7,89.1,62.2C3308,1900.8,3308.5,1900.5,3309.1,1900z"/>
	<path class="st0" d="M3356.5,1859.2c-39.2-19.4-81.8-45.1-127.2-78.6c-121.1-89.5-172-180.7-193.4-270.3
		c-6.8-28.1-9.7-55.4-10.5-81.9c-2.4-98,28.3-184.3,26.6-256.5c-0.9-39.7-11.8-75.2-43.4-105.7c-31.5-30.5-83.6-56.1-166.9-76.4
		c-29.5-7.3-63-13.9-100.8-19.7c-220.6-34.4-481.4,162.1-531.3,188c-23.6,12.3-43.7,32.4-65.3,51
		c-264.4,227.6-426.5,675.8-811.4,608.1c-1090.7-191.7-1343,12.4-1602.6-51.3c-39.7-9.7-79.7-25.7-122.8-50.4c0.6,1,0.8,1.9,0.9,2.7
		c42.7,24.3,82.4,40.1,121.9,49.8c260.7,63.7,512.1-140.4,1602.7,51.2c386.4,67.8,548.4-381.3,812.5-608.3
		c21.8-18.6,41.7-38.7,65-51c50-26.2,310.6-222.3,530.4-187.9c37.9,5.9,71.3,12.4,100.6,19.7c83.2,20.4,134.9,45.9,166,75.9
		c31,30.1,41.5,64.5,42.5,103.7c1.8,71.5-29,157.9-26.6,256.5c0.6,26.5,3.7,54.2,10.5,82.4c21.6,90.3,73.1,182.3,194.5,271.9
		c45.1,33.3,87.2,58.8,126.2,78.2C3355.5,1860.1,3356.1,1859.6,3356.5,1859.2z"/>
	<path class="st0" d="M3407.7,1812.6c-49.8-17.4-105.9-45.5-167.8-88.8c-117.2-81.8-170.7-168.5-198.4-256.3
		c-13.2-41.7-18.1-81.6-19-119.6c-1.8-71.1,10.6-135.5,9.2-192.2c-1.1-45.5-11.1-86.4-44.5-121.4c-33.3-35-89.7-64.1-183.5-87
		c-23.6-5.7-49.5-11.1-78-16.1c-213-37.1-465,139.4-530.8,172.6c-23.5,11.9-43.8,31.3-65.8,49.2
		c-270.5,221.3-421.7,654.3-786.5,628.5c-946.8-66.8-1267.1,24.7-1520.2-37.2c-128.8-31.5-240.3-102.8-408.5-254.8c0,0-3-2.8-9-8.5
		c-40.1-39-209.8-210.1-399.6-491l-0.1,0.1l-1.2,1.1c217.8,322.2,409,500.1,409,500.1c168.3,152.1,280.3,223.7,409.5,255.3
		c253.7,62.1,573.7-29.5,1520.4,37.2c366.1,25.6,517.4-407.9,787.5-628.7c21.9-18,42.2-37.2,65.5-49.1
		c65.8-33.4,317.8-209.4,530-172.4c28.5,5,54.4,10.4,78,16.1c93.6,22.9,149.6,52,182.4,86.4c32.8,34.3,42.5,74.2,43.7,119.4
		c1.4,56.4-10.9,120.9-9.2,192.2c0.9,38.2,5.9,78.4,19.2,120.3c27.8,88.4,81.9,175.7,199.4,257.8c61.5,42.9,117.2,70.9,166.7,88.4
		C3406.7,1813.7,3407.1,1813.1,3407.7,1812.6z"/>
	<path class="st0" d="M3470.3,1758.7c-11.3-1.7-23.1-4.1-35.4-7c-53.3-13-115-38.8-184.6-84.4c-113.4-74.3-169.4-156.1-203.4-242.2
		c-25.2-64-30.9-123.9-32.2-179.2c-0.8-29.8-0.2-58.2-0.9-85.2c-1.4-56.6-7.9-107.2-42.2-150.3c-34.3-43.2-95.8-78.5-207-105.7
		c-16.9-4.1-35-8.1-54.2-11.8c-205.3-39.9-448.6,117-530.2,157.1c-23.4,11.6-44,30.2-66.1,47.3
		c-276.6,214.9-417.5,633.6-761.8,648.8c-787.6,34.9-1146.9,65.9-1401.3,3.6c-191.6-47-323.9-146.8-535.6-338.1l0,0
		c0,0-3.1-2.9-8.8-8.6c-37.5-37.3-190.2-193.3-373.4-437.3l-1.3,1.1c211.7,282,382.6,446.4,382.6,446.5l0,0l0,0
		c211.8,191.4,344.5,291.5,536.6,338.5c254.9,62.3,614.2,31.4,1401.8-3.5c345.4-15.4,486.1-434.8,762.4-649.1
		c22.1-17.3,42.8-35.7,65.9-47.2c81.8-40.3,325-196.8,529.4-157c19.2,3.8,37.3,7.7,54.2,11.8c110.9,27.1,172.2,62.5,205.7,104.8
		c33.7,42.4,40.2,92,41.6,148.6c0.6,26.9,0.2,55.4,0.8,85.1c1.4,55.4,7,115.6,32.4,180.2c34.1,86.6,90.8,169.2,204.5,243.7
		c69.7,45.6,131.6,71.6,185.1,84.6c11.3,2.8,22.4,4.9,32.9,6.7C3468.6,1759.8,3469.4,1759.3,3470.3,1758.7z"/>
	<path class="st0" d="M3553.3,1685.7c-36.9,6.1-82.2,6-135.6-6.9c-46.2-11.4-98.7-32.5-157-68c-109.5-66.8-168.1-144.1-208.4-228.4
		c-59.1-123.9-43.6-226.8-65.7-313.7c-11-43.5-31.6-83-75.6-118.6c-44-35.6-111.2-67.4-216-96c-2.7-0.8-5.4-1.5-8.1-2.1
		c-196.1-48-425.3,97.5-521.6,143.8c-23.3,11.1-44.2,28.8-66.5,45.3c-282.8,208.3-413.3,614.3-736.9,669.2
		c-654.2,111.3-1017.7,128.3-1275.4,65.3c-268.2-65.7-421.9-218.1-670.1-442.3l0,0c-0.4-0.4-3.4-3.2-8.7-8.7
		c-34.9-35.5-170.6-176.1-343.7-386.6l-1.3,1.1c201.8,245.4,352.8,395.8,352.8,395.8l0,0l0,0c248.1,223.9,402.2,376.9,671,442.7
		c258.1,63.1,621.7,46,1276-65.4c324.4-55.2,455-461.7,737.3-669.4c22.3-16.5,43.2-34.2,66.2-45.3
		c96.5-46.3,325.6-191.5,520.7-143.7c2.7,0.6,5.4,1.3,8.1,2.1c104.6,28.6,171.6,60.4,215.2,95.7c65.3,52.9,78.1,113.6,85.8,184.9
		c7.6,71.2,10,152.9,54.7,246.4c40.4,84.8,99.6,162.5,209.4,229.6c58.5,35.7,111.1,57,157.7,68.4c51.8,12.7,95.9,13.1,132.3,7.7
		C3551.3,1687.6,3552.4,1686.7,3553.3,1685.7z"/>
	<path class="st0" d="M-581.9,1255.5C-581.9,1255.5-582,1255.4-581.9,1255.5l-0.5,0.8L-581.9,1255.5z"/>
	<path class="st0" d="M3597.9,1595.3c-44.9,19.7-110.2,33.2-195.7,12.3c-39.4-9.7-83-26.5-131-53.5
		c-105.5-59.4-166.8-131.8-213.3-214.3c-68.1-120.6-64.7-221.2-93.1-307.2c-14.2-43-36.6-82.4-79.8-118.3
		c-43.2-35.9-107.2-68.6-205-98.7c-5.9-1.8-11.7-3.4-17.6-4.8c-186.1-45.6-401.1,79.4-511.6,131c-23.2,10.9-44.3,27.8-67,43.5
		c-289,201.7-409.2,596.2-711.8,689.6C809.7,1848.5,457.5,1873.3,199.4,1810c-333.6-81.6-510.3-310.2-781.1-554.5l0,0l0.1,0.1
		l-0.5,0.8l0.5-0.8c-0.5-0.5-3.4-3.4-8.5-8.9c-32.1-33.4-151-158.4-311-338.6l-0.1,0.1l-1.2,1.1
		c188.4,212.2,320.1,347.9,320.1,347.9l0.1,0.1l0,0c270.6,244.1,447.8,473.2,782,555c258.6,63.3,611,38.5,1173.5-135.3
		c303.5-93.8,423.7-488.6,712.3-689.8c22.6-15.8,43.6-32.7,66.7-43.4c110.5-51.8,325.5-176.3,510.7-130.9c5.8,1.4,11.7,3,17.6,4.8
		c97.7,29.9,161.4,62.6,204.4,98.3c64.2,53.5,81.5,113.7,95.7,183.9c14.2,70.1,25,149.8,76.5,240.9c46.8,83,108.6,155.7,214.4,215.4
		c48,27.1,91.9,44.1,131.5,53.8c86.3,21.1,152.2,7.3,197.3-12.7l-2-2.2L3597.9,1595.3z"/>
	<path class="st0" d="M3546.6,1537.1c-42,12.2-94.9,16.3-159,0.7c-32.4-7.9-67.8-20.9-106.1-40.6
		c-101.4-52.1-165.3-119.6-218.3-200.3c-77.1-117.4-85.8-215.9-120.7-301.1c-35-85.3-96.3-156.7-278.1-219.1
		c-9.2-3.2-18.5-5.9-27.9-8.2c-175.8-43-377.1,62.6-500.8,118.8c-23.2,10.5-44.5,26.6-67.4,41.6c-295.1,195.1-404.8,579.5-687,710.1
		c-499.4,231.1-837.8,270.6-1094.7,207.7c-382-93.5-583.9-413.9-867.7-669.5l0,0l0.1,0.1l-0.5,0.8l0.5-0.8
		c-3-3.2-114.9-122.4-284.1-301.9l-1.4,1.2c61.1,64.8,114.9,121.9,158.6,168.4c39.6,42.1,71,75.5,92.6,98.5
		c21.6,23,33.1,35.3,33.2,35.4l0,0l0.1,0.1c283.3,255.1,485.7,576.3,868.5,669.9c257.4,63,596.1,23.2,1095.5-207.9
		c282.9-131,392.4-515.5,687.2-710c22.9-15.1,44.2-31.1,67.2-41.6c123.7-56.3,325-161.6,499.9-118.8c9.3,2.4,18.5,5,27.7,8.2
		c181.4,62.4,241.8,133.1,276.5,217.5c34.8,84.5,43.5,183.6,120.9,301.6c53.1,81,117.5,149,219.3,201.1
		c38.3,19.7,73.8,32.8,106.4,40.7c64.8,15.9,118.4,11.5,160.6-0.9l-1.5-1.7L3546.6,1537.1z"/>
	<path class="st0" d="M-580.7,1177.4L-580.7,1177.4l-0.5,0.8L-580.7,1177.4z"/>
	<path class="st0" d="M-579.8,1100.2l0.5-0.8l0,0l-0.1-0.1L-579.8,1100.2z"/>
	<path class="st0" d="M3493.4,1476.8c-34.4,5.1-74.1,4-119.2-7c-25.5-6.3-52.9-15.8-82-29.1c-97.3-45-163.9-107.4-223.3-186.4
		c-85.9-114.3-106.6-217.9-147.8-306c-41.2-88.1-103.4-160.1-271.6-210.3c-5.9-1.8-11.8-3.3-17.7-4.9
		c-170.7-41.8-368.5,37.3-510.4,100c-23.1,10.2-44.7,25.3-67.8,39.8c-301.5,188.2-399.7,564.1-662,730.4
		c-452.5,287.2-778,344.3-1033.1,281.8C-59,1783-288.7,1360.9-579.2,1099.2l0,0l-0.5,0.8l0.4-0.9l0.1,0.1
		c-0.5-0.5-94.8-104.4-246.4-258.5l-1.4,1.2c45.9,46.7,86.7,88.8,121.1,124.8c39.8,41.5,71.2,75.2,92.7,98.2
		c10.7,11.6,19,20.5,24.6,26.5c5.5,6.1,8.4,9.2,8.4,9.2l0.1,0.1l0.1,0.1c290,260.9,520.2,684,938.6,786.4
		c255.8,62.6,581.5,5.2,1034.1-281.9c263-166.9,361.1-542.6,662-730.4c23-14.4,44.8-29.5,67.6-39.7c142-62.7,339.5-141.6,509.5-99.9
		c5.8,1.4,11.8,3,17.6,4.8c168,50.2,229.1,121.5,270.1,208.8c41,87.5,61.7,191.6,148.1,306.6c59.5,79.1,126.5,142.1,224.2,187
		c29.3,13.5,56.7,23,82.4,29.3c46,11.2,86.2,12.2,121,6.9L3493.4,1476.8L3493.4,1476.8z"/>
	<path class="st0" d="M-578.6,1022.1l0.6-0.7l0,0l-0.1-0.1L-578.6,1022.1z"/>
	<path class="st0" d="M3437,1412.9c-23.4-0.1-48.6-3.1-75.7-9.6c-18.7-4.6-38.3-10.9-58.9-19.2c-93.3-37.8-162.6-95.3-228.2-172.3
		c-94.9-111.3-127.5-213.4-175.2-300.9c-47.6-87.5-110.3-160.1-264.9-211.5c-9.9-3.3-19.9-6.2-29.9-8.6
		c-160.2-39.2-343.7,22.2-497.7,88.4c-23,10-45,24.2-68.2,37.9c-307.8,181.4-393.9,549.5-637.1,750.9
		C986.8,1911,673,1987,419.4,1924.9c-443.3-108.5-703.5-639.1-997.4-903.4l0,0l-0.6,0.7l0.4-0.9l0.1,0.1
		c-0.9-1.1-77.7-88.4-207-216.3l-1.4,1.2c30.3,29.9,57.8,57.7,81.9,82.6c40,41.1,71.4,74.6,92.7,97.8c10.7,11.6,18.9,20.6,24.3,26.8
		c5.5,6.1,8.3,9.4,8.4,9.3l0,0l0.1,0.1c293.4,263.6,553.9,795.1,998.4,904c254.2,62.2,568.3-14,982.9-357.2
		C1646,1368,1732,1000,2039.3,819.1c23.4-13.6,45.1-28,68.1-37.8c153.9-66.1,337.3-127.4,496.9-88.2c10,2.4,19.9,5.2,29.7,8.6
		c154.3,51.4,216.2,123.2,263.6,210.2c47.3,87,80.1,189.5,175.4,301.4c65.9,77.2,135.6,135.1,229.2,173
		c20.6,8.3,40.3,14.7,59.1,19.4c27.9,6.8,53.8,9.7,77.6,9.8l-2.1-2.4L3437,1412.9z"/>
	<path class="st0" d="M-577.2,944.1l0.6-0.7c0,0,0,0-0.1-0.1l-0.1-0.1L-577.2,944.1z"/>
	<path class="st0" d="M3375.7,1343.4c-8.8-1.4-17.6-3.3-26.8-5.5c-11.7-2.9-23.6-6.3-35.9-10.6c-89.2-30.9-161.2-83.1-233.2-158.3
		c-103.9-108.3-148.4-208.9-202.4-295.9S2759.9,712.9,2619,660.7c-14.6-5.4-29.4-10-44.5-13.6c-149.3-36.6-318.8,9.6-482.8,77.9
		c-22.9,9.5-45.1,23-68.5,36c-314.3,174.3-387.2,535.5-612.4,771.3c-381.3,399.5-684.2,494.8-936.2,433.2
		c-463-113.2-756-756.8-1051.3-1022.1l0.1,0.1l-0.6,0.7l0.4-0.9l0.1,0.1c-2.1-2.4-61.9-72.6-166.5-175.2l-1.3,1.1
		c14.7,14.5,28.6,28.4,41.6,41.4c40.2,40.8,71.6,74.3,92.8,97.5c10.6,11.7,18.7,20.8,24.2,27c5.4,6.1,8.2,9.5,8.2,9.5l0.1,0.1
		l0.1,0.1C-283,1209.2,10.3,1853.7,474.8,1967.6c252.9,61.9,556.1-33.7,937.5-433.5c225.3-236.3,298.3-597.1,612-771
		c23.5-13,45.7-26.4,68.4-35.9c163.9-68.4,333.1-114.3,481.7-77.9c15,3.7,29.7,8.2,44.3,13.6c140.7,52.3,203.4,124.6,257.1,211.4
		c53.9,86.7,98.6,187.7,202.8,296.4c72.2,75.4,144.7,128,234.2,159c12.4,4.3,24.4,7.8,36.1,10.7c10,2.4,19.6,4.4,29.1,5.8
		L3375.7,1343.4L3375.7,1343.4z"/>
	<path class="st0" d="M3307.2,1265.7c-78.5-25.3-148.6-70.7-222.1-139.3c-112.8-105.3-169.4-204.6-229.8-291.3
		c-60.3-86.5-124.4-160.2-251.8-213.1c-20.1-8.5-40.7-15.1-61.6-20.2c-137.6-33.7-293.7-0.3-465,69c-22.8,9.2-45.4,21.8-69,34.2
		c-320.8,167.3-379.9,521.9-587.3,791.7c-350.8,456-643.3,571.2-894.1,509.7c-239.3-58.5-440.9-277.6-619.7-515.2
		s-334.5-493.5-482.1-625.9l-0.6,0.7l0.4-0.9l0.1,0.1l0,0c0,0-44.2-53.8-125.5-134.6l-1.3,1.1c0.3,0.3,0.5,0.5,0.8,0.8
		c40.4,40.2,71.7,73.8,92.9,97.3c10.6,11.8,18.6,20.9,24,27.2c5.5,6.2,8.1,9.6,8.1,9.6l0.1,0.1l0.1,0.1
		c147.1,131.9,302.9,387.9,481.8,625.6c179,237.8,381,457.3,621,516.1c251.7,61.6,544.7-54,895.6-510.2
		c207.8-270.3,266.9-624.6,586.9-791.4c23.6-12.4,46.1-24.8,68.9-34.1c171.1-69.3,327.2-102.5,464.2-69
		c20.9,5.1,41.4,11.8,61.4,20.2c127,52.9,190.4,125.9,250.7,212.2c60.2,86.4,117,186.1,230.2,291.7
		c74.4,69.5,145.8,115.5,225.6,140.7l-2.7-3.1L3307.2,1265.7z"/>
	<path class="st0" d="M-575.9,866.1l0.6-0.7l-0.1-0.1L-575.9,866.1z"/>
	<path class="st0" d="M3225.5,1173.2c-44-21.6-88.4-50.2-135.1-89.4c-121.7-102.3-190.2-200.6-257-286.8
		c-66.7-86.1-131.4-160.3-245.2-213.6c-26.1-12.3-53.2-21.8-80.9-28.6c-125.6-30.7-269.7-7-445.2,61.9c-22.7,9-45.6,20.6-69.4,32.2
		c-327.2,160.1-371.6,508.4-562.5,812.2c-321.9,512.6-604.3,647.4-854,586.3c-245.2-60-459.5-309-649.1-576.3
		c-189.6-267.1-354.3-552.1-501.3-683.9l-0.6,0.7l0.5-0.8c0.1,0.1,0.1,0.1,0.2,0.2l0,0c0,0-29.2-36.8-84.6-93.8l-1.3,1.1
		c21.7,22.4,39.5,41.8,53,56.9c10.6,11.8,18.4,21,23.7,27.4c5.3,6.4,8,9.7,8,9.7l0.1,0.1l0.1,0.1
		c146.5,131.1,311.3,416.2,501.1,683.5c189.7,267.3,404.2,517.1,650.3,577.3c250.7,61.4,533.5-74,855.6-587
		c191-304.3,235.3-651.9,561.8-811.6c23.9-11.7,46.7-23.3,69.3-32.2c175.5-68.8,319.3-92.5,444.4-61.9c27.8,6.8,54.5,16.3,80.6,28.4
		c113.3,53.1,177.6,126.8,244.2,212.9c66.7,86.1,135.4,184.7,257.5,287.2c48.2,40.5,93.8,69.7,139.3,91.5L3225.5,1173.2
		L3225.5,1173.2z"/>
	<path class="st0" d="M-574.5,788.1l0.6-0.7c-0.1-0.1-0.1-0.1-0.2-0.2L-574.5,788.1z"/>
	<path class="st0" d="M3132,1067.2c-11.9-8.1-23.8-16.8-36.1-26.1c-130.7-99.3-211.3-196.7-284.2-282.6s-138.4-160.4-238.5-213.7
		c-32.2-17.2-65.7-30.1-101-38.7c-114.1-27.9-247.8-10.6-424.7,56.6c-22.7,8.7-45.7,19.4-69.8,30.5
		c-333.8,152.7-362.8,494.6-537.5,832.5c-293.9,568.8-566.4,723.6-815.1,662.7c-249.9-61.1-476.6-340.5-677-637.3
		c-200.5-296.7-374.8-611-520.9-741.7c0.1,0.1,0.2,0.2,0.2,0.2l-0.6,0.7l0.5-0.8l0,0c-1.6-2-16.6-21.3-44.5-52.1l-1.3,1.1
		c4.9,5.3,9.2,10.3,13.3,14.8c10.5,11.9,18.3,21.3,23.6,27.7c5.3,6.4,7.9,9.9,7.9,9.9l0.1,0.1l0.1,0.1
		c145.5,130.1,320,444.4,520.5,741.3s427.3,576.8,678.3,638.2c249.7,61.1,522.7-94.3,816.7-663.4
		c174.9-338.4,203.8-679.5,536.9-831.9c24-11,47-21.7,69.8-30.3c176.8-67.1,310.2-84.3,423.9-56.6c35.2,8.7,68.5,21.5,100.5,38.5
		c99.8,53.1,164.9,127.3,237.8,213.2c73,85.9,153.8,183.4,284.7,282.9c14.2,10.8,28.1,20.7,41.8,29.9L3132,1067.2L3132,1067.2z"/>
	<path class="st0" d="M-573.2,710l0.6-0.7c0,0-0.1-0.1-0.2-0.2l0,0L-573.2,710z"/>
	<path class="st0" d="M1963.5,539.1c24.2-10.4,47.5-20.1,70.1-28.5c176.1-64.7,301.3-78.1,404.8-52.7
		c42.7,10.5,81.7,27.5,119.1,50.3c155.1,94.5,244.5,260.4,463.7,433.4l-6.9-7.8C2800.9,763.2,2712,600.1,2557.9,506
		c-37.5-22.8-76.7-40-119.6-50.5c-103.9-25.4-229.3-11.9-405.5,52.8c-22.7,8.3-45.9,18.1-70.2,28.6
		c-340.6,144.6-353.5,480.5-512.5,853c-266.7,624.6-529.4,798.8-777,738.3c-253.8-62-492.6-371.5-704.1-697.9
		C-242.6,1104-426.5,761-571.4,631.3l0.1,0.1l-0.6,0.6l0.5-0.8l0.1,0.1c-0.5-0.5-2.6-3.5-6.8-8.7l-1.3,1.1c4.7,5.9,7,8.9,6.9,9
		l0.1,0.1l0.1,0.1c144.3,128.9,328.4,472.1,540,798.7C179.1,1758,418.1,2068.1,673,2130.4c248.7,60.9,511.9-114.3,778.7-739.2
		C1610.8,1018.3,1623.5,683.3,1963.5,539.1z"/>
	<path class="st0" d="M-571.9,632l0.6-0.6c0,0,0,0-0.1-0.1l-0.1-0.1L-571.9,632z"/>
	<path class="st0" d="M1629.1,818c60.5-150,146.2-266,319.2-334.9c214-85.1,352.3-103,459.6-76.8c114,28,193.3,105.8,292,206.8
		c57.6,58.9,121.7,125.9,203.1,195.3c-2-2.4-3.9-4.8-5.8-7.3c-78.2-67.3-140.5-132.1-196.5-189.6c-98.5-101-178.3-179.3-292.9-207.3
		c-107.9-26.4-246.3-8.2-460.4,76.8c-173.4,68.9-259.4,185.4-320,335.6c-60.5,150.2-95.7,334.1-167.7,537.9
		C1220,2034,966.8,2227.8,720.2,2167.4c-257-62.8-508-402.3-730.5-758.1c-205.7-328.9-386.8-671.9-526.6-823.1l-1.3,1.1
		c139.2,150.3,320.8,493.8,526.7,823.2c222.5,356,473.7,696,731.9,759.3c247.8,60.6,501.3-134.3,741.2-814.2
		C1533.4,1151.8,1568.5,968,1629.1,818z"/>
</g>
<g>
	<path class="st0" d="M1825,1595.3c-9.5-7.6-19.1-15.5-28.9-23.8c-133.3-113.4-176.2-218.6-178.6-314.4
		c-1.8-78.8,23.7-151.2,49.6-216c25.8-64.9,52-122.1,50.8-171.1c-0.7-29.4-11.4-55.8-38-78.5c-26.5-22.8-68.4-41.9-132-57.5
		c-43.6-10.6-97.5-19.6-163.2-26.7c-122.3-13.4-254.6,44.7-356.8,106.4c-102.3,61.6-174.5,126.9-176.1,128.1
		c-260.1,199.2-444.6,737-856.8,635.9c-29.9-7.3-60.9-18-93.3-32.4c-233.7-103.9-428.8-171-592.9-211.1
		c-408.2-99.9-625-32.8-770.3,52c-74,43-129.3,90.6-182.1,123c0.7,0.6,1.1,1.1,1.6,1.8c52.7-32.4,107.9-79.8,181.6-122.6
		c145.1-84.6,361.5-151.6,769.3-51.8c164,40.2,359,107.2,592.5,211.1c32.4,14.5,63.7,25.2,93.6,32.4
		c413.7,101.1,598.2-437.6,858-636.1c1.8-1.4,73.8-66.4,176-128c102.1-61.7,234.4-119.4,356-106.2c65.8,7.1,119.5,16.2,163,26.7
		c63.4,15.6,105.2,34.7,131.1,57s36.1,47.6,36.9,76.4c1.2,48.1-24.8,105.3-50.8,170.2c-26,64.9-51.7,137.5-49.8,217
		c2.3,96.6,45.9,203.1,179.6,316.7c9.4,8.1,18.8,15.8,28.1,23.3C1823.9,1595.9,1824.4,1595.6,1825,1595.3z"/>
	<path class="st0" d="M1866.2,1560.2c-19.4-13.8-39.1-28.9-59.5-45.6c-128.5-104.8-174.2-204.9-183.5-298.2
		c-0.9-8.4-1.2-16.8-1.5-25.1c-1.8-70,17.1-134.6,36.2-193.2c19-58.5,38.3-111,37.1-156.6c-0.8-32.1-11.7-61-39.9-85.9
		c-28.1-24.8-73.1-45.7-142-62.6c-39.5-9.6-86.9-18-143.4-25.1c-118.3-14.6-246.7,37.5-347.9,94.6c-50.5,28.6-94.4,58.3-126.7,81.7
		c-32.2,23.3-53.2,40.2-57.7,42.8c-23.5,13.4-43.3,34.7-64.4,54.8c-241.8,229-421.3,678.4-806.2,584.1c-17.9-4.3-36.2-9.8-55.1-16.7
		c-162.9-58.9-306.9-102.5-434.8-133.7c-449.6-110.1-700.4-68.3-869.5-6.6c-117.5,42.9-195.7,95.3-273.9,113.1
		c0.1,0.1,0.2,0.2,0.3,0.3c0.5,0.5,0.8,1.1,1.2,1.8c78.3-18.1,156.3-70.3,273.2-112.9c169-61.6,419.3-103.4,868.6,6.6
		c127.8,31.3,271.8,75,434.6,133.7c18.9,6.9,37.3,12.4,55.2,16.8c386.4,94.5,566-355.9,807.4-584.4c21.2-20.2,41-41.4,64.2-54.6
		c4.8-2.7,25.5-19.5,57.8-42.7c96.9-69.8,297.1-197.8,473.7-176c56.5,7,103.8,15.3,143.2,25c69,16.9,113.6,37.8,141.2,62.2
		c27.6,24.4,38,52.1,38.8,83.8c1.1,44.9-18,97.2-37.1,155.8c-19.1,58.6-37.9,123.4-36.2,194c0.1,8.3,0.7,16.7,1.5,25.3
		c9.2,94.1,55.7,195.2,184.6,300.2c20.1,16.3,39.8,31.4,58.9,45C1865.2,1561.1,1865.7,1560.6,1866.2,1560.2z"/>
	<path class="st0" d="M1907.2,1520.9c-28.7-17.6-58.7-38.4-90-62.8c-124.9-97.1-173.1-192.9-188.5-284.2c-3-17.5-4.4-34.7-4.9-51.6
		c-3-120.3,50.3-223.8,48.3-306.7c-0.9-35.4-11.9-67.2-41.8-94.5s-78.1-50.3-153.4-68.7c-34.7-8.5-75.5-16.1-122.6-22.7
		c-114.3-15.9-238.7,30.4-338.8,83c-100,52.5-176,111.4-193,120.6c-23.6,12.7-43.5,33.5-64.9,52.9
		c-127.9,115.7-234.9,287.6-359.3,418.6c-124.5,131-266.3,220.8-463.9,172.4c-4.4-1-8.8-2.2-13.2-3.4c-49.4-13.5-97-25.8-143.1-37
		c-1050.1-257.1-1240.6,38.4-1489.1-3.8c0.8,0.8,1.7,1.5,2.4,2.6c248.8,40.1,440.1-252.7,1486.7,3.5c46,11.2,93.6,23.6,143.1,37
		c4.4,1.2,8.8,2.4,13.2,3.4c198.3,48.5,340.6-41.7,465.2-172.8S631.2,1003.5,758.9,888c21.4-19.4,41.3-40.2,64.6-52.7
		c17.2-9.3,92.9-68,193-120.6c100-52.5,224.2-98.6,338-82.8c47.1,6.6,87.7,14.1,122.4,22.7c75.4,18.4,123.4,41.4,152.7,68.3
		c29.3,26.9,39.9,57.4,40.8,92.4c2.1,81.9-51.3,185.7-48.4,306.8c0.4,17,1.9,34.3,4.9,52c15.4,92.1,64.3,188.8,189.6,286
		c31,24.2,60.7,44.7,89.1,62.2C1906,1521.6,1906.6,1521.3,1907.2,1520.9z"/>
	<path class="st0" d="M1954.6,1480.1c-39.2-19.4-81.8-45.1-127.2-78.6c-121.1-89.5-172-180.7-193.4-270.3
		c-6.8-28.1-9.7-55.4-10.5-81.9c-2.4-98,28.3-184.3,26.6-256.5c-0.9-39.7-11.8-75.2-43.4-105.7c-31.5-30.5-83.6-56.1-166.9-76.4
		c-29.5-7.3-63-13.9-100.8-19.7c-220.6-34.4-481.4,162.1-531.3,188c-23.6,12.3-43.7,32.4-65.3,51C478,1057.7,315.9,1505.9-69,1438.1
		c-1090.7-191.7-1343,12.4-1602.6-51.3c-39.7-9.7-79.7-25.7-122.8-50.4c0.6,1,0.8,1.9,0.9,2.7c42.7,24.3,82.4,40.1,121.9,49.8
		c260.7,63.7,512.1-140.4,1602.7,51.2c386.4,67.8,548.4-381.3,812.5-608.3c21.8-18.6,41.7-38.7,65-51
		c50-26.2,310.6-222.3,530.4-187.9c37.9,5.9,71.3,12.4,100.6,19.7c83.2,20.4,134.9,45.9,166,75.9c31,30.1,41.5,64.5,42.5,103.7
		c1.8,71.5-29,157.9-26.6,256.5c0.6,26.5,3.7,54.2,10.5,82.4c21.6,90.3,73.1,182.3,194.5,271.9c45.1,33.3,87.2,58.8,126.2,78.2
		C1953.6,1481,1954.2,1480.5,1954.6,1480.1z"/>
	<path class="st0" d="M2005.8,1433.5c-49.8-17.4-105.9-45.5-167.8-88.8c-117.2-81.8-170.7-168.5-198.4-256.3
		c-13.2-41.7-18.1-81.6-19-119.6c-1.8-71.1,10.6-135.5,9.2-192.2c-1.1-45.5-11.1-86.4-44.5-121.4c-33.3-35-89.7-64.1-183.5-87
		c-23.6-5.7-49.5-11.1-78-16.1c-213-37.1-465,139.4-530.8,172.6c-23.5,11.9-43.8,31.3-65.8,49.2
		c-270.5,221.3-421.7,654.3-786.5,628.5c-946.8-66.8-1267.1,24.7-1520.2-37.2c-128.8-31.5-240.3-102.8-408.5-254.8c0,0-3-2.8-9-8.5
		c-40.1-39-209.8-210.1-399.6-491l-0.1,0.1l-1.2,1.1c217.8,322.2,409,500.1,409,500.1c168.3,152.1,280.3,223.7,409.5,255.3
		c253.7,62.1,573.7-29.5,1520.4,37.2c366.1,25.6,517.4-407.9,787.5-628.7c21.9-18,42.2-37.2,65.5-49.1
		c65.8-33.4,317.8-209.4,530-172.4c28.5,5,54.4,10.4,78,16.1c93.6,22.9,149.6,52,182.4,86.4c32.8,34.3,42.5,74.2,43.7,119.4
		c1.4,56.4-10.9,120.9-9.2,192.2c0.9,38.2,5.9,78.4,19.2,120.3c27.8,88.4,81.9,175.7,199.4,257.8c61.5,42.9,117.2,70.9,166.7,88.4
		C2004.7,1434.6,2005.2,1434,2005.8,1433.5z"/>
	<path class="st0" d="M2068.3,1379.6c-11.3-1.7-23.1-4.1-35.4-7c-53.3-13-115-38.8-184.6-84.4C1735,1213.9,1679,1132.1,1645,1046
		c-25.2-64-30.9-123.9-32.2-179.2c-0.8-29.8-0.2-58.2-0.9-85.2c-1.4-56.6-7.9-107.2-42.2-150.3s-95.8-78.5-207-105.7
		c-16.9-4.1-35-8.1-54.2-11.8c-205.3-39.9-448.6,117-530.2,157.1c-23.4,11.6-44,30.2-66.1,47.3C435.5,933,294.6,1351.7-49.6,1366.8
		c-787.6,34.9-1146.9,65.9-1401.3,3.6c-191.6-47-323.9-146.8-535.6-338.1l0,0c0,0-3.1-2.9-8.8-8.6
		c-37.5-37.3-190.2-193.3-373.4-437.3l-1.3,1.1c211.7,282,382.6,446.4,382.6,446.5l0,0l0,0c211.8,191.4,344.5,291.5,536.6,338.5
		c254.9,62.3,614.2,31.4,1401.8-3.5c345.4-15.4,486.1-434.8,762.4-649.1c22.1-17.3,42.8-35.7,65.9-47.2
		c81.8-40.3,325-196.8,529.4-157c19.2,3.8,37.3,7.7,54.2,11.8c110.9,27.1,172.2,62.5,205.7,104.8c33.7,42.4,40.2,92,41.6,148.6
		c0.6,26.9,0.2,55.4,0.8,85.1c1.4,55.4,7,115.6,32.4,180.2c34.1,86.6,90.8,169.2,204.5,243.7c69.7,45.6,131.6,71.6,185.1,84.6
		c11.3,2.8,22.4,4.9,32.9,6.7C2066.7,1380.7,2067.5,1380.1,2068.3,1379.6z"/>
	<path class="st0" d="M2151.4,1306.5c-36.9,6.1-82.2,6-135.6-6.9c-46.2-11.4-98.7-32.5-157-68c-109.5-66.8-168.1-144.1-208.4-228.4
		c-59.1-123.9-43.6-226.8-65.7-313.7c-11-43.5-31.6-83-75.6-118.6c-44-35.6-111.2-67.4-216-96c-2.7-0.8-5.4-1.5-8.1-2.1
		c-196.1-48-425.3,97.5-521.6,143.8c-23.3,11.1-44.2,28.8-66.5,45.3C414.1,870.3,283.6,1276.3-40,1331.2
		c-654.2,111.3-1017.7,128.3-1275.4,65.3c-268.2-65.7-421.9-218.1-670.1-442.3l0,0c-0.4-0.4-3.4-3.2-8.7-8.7
		c-34.9-35.5-170.6-176.1-343.7-386.6l-1.3,1.1c201.8,245.4,352.8,395.8,352.8,395.8l0,0l0,0c248.1,223.9,402.2,376.9,671,442.7
		c258.1,63.1,621.7,46,1276-65.4c324.4-55.2,455-461.7,737.3-669.4c22.3-16.5,43.2-34.2,66.2-45.3
		c96.5-46.3,325.6-191.5,520.7-143.7c2.7,0.6,5.4,1.3,8.1,2.1c104.6,28.6,171.6,60.4,215.2,95.7c65.3,52.9,78.1,113.6,85.8,184.9
		c7.6,71.2,10,152.9,54.7,246.4c40.4,84.8,99.6,162.5,209.4,229.6c58.5,35.7,111.1,57,157.7,68.4c51.8,12.7,95.9,13.1,132.3,7.7
		C2149.3,1308.5,2150.4,1307.5,2151.4,1306.5z"/>
	<path class="st0" d="M-1983.9,876.4C-1983.9,876.4-1983.9,876.3-1983.9,876.4l-0.5,0.8L-1983.9,876.4z"/>
	<path class="st0" d="M2196,1216.1c-44.9,19.7-110.2,33.2-195.7,12.3c-39.4-9.7-83-26.5-131-53.5
		c-105.5-59.4-166.8-131.8-213.3-214.3c-68.1-120.6-64.7-221.2-93.1-307.2c-14.2-43-36.6-82.4-79.8-118.3
		c-43.2-35.9-107.2-68.6-205-98.7c-5.9-1.8-11.7-3.4-17.6-4.8C1074.5,386,859.5,511,749,562.6c-23.2,10.9-44.3,27.8-67,43.5
		c-289,201.7-409.2,596.2-711.8,689.6c-562.4,173.7-914.6,198.5-1172.7,135.2c-333.6-81.6-510.3-310.2-781.1-554.5l0,0l0.1,0.1
		l-0.5,0.8l0.5-0.8c-0.5-0.5-3.4-3.4-8.5-8.9c-32.1-33.4-151-158.4-311-338.6l-0.1,0.1l-1.2,1.1
		c188.4,212.2,320.1,347.9,320.1,347.9l0.1,0.1l0,0c270.6,244.1,447.8,473.2,782,555c258.6,63.3,611,38.5,1173.5-135.3
		c303.5-93.8,423.7-488.6,712.3-689.8c22.6-15.8,43.6-32.7,66.7-43.4c110.5-51.8,325.5-176.3,510.7-130.9c5.8,1.4,11.7,3,17.6,4.8
		c97.7,29.9,161.4,62.6,204.4,98.3c64.2,53.5,81.5,113.7,95.7,183.9c14.2,70.1,25,149.8,76.5,240.9c46.8,83,108.6,155.7,214.4,215.4
		c48,27.1,91.9,44.1,131.5,53.8c86.3,21.1,152.2,7.3,197.3-12.7l-2-2.2L2196,1216.1z"/>
	<path class="st0" d="M2144.7,1158c-42,12.2-94.9,16.3-159,0.7c-32.4-7.9-67.8-20.9-106.1-40.6c-101.4-52.1-165.3-119.6-218.3-200.3
		c-77.1-117.4-85.8-215.9-120.7-301.1c-35-85.3-96.3-156.7-278.1-219.1c-9.2-3.2-18.5-5.9-27.9-8.2
		c-175.8-43-377.1,62.6-500.8,118.8c-23.2,10.5-44.5,26.6-67.4,41.6C371.4,745,261.7,1129.4-20.5,1260
		c-499.4,231.1-837.8,270.6-1094.7,207.7c-382-93.5-583.9-413.9-867.7-669.5l0,0l0.1,0.1l-0.5,0.8l0.5-0.8
		c-3-3.2-114.9-122.4-284.1-301.9l-1.4,1.2c61.1,64.8,114.9,121.9,158.6,168.4c39.6,42.1,71,75.5,92.6,98.5
		c21.6,23,33.1,35.3,33.2,35.4l0,0l0.1,0.1c283.3,255.1,485.7,576.3,868.5,669.9c257.4,63,596.1,23.2,1095.5-207.9
		c282.9-131,392.4-515.5,687.2-710c22.9-15.1,44.2-31.1,67.2-41.6c123.7-56.3,325-161.6,499.9-118.8c9.3,2.4,18.5,5,27.7,8.2
		c181.4,62.4,241.8,133.1,276.5,217.5c34.8,84.5,43.5,183.6,120.9,301.6c53.1,81,117.5,149,219.3,201.1
		c38.3,19.7,73.8,32.8,106.4,40.7c64.8,15.9,118.4,11.5,160.6-0.9l-1.5-1.7L2144.7,1158z"/>
	<path class="st0" d="M-1982.6,798.3L-1982.6,798.3l-0.5,0.8L-1982.6,798.3z"/>
	<path class="st0" d="M-1981.7,721.1l0.5-0.8l0,0l-0.1-0.1L-1981.7,721.1z"/>
	<path class="st0" d="M2091.5,1097.7c-34.4,5.1-74.1,4-119.2-7c-25.5-6.3-52.9-15.8-82-29.1c-97.3-45-163.9-107.4-223.3-186.4
		c-85.9-114.3-106.6-217.9-147.8-306c-41.2-88.1-103.4-160.1-271.6-210.3c-5.9-1.8-11.8-3.3-17.7-4.9
		c-170.7-41.8-368.5,37.3-510.4,100c-23.1,10.2-44.7,25.3-67.8,39.8c-301.5,188.2-399.7,564.1-662,730.4
		c-452.5,287.2-778,344.3-1033.1,281.8c-417.3-102.1-647.1-524.2-937.5-785.8l0,0l-0.5,0.8l0.4-0.9l0.1,0.1
		c-0.5-0.5-94.8-104.4-246.4-258.5l-1.4,1.2c45.9,46.7,86.7,88.8,121.1,124.8c39.8,41.5,71.2,75.2,92.7,98.2
		c10.7,11.6,19,20.5,24.6,26.5c5.5,6.1,8.4,9.2,8.4,9.2l0.1,0.1l0.1,0.1c290,260.9,520.2,684,938.6,786.4
		c255.8,62.6,581.5,5.2,1034.1-281.9c263-166.9,361.1-542.6,662-730.4c23-14.4,44.8-29.5,67.6-39.7c142-62.7,339.5-141.6,509.5-99.9
		c5.8,1.4,11.8,3,17.6,4.8c168,50.2,229.1,121.5,270.1,208.8c41,87.5,61.7,191.6,148.1,306.6c59.5,79.1,126.5,142.1,224.2,187
		c29.3,13.5,56.7,23,82.4,29.3c46,11.2,86.2,12.2,121,6.9L2091.5,1097.7L2091.5,1097.7z"/>
	<path class="st0" d="M-1980.5,643l0.6-0.7l0,0l-0.1-0.1L-1980.5,643z"/>
	<path class="st0" d="M2035.1,1033.7c-23.4-0.1-48.6-3.1-75.7-9.6c-18.7-4.6-38.3-10.9-58.9-19.2c-93.3-37.8-162.6-95.3-228.2-172.3
		c-94.9-111.3-127.5-213.4-175.2-300.9c-47.6-87.5-110.3-160.1-264.9-211.5c-9.9-3.3-19.9-6.2-29.9-8.6
		C1042,272.4,858.5,333.8,704.5,400c-23,10-45,24.2-68.2,37.9C328.5,619.3,242.5,987.4-0.7,1188.8
		c-414.4,343.1-728.3,419.1-981.8,357c-443.3-108.5-703.5-639.1-997.4-903.4l0,0l-0.6,0.7l0.4-0.9l0.1,0.1
		c-0.9-1.1-77.7-88.4-207-216.3l-1.4,1.2c30.3,29.9,57.8,57.7,81.9,82.6c40,41.1,71.4,74.6,92.7,97.8c10.7,11.6,18.9,20.6,24.3,26.8
		c5.5,6.1,8.3,9.4,8.4,9.3l0,0l0.1,0.1c293.4,263.6,553.9,795.1,998.4,904c254.2,62.2,568.3-14,982.9-357.2
		C244.1,988.9,330,620.8,637.4,440c23.4-13.6,45.1-28,68.1-37.8c153.9-66.1,337.3-127.4,496.9-88.2c10,2.4,19.9,5.2,29.7,8.6
		c154.3,51.4,216.2,123.2,263.6,210.2c47.3,87,80.1,189.5,175.4,301.4c65.9,77.2,135.6,135.1,229.2,173
		c20.6,8.3,40.3,14.7,59.1,19.4c27.9,6.8,53.8,9.7,77.6,9.8l-2.1-2.4L2035.1,1033.7z"/>
	<path class="st0" d="M-1979.2,565l0.6-0.7c0,0,0,0-0.1-0.1l-0.1-0.1L-1979.2,565z"/>
	<path class="st0" d="M1973.8,964.3c-8.8-1.4-17.6-3.3-26.8-5.5c-11.7-2.9-23.6-6.3-35.9-10.6c-89.2-30.9-161.2-83.1-233.2-158.3
		C1573.9,681.6,1529.4,581,1475.4,494c-54-87-117.4-160.2-258.4-212.4c-14.6-5.4-29.4-10-44.5-13.6
		c-149.3-36.6-318.8,9.6-482.8,77.9c-22.9,9.5-45.1,23-68.5,36C307,556.1,234,917.3,8.9,1153.1
		c-381.3,399.5-684.2,494.8-936.2,433.2c-463-113.2-756-756.8-1051.3-1022.1l0.1,0.1l-0.6,0.7l0.4-0.9l0.1,0.1
		c-2.1-2.4-61.9-72.6-166.5-175.2l-1.3,1.1c14.7,14.5,28.6,28.4,41.6,41.4c40.2,40.8,71.6,74.3,92.8,97.5
		c10.6,11.7,18.7,20.8,24.2,27c5.4,6.1,8.2,9.5,8.2,9.5l0.1,0.1l0.1,0.1c294.5,264.3,587.8,908.8,1052.3,1022.7
		c252.9,61.9,556.1-33.7,937.5-433.5c225.3-236.3,298.3-597.1,612-771c23.5-13,45.7-26.4,68.4-35.9
		c163.9-68.4,333.1-114.3,481.7-77.9c15,3.7,29.7,8.2,44.3,13.6c140.7,52.3,203.4,124.6,257.1,211.4
		c53.9,86.7,98.6,187.7,202.8,296.4c72.2,75.4,144.7,128,234.2,159c12.4,4.3,24.4,7.8,36.1,10.7c10,2.4,19.6,4.4,29.1,5.8
		L1973.8,964.3L1973.8,964.3z"/>
	<path class="st0" d="M1905.2,886.6c-78.5-25.3-148.6-70.7-222.1-139.3c-112.8-105.3-169.4-204.6-229.8-291.3
		c-60.3-86.5-124.4-160.2-251.8-213.1c-20.1-8.5-40.7-15.1-61.6-20.2c-137.6-33.7-293.7-0.3-465,69c-22.8,9.2-45.4,21.8-69,34.2
		C285.2,493.1,226.1,847.7,18.7,1117.5c-350.8,456-643.4,571.2-894.1,509.7c-239.3-58.5-440.9-277.6-619.7-515.2
		s-334.5-493.5-482.1-625.9l-0.6,0.7l0.4-0.9l0.1,0.1l0,0c0,0-44.2-53.8-125.5-134.6l-1.3,1.1c0.3,0.3,0.5,0.5,0.8,0.8
		c40.4,40.2,71.7,73.8,92.9,97.3c10.6,11.8,18.6,20.9,24,27.2c5.5,6.2,8.1,9.6,8.1,9.6l0.1,0.1l0.1,0.1
		c147.1,131.9,302.9,387.9,481.8,625.6c179,237.8,381,457.3,621,516.1c251.7,61.6,544.7-54,895.6-510.2
		c207.8-270.3,266.9-624.6,586.9-791.4c23.6-12.4,46.1-24.8,68.9-34.1c171.1-69.3,327.2-102.5,464.2-69
		c20.9,5.1,41.4,11.8,61.4,20.2c127,52.9,190.4,125.9,250.7,212.2c60.2,86.4,117,186.1,230.2,291.7
		c74.4,69.5,145.8,115.5,225.6,140.7l-2.7-3.1L1905.2,886.6z"/>
	<path class="st0" d="M-1977.8,487l0.6-0.7l-0.1-0.1L-1977.8,487z"/>
	<path class="st0" d="M1823.6,794.1c-44-21.6-88.4-50.2-135.1-89.4c-121.7-102.3-190.2-200.6-257-286.8
		c-66.7-86.1-131.4-160.3-245.2-213.6c-26.1-12.3-53.2-21.8-80.9-28.6c-125.6-30.7-269.7-7-445.2,61.9c-22.7,9-45.6,20.6-69.4,32.2
		C263.5,429.9,219.1,778.2,28.3,1082c-321.9,512.6-604.3,647.4-854,586.3c-245.2-60-459.5-309-649.1-576.3
		C-1664.4,825-1829.2,540-1976.1,408.1l-0.6,0.7l0.5-0.8c0.1,0.1,0.1,0.1,0.2,0.2l0,0c0,0-29.2-36.8-84.6-93.8l-1.3,1.1
		c21.7,22.4,39.5,41.8,53,56.9c10.6,11.8,18.4,21,23.7,27.4c5.3,6.4,8,9.7,8,9.7l0.1,0.1l0.1,0.1
		c146.5,131.1,311.3,416.2,501.1,683.5c189.7,267.3,404.2,517.1,650.3,577.3c250.7,61.4,533.5-74,855.6-587
		c191-304.3,235.3-651.9,561.8-811.6c23.9-11.7,46.7-23.3,69.3-32.2c175.5-68.8,319.3-92.5,444.4-61.9c27.8,6.8,54.5,16.3,80.6,28.4
		c113.3,53.1,177.6,126.8,244.2,212.9c66.7,86.1,135.4,184.7,257.5,287.2c48.2,40.5,93.8,69.7,139.3,91.5L1823.6,794.1L1823.6,794.1
		z"/>
	<path class="st0" d="M-1976.4,408.9l0.6-0.7c-0.1-0.1-0.1-0.1-0.2-0.2L-1976.4,408.9z"/>
	<path class="st0" d="M1730.1,688.1c-11.9-8.1-23.8-16.8-36.1-26.1c-130.7-99.3-211.3-196.7-284.2-282.6S1271.3,219,1171.2,165.8
		c-32.2-17.2-65.7-30.1-101-38.7c-114.1-27.9-247.8-10.6-424.7,56.6c-22.7,8.7-45.7,19.4-69.8,30.5
		C242,366.8,212.9,708.7,38.2,1046.6c-293.9,568.8-566.4,723.6-815.1,662.7c-249.9-61.1-476.6-340.5-677-637.3
		c-200.5-296.7-374.8-611-520.9-741.7c0.1,0.1,0.2,0.2,0.2,0.2l-0.6,0.7l0.5-0.8l0,0c-1.6-2-16.6-21.3-44.5-52.1l-1.3,1.1
		c4.9,5.3,9.2,10.3,13.3,14.8c10.5,11.9,18.3,21.3,23.6,27.7s7.9,9.9,7.9,9.9l0.1,0.1l0.1,0.1c145.5,130.1,320,444.4,520.5,741.3
		s427.3,576.8,678.3,638.2c249.7,61.1,522.7-94.3,816.7-663.4C215,710,243.9,368.9,577,216.4c24-11,47-21.7,69.8-30.3
		c176.8-67.1,310.2-84.3,423.9-56.6c35.2,8.7,68.5,21.5,100.5,38.5c99.8,53.1,164.9,127.3,237.8,213.2
		c73,85.9,153.8,183.4,284.7,282.9c14.2,10.8,28.1,20.7,41.8,29.9L1730.1,688.1L1730.1,688.1z"/>
	<path class="st0" d="M-1975.2,330.8l0.6-0.7c0,0-0.1-0.1-0.2-0.2l0,0L-1975.2,330.8z"/>
	<path class="st0" d="M561.6,160c24.2-10.4,47.5-20.1,70.1-28.5c176.1-64.7,301.3-78.1,404.8-52.7c42.7,10.5,81.7,27.5,119.1,50.3
		c155.1,94.5,244.5,260.4,463.7,433.4l-6.9-7.8c-213.3-170.4-302.2-333.6-456.3-427.6c-37.5-22.8-76.7-40-119.6-50.5
		C932.4,50.9,807,64.5,630.8,129.2c-22.7,8.3-45.9,18.1-70.2,28.6C220,302.4,207.2,638.3,48.1,1010.8
		c-266.7,624.6-529.4,798.8-777,738.3c-253.8-62-492.6-371.5-704.1-697.9c-211.5-326.2-395.3-669.3-540.3-799l0.1,0.1l-0.6,0.6
		l0.5-0.8l0.1,0.1c-0.5-0.5-2.6-3.5-6.8-8.7l-1.3,1.1c4.7,5.9,7,8.9,6.9,9l0.1,0.1l0.1,0.1c144.3,128.9,328.4,472.1,540,798.7
		c211.5,326.4,450.5,636.5,705.4,698.8c248.7,60.9,511.9-114.3,778.7-739.2C208.9,639.2,221.6,304.2,561.6,160z"/>
	<path class="st0" d="M-1973.8,252.9l0.6-0.6c0,0,0,0-0.1-0.1l-0.1-0.1L-1973.8,252.9z"/>
	<path class="st0" d="M227.1,438.8c60.5-150,146.2-266,319.2-334.9c214-85.1,352.3-103,459.6-76.8c114,28,193.3,105.8,292,206.8
		c57.6,58.9,121.7,125.9,203.1,195.3c-2-2.4-3.9-4.8-5.8-7.3c-78.2-67.3-140.5-132.1-196.5-189.6c-98.5-101-178.3-179.3-292.9-207.3
		C898-1.5,759.5,16.7,545.4,101.7C372,170.6,286,287.1,225.5,437.3c-60.5,150.2-95.7,334.1-167.7,537.9
		c-239.7,679.7-492.9,873.6-739.5,813.1c-257-62.8-508-402.3-730.5-758.1c-205.7-328.9-386.8-671.9-526.6-823.1l-1.3,1.1
		c139.2,150.3,320.8,493.8,526.7,823.2c222.5,356,473.7,696,731.9,759.3c247.8,60.6,501.3-134.3,741.2-814.2
		C131.5,772.7,166.6,588.8,227.1,438.8z"/>
</g>
</svg>
