<?xml version="1.0" encoding="utf-8"?>
<!-- Generator: Adobe Illustrator 22.0.1, SVG Export Plug-In . SVG Version: 6.00 Build 0)  -->
<svg version="1.1" id="Layer_1" xmlns="http://www.w3.org/2000/svg" xmlns:xlink="http://www.w3.org/1999/xlink" x="0px" y="0px"
	 viewBox="0 0 236 236" style="enable-background:new 0 0 236 236;" xml:space="preserve">
<style type="text/css">
	.st0{fill:url(#SVGID_1_);}
	.st1{fill:url(#SVGID_2_);}
	.st2{fill:url(#SVGID_3_);}
	.st3{fill:url(#SVGID_4_);}
	.st4{fill:url(#SVGID_5_);}
	.st5{fill:url(#SVGID_6_);}
	.st6{fill:url(#SVGID_7_);}
	.st7{fill:url(#SVGID_8_);}
	.st8{fill:url(#SVGID_9_);}
	.st9{fill:url(#SVGID_10_);}
	.st10{fill:url(#SVGID_11_);}
	.st11{fill:url(#SVGID_12_);}
	.st12{fill:url(#SVGID_13_);}
	.st13{fill:url(#SVGID_14_);}
	.st14{fill:url(#SVGID_15_);}
	.st15{fill:url(#SVGID_16_);}
	.st16{fill:url(#SVGID_17_);}
	.st17{fill:url(#SVGID_18_);}
	.st18{fill:url(#SVGID_19_);}
	.st19{fill:url(#SVGID_20_);}
	.st20{fill:url(#SVGID_21_);}
	.st21{fill:url(#SVGID_22_);}
	.st22{fill:url(#SVGID_23_);}
	.st23{fill:url(#SVGID_24_);}
	.st24{clip-path:url(#SVGID_26_);}
	.st25{fill:none;stroke:url(#SVGID_27_);stroke-width:2;stroke-miterlimit:10;}
	.st26{fill:none;stroke:url(#SVGID_28_);stroke-width:2;stroke-miterlimit:10;}
	.st27{fill:none;stroke:url(#SVGID_29_);stroke-width:2;stroke-miterlimit:10;}
	.st28{fill:none;stroke:url(#SVGID_30_);stroke-width:2;stroke-miterlimit:10;}
	.st29{fill:none;stroke:url(#SVGID_31_);stroke-width:2;stroke-miterlimit:10;}
	.st30{fill:none;stroke:url(#SVGID_32_);stroke-width:2;stroke-miterlimit:10;}
	.st31{fill:none;stroke:url(#SVGID_33_);stroke-width:2;stroke-miterlimit:10;}
	.st32{fill:none;stroke:url(#SVGID_34_);stroke-width:2;stroke-miterlimit:10;}
	.st33{fill:none;stroke:url(#SVGID_35_);stroke-width:2;stroke-miterlimit:10;}
	.st34{fill:none;stroke:url(#SVGID_36_);stroke-width:2;stroke-miterlimit:10;}
	.st35{fill:none;stroke:url(#SVGID_37_);stroke-width:2;stroke-miterlimit:10;}
	.st36{fill:none;stroke:url(#SVGID_38_);stroke-width:2;stroke-miterlimit:10;}
	.st37{fill:none;stroke:url(#SVGID_39_);stroke-width:2;stroke-miterlimit:10;}
	.st38{fill:none;stroke:url(#SVGID_40_);stroke-width:2;stroke-miterlimit:10;}
	.st39{fill:none;stroke:url(#SVGID_41_);stroke-width:2;stroke-miterlimit:10;}
	.st40{fill:none;stroke:url(#SVGID_42_);stroke-width:2;stroke-miterlimit:10;}
	.st41{fill:none;stroke:url(#SVGID_43_);stroke-width:2;stroke-miterlimit:10;}
	.st42{fill:none;stroke:url(#SVGID_44_);stroke-width:2;stroke-miterlimit:10;}
	.st43{fill:none;stroke:url(#SVGID_45_);stroke-width:2;stroke-miterlimit:10;}
	.st44{fill:none;stroke:url(#SVGID_46_);stroke-width:2;stroke-miterlimit:10;}
	.st45{fill:none;stroke:url(#SVGID_47_);stroke-width:2;stroke-miterlimit:10;}
	.st46{fill:none;stroke:url(#SVGID_48_);stroke-width:2;stroke-miterlimit:10;}
	.st47{fill:none;stroke:url(#SVGID_49_);stroke-width:2;stroke-miterlimit:10;}
	.st48{fill:none;stroke:url(#SVGID_50_);stroke-width:2;stroke-miterlimit:10;}
	.st49{fill:none;stroke:url(#SVGID_51_);stroke-width:2;stroke-miterlimit:10;}
	.st50{fill:none;stroke:url(#SVGID_52_);stroke-width:2;stroke-miterlimit:10;}
	.st51{fill:none;stroke:url(#SVGID_53_);stroke-width:2;stroke-miterlimit:10;}
	.st52{fill:none;stroke:url(#SVGID_54_);stroke-width:2;stroke-miterlimit:10;}
	.st53{fill:none;stroke:url(#SVGID_55_);stroke-width:2;stroke-miterlimit:10;}
	.st54{fill:none;stroke:url(#SVGID_56_);stroke-width:2;stroke-miterlimit:10;}
	.st55{fill:none;stroke:url(#SVGID_57_);stroke-width:2;stroke-miterlimit:10;}
	.st56{fill:none;stroke:url(#SVGID_58_);stroke-width:2;stroke-miterlimit:10;}
	.st57{fill:none;stroke:url(#SVGID_59_);stroke-width:2;stroke-miterlimit:10;}
	.st58{fill:none;stroke:url(#SVGID_60_);stroke-width:2;stroke-miterlimit:10;}
	.st59{fill:none;stroke:url(#SVGID_61_);stroke-width:2;stroke-miterlimit:10;}
	.st60{fill:none;stroke:url(#SVGID_62_);stroke-width:2;stroke-miterlimit:10;}
	.st61{fill:none;stroke:url(#SVGID_63_);stroke-width:2;stroke-miterlimit:10;}
	.st62{fill:none;stroke:url(#SVGID_64_);stroke-width:2;stroke-miterlimit:10;}
	.st63{fill:none;stroke:url(#SVGID_65_);stroke-width:2;stroke-miterlimit:10;}
	.st64{fill:none;stroke:url(#SVGID_66_);stroke-width:2;stroke-miterlimit:10;}
	.st65{fill:none;stroke:url(#SVGID_67_);stroke-width:2;stroke-miterlimit:10;}
	.st66{fill:none;stroke:url(#SVGID_68_);stroke-width:2;stroke-miterlimit:10;}
	.st67{fill:none;stroke:url(#SVGID_69_);stroke-width:2;stroke-miterlimit:10;}
	.st68{fill:none;stroke:url(#SVGID_70_);stroke-width:2;stroke-miterlimit:10;}
	.st69{fill:none;stroke:url(#SVGID_71_);stroke-width:2;stroke-miterlimit:10;}
	.st70{fill:none;stroke:url(#SVGID_72_);stroke-width:2;stroke-miterlimit:10;}
	.st71{fill:none;stroke:url(#SVGID_73_);stroke-width:2;stroke-miterlimit:10;}
	.st72{fill:none;stroke:url(#SVGID_74_);stroke-width:2;stroke-miterlimit:10;}
	.st73{fill:none;stroke:url(#SVGID_75_);stroke-width:2;stroke-miterlimit:10;}
	.st74{fill:none;stroke:url(#SVGID_76_);stroke-width:2;stroke-miterlimit:10;}
	.st75{fill:none;stroke:url(#SVGID_77_);stroke-width:2;stroke-miterlimit:10;}
	.st76{fill:none;stroke:url(#SVGID_78_);stroke-width:2;stroke-miterlimit:10;}
	.st77{fill:none;stroke:url(#SVGID_79_);stroke-width:2;stroke-miterlimit:10;}
	.st78{fill:none;stroke:url(#SVGID_80_);stroke-width:2;stroke-miterlimit:10;}
	.st79{fill:none;stroke:url(#SVGID_81_);stroke-width:2;stroke-miterlimit:10;}
	.st80{fill:none;stroke:url(#SVGID_82_);stroke-width:2;stroke-miterlimit:10;}
	.st81{fill:none;stroke:url(#SVGID_83_);stroke-width:2;stroke-miterlimit:10;}
	.st82{fill:none;stroke:url(#SVGID_84_);stroke-width:2;stroke-miterlimit:10;}
	.st83{fill:none;stroke:url(#SVGID_85_);stroke-width:2;stroke-miterlimit:10;}
	.st84{fill:none;stroke:url(#SVGID_86_);stroke-width:2;stroke-miterlimit:10;}
	.st85{fill:none;stroke:url(#SVGID_87_);stroke-width:2;stroke-miterlimit:10;}
	.st86{fill:none;stroke:url(#SVGID_88_);stroke-width:2;stroke-miterlimit:10;}
	.st87{fill:none;stroke:url(#SVGID_89_);stroke-width:2;stroke-miterlimit:10;}
	.st88{fill:none;stroke:url(#SVGID_90_);stroke-width:2;stroke-miterlimit:10;}
	.st89{fill:none;stroke:url(#SVGID_91_);stroke-width:2;stroke-miterlimit:10;}
	.st90{fill:none;stroke:url(#SVGID_92_);stroke-width:2;stroke-miterlimit:10;}
	.st91{fill:none;stroke:url(#SVGID_93_);stroke-width:2;stroke-miterlimit:10;}
	.st92{fill:none;stroke:url(#SVGID_94_);stroke-width:2;stroke-miterlimit:10;}
	.st93{fill:none;stroke:url(#SVGID_95_);stroke-width:2;stroke-miterlimit:10;}
	.st94{fill:none;stroke:url(#SVGID_96_);stroke-width:2;stroke-miterlimit:10;}
	.st95{fill:none;stroke:url(#SVGID_97_);stroke-width:2;stroke-miterlimit:10;}
	.st96{fill:none;stroke:url(#SVGID_98_);stroke-width:2;stroke-miterlimit:10;}
</style>
<g>
	<linearGradient id="SVGID_1_" gradientUnits="userSpaceOnUse" x1="1911.0729" y1="340.2769" x2="1993.6331" y2="422.8371">
		<stop  offset="0" style="stop-color:#F9C967"/>
		<stop  offset="1" style="stop-color:#9E57EC"/>
	</linearGradient>
	<path class="st0" d="M1986.6,425.8h-68.4c-5.5,0-10-4.5-10-10v-68.4c0-5.5,4.5-10,10-10h68.4c5.5,0,10,4.5,10,10v68.4
		C1996.6,421.3,1992.1,425.8,1986.6,425.8z"/>
	<linearGradient id="SVGID_2_" gradientUnits="userSpaceOnUse" x1="1791.3079" y1="340.2769" x2="1873.868" y2="422.8371">
		<stop  offset="0" style="stop-color:#EFE56D"/>
		<stop  offset="1" style="stop-color:#13B5BB"/>
	</linearGradient>
	<path class="st1" d="M1866.8,425.8h-68.4c-5.5,0-10-4.5-10-10v-68.4c0-5.5,4.5-10,10-10h68.4c5.5,0,10,4.5,10,10v68.4
		C1876.8,421.3,1872.3,425.8,1866.8,425.8z"/>
	<linearGradient id="SVGID_3_" gradientUnits="userSpaceOnUse" x1="1676.3079" y1="340.2769" x2="1758.868" y2="422.8371">
		<stop  offset="0" style="stop-color:#6166D9"/>
		<stop  offset="1" style="stop-color:#C48CE0"/>
	</linearGradient>
	<path class="st2" d="M1751.8,425.8h-68.4c-5.5,0-10-4.5-10-10v-68.4c0-5.5,4.5-10,10-10h68.4c5.5,0,10,4.5,10,10v68.4
		C1761.8,421.3,1757.3,425.8,1751.8,425.8z"/>
	<linearGradient id="SVGID_4_" gradientUnits="userSpaceOnUse" x1="1791.3079" y1="455.268" x2="1873.868" y2="537.8282">
		<stop  offset="0" style="stop-color:#FFC62E"/>
		<stop  offset="1" style="stop-color:#FF175E"/>
	</linearGradient>
	<path class="st3" d="M1866.8,540.8h-68.4c-5.5,0-10-4.5-10-10v-68.4c0-5.5,4.5-10,10-10h68.4c5.5,0,10,4.5,10,10v68.4
		C1876.8,536.3,1872.3,540.8,1866.8,540.8z"/>
	<linearGradient id="SVGID_5_" gradientUnits="userSpaceOnUse" x1="1675.6381" y1="570.4616" x2="1758.1982" y2="653.0219">
		<stop  offset="0" style="stop-color:#FF0B64"/>
		<stop  offset="1" style="stop-color:#FD6C3B"/>
	</linearGradient>
	<path class="st4" d="M1751.1,656h-68.4c-5.5,0-10-4.5-10-10v-68.4c0-5.5,4.5-10,10-10h68.4c5.5,0,10,4.5,10,10V646
		C1761.1,651.5,1756.7,656,1751.1,656z"/>
	<linearGradient id="SVGID_6_" gradientUnits="userSpaceOnUse" x1="1335.8016" y1="685.6508" x2="1418.3619" y2="768.211">
		<stop  offset="0" style="stop-color:#0CEBC3"/>
		<stop  offset="1" style="stop-color:#B810DF"/>
	</linearGradient>
	<path class="st5" d="M1411.3,771.1h-68.4c-5.5,0-10-4.5-10-10v-68.4c0-5.5,4.5-10,10-10h68.4c5.5,0,10,4.5,10,10v68.4
		C1421.3,766.7,1416.8,771.1,1411.3,771.1z"/>
	<linearGradient id="SVGID_7_" gradientUnits="userSpaceOnUse" x1="1447.9683" y1="685.6552" x2="1530.5286" y2="768.2155">
		<stop  offset="0" style="stop-color:#6AF70D"/>
		<stop  offset="1" style="stop-color:#0867EE"/>
	</linearGradient>
	<path class="st6" d="M1523.5,771.1H1455c-5.5,0-10-4.5-10-10v-68.4c0-5.5,4.5-10,10-10h68.4c5.5,0,10,4.5,10,10v68.4
		C1533.5,766.7,1529,771.1,1523.5,771.1z"/>
	<linearGradient id="SVGID_8_" gradientUnits="userSpaceOnUse" x1="1559.9683" y1="685.6552" x2="1642.5286" y2="768.2155">
		<stop  offset="0" style="stop-color:#45F162"/>
		<stop  offset="1" style="stop-color:#11E9DE"/>
	</linearGradient>
	<path class="st7" d="M1635.5,771.1H1567c-5.5,0-10-4.5-10-10v-68.4c0-5.5,4.5-10,10-10h68.4c5.5,0,10,4.5,10,10v68.4
		C1645.5,766.7,1641,771.1,1635.5,771.1z"/>
	<linearGradient id="SVGID_9_" gradientUnits="userSpaceOnUse" x1="1676.3079" y1="685.768" x2="1758.868" y2="768.3282">
		<stop  offset="0" style="stop-color:#F39EEA"/>
		<stop  offset="1" style="stop-color:#9B55B3"/>
	</linearGradient>
	<path class="st8" d="M1751.8,771.3h-68.4c-5.5,0-10-4.5-10-10v-68.4c0-5.5,4.5-10,10-10h68.4c5.5,0,10,4.5,10,10v68.4
		C1761.8,766.8,1757.3,771.3,1751.8,771.3z"/>
	<linearGradient id="SVGID_10_" gradientUnits="userSpaceOnUse" x1="1791.6901" y1="685.768" x2="1874.2504" y2="768.3282">
		<stop  offset="0" style="stop-color:#6083E9"/>
		<stop  offset="1" style="stop-color:#7B50B4"/>
	</linearGradient>
	<path class="st9" d="M1867.2,771.3h-68.4c-5.5,0-10-4.5-10-10v-68.4c0-5.5,4.5-10,10-10h68.4c5.5,0,10,4.5,10,10v68.4
		C1877.2,766.8,1872.7,771.3,1867.2,771.3z"/>
	<linearGradient id="SVGID_11_" gradientUnits="userSpaceOnUse" x1="1911.0729" y1="685.6552" x2="1993.6331" y2="768.2154">
		<stop  offset="0" style="stop-color:#E94D96"/>
		<stop  offset="1" style="stop-color:#CC73DE"/>
	</linearGradient>
	<path class="st10" d="M1986.6,771.1h-68.4c-5.5,0-10-4.5-10-10v-68.4c0-5.5,4.5-10,10-10h68.4c5.5,0,10,4.5,10,10v68.4
		C1996.6,766.7,1992.1,771.1,1986.6,771.1z"/>
	<linearGradient id="SVGID_12_" gradientUnits="userSpaceOnUse" x1="1335.8016" y1="570.4616" x2="1418.3619" y2="653.0219">
		<stop  offset="0" style="stop-color:#F01DBF"/>
		<stop  offset="1" style="stop-color:#FEB568"/>
	</linearGradient>
	<path class="st11" d="M1411.3,656h-68.4c-5.5,0-10-4.5-10-10v-68.4c0-5.5,4.5-10,10-10h68.4c5.5,0,10,4.5,10,10V646
		C1421.3,651.5,1416.8,656,1411.3,656z"/>
	<linearGradient id="SVGID_13_" gradientUnits="userSpaceOnUse" x1="1447.9683" y1="570.4616" x2="1530.5286" y2="653.0219">
		<stop  offset="0" style="stop-color:#80DBF7"/>
		<stop  offset="1" style="stop-color:#F53966"/>
	</linearGradient>
	<path class="st12" d="M1523.5,656H1455c-5.5,0-10-4.5-10-10v-68.4c0-5.5,4.5-10,10-10h68.4c5.5,0,10,4.5,10,10V646
		C1533.5,651.5,1529,656,1523.5,656z"/>
	<linearGradient id="SVGID_14_" gradientUnits="userSpaceOnUse" x1="1559.9683" y1="570.4616" x2="1642.5286" y2="653.0219">
		<stop  offset="0" style="stop-color:#67EED7"/>
		<stop  offset="1" style="stop-color:#1D77A4"/>
	</linearGradient>
	<path class="st13" d="M1635.5,656H1567c-5.5,0-10-4.5-10-10v-68.4c0-5.5,4.5-10,10-10h68.4c5.5,0,10,4.5,10,10V646
		C1645.5,651.5,1641,656,1635.5,656z"/>
	<linearGradient id="SVGID_15_" gradientUnits="userSpaceOnUse" x1="1791.3079" y1="570.268" x2="1873.868" y2="652.8282">
		<stop  offset="0" style="stop-color:#FD7D47"/>
		<stop  offset="1" style="stop-color:#FF5099"/>
	</linearGradient>
	<path class="st14" d="M1866.8,655.8h-68.4c-5.5,0-10-4.5-10-10v-68.4c0-5.5,4.5-10,10-10h68.4c5.5,0,10,4.5,10,10v68.4
		C1876.8,651.3,1872.3,655.8,1866.8,655.8z"/>
	<linearGradient id="SVGID_16_" gradientUnits="userSpaceOnUse" x1="1911.0729" y1="570.4616" x2="1993.6331" y2="653.0218">
		<stop  offset="0" style="stop-color:#FEB27F"/>
		<stop  offset="1" style="stop-color:#FF5C47"/>
	</linearGradient>
	<path class="st15" d="M1986.6,656h-68.4c-5.5,0-10-4.5-10-10v-68.4c0-5.5,4.5-10,10-10h68.4c5.5,0,10,4.5,10,10V646
		C1996.6,651.5,1992.1,656,1986.6,656z"/>
	<linearGradient id="SVGID_17_" gradientUnits="userSpaceOnUse" x1="1335.8016" y1="455.2725" x2="1418.3619" y2="537.8327">
		<stop  offset="0" style="stop-color:#FFD02B"/>
		<stop  offset="1" style="stop-color:#FD8A3F"/>
	</linearGradient>
	<path class="st16" d="M1411.3,540.8h-68.4c-5.5,0-10-4.5-10-10v-68.4c0-5.5,4.5-10,10-10h68.4c5.5,0,10,4.5,10,10v68.4
		C1421.3,536.3,1416.8,540.8,1411.3,540.8z"/>
	<linearGradient id="SVGID_18_" gradientUnits="userSpaceOnUse" x1="1447.885" y1="455.268" x2="1530.4452" y2="537.8282">
		<stop  offset="0" style="stop-color:#C74A7D"/>
		<stop  offset="1" style="stop-color:#F9B6B2"/>
	</linearGradient>
	<path class="st17" d="M1523.4,540.8H1455c-5.5,0-10-4.5-10-10v-68.4c0-5.5,4.5-10,10-10h68.4c5.5,0,10,4.5,10,10v68.4
		C1533.4,536.3,1528.9,540.8,1523.4,540.8z"/>
	<linearGradient id="SVGID_19_" gradientUnits="userSpaceOnUse" x1="1559.9683" y1="455.2725" x2="1642.5286" y2="537.8327">
		<stop  offset="0" style="stop-color:#09DEF8"/>
		<stop  offset="1" style="stop-color:#674BEF"/>
	</linearGradient>
	<path class="st18" d="M1635.5,540.8H1567c-5.5,0-10-4.5-10-10v-68.4c0-5.5,4.5-10,10-10h68.4c5.5,0,10,4.5,10,10v68.4
		C1645.5,536.3,1641,540.8,1635.5,540.8z"/>
	<linearGradient id="SVGID_20_" gradientUnits="userSpaceOnUse" x1="1676.3079" y1="455.268" x2="1758.868" y2="537.8282">
		<stop  offset="0" style="stop-color:#F097C8"/>
		<stop  offset="1" style="stop-color:#4AE849"/>
	</linearGradient>
	<path class="st19" d="M1751.8,540.8h-68.4c-5.5,0-10-4.5-10-10v-68.4c0-5.5,4.5-10,10-10h68.4c5.5,0,10,4.5,10,10v68.4
		C1761.8,536.3,1757.3,540.8,1751.8,540.8z"/>
	<linearGradient id="SVGID_21_" gradientUnits="userSpaceOnUse" x1="1911.0729" y1="455.268" x2="1993.6331" y2="537.8282">
		<stop  offset="0" style="stop-color:#F9285B"/>
		<stop  offset="1" style="stop-color:#D5A7E4"/>
	</linearGradient>
	<path class="st20" d="M1986.6,540.8h-68.4c-5.5,0-10-4.5-10-10v-68.4c0-5.5,4.5-10,10-10h68.4c5.5,0,10,4.5,10,10v68.4
		C1996.6,536.3,1992.1,540.8,1986.6,540.8z"/>
	<linearGradient id="SVGID_22_" gradientUnits="userSpaceOnUse" x1="1335.8016" y1="340.2769" x2="1418.3618" y2="422.8371">
		<stop  offset="0" style="stop-color:#012895"/>
		<stop  offset="1" style="stop-color:#18ADC3"/>
	</linearGradient>
	<path class="st21" d="M1411.3,425.8h-68.4c-5.5,0-10-4.5-10-10v-68.4c0-5.5,4.5-10,10-10h68.4c5.5,0,10,4.5,10,10v68.4
		C1421.3,421.3,1416.8,425.8,1411.3,425.8z"/>
	<linearGradient id="SVGID_23_" gradientUnits="userSpaceOnUse" x1="1447.9683" y1="340.2769" x2="1530.5286" y2="422.8371">
		<stop  offset="0" style="stop-color:#F75872"/>
		<stop  offset="1" style="stop-color:#FFD692"/>
	</linearGradient>
	<path class="st22" d="M1523.5,425.8H1455c-5.5,0-10-4.5-10-10v-68.4c0-5.5,4.5-10,10-10h68.4c5.5,0,10,4.5,10,10v68.4
		C1533.5,421.3,1529,425.8,1523.5,425.8z"/>
	<linearGradient id="SVGID_24_" gradientUnits="userSpaceOnUse" x1="1559.9683" y1="340.2769" x2="1642.5286" y2="422.8371">
		<stop  offset="0" style="stop-color:#390796"/>
		<stop  offset="1" style="stop-color:#D95C9B"/>
	</linearGradient>
	<path class="st23" d="M1635.5,425.8H1567c-5.5,0-10-4.5-10-10v-68.4c0-5.5,4.5-10,10-10h68.4c5.5,0,10,4.5,10,10v68.4
		C1645.5,421.3,1641,425.8,1635.5,425.8z"/>
</g>
<g>
	<defs>
		<rect id="SVGID_25_" x="-357" y="-357" width="1200" height="1200"/>
	</defs>
	<clipPath id="SVGID_26_">
		<use xlink:href="#SVGID_25_"  style="overflow:visible;"/>
	</clipPath>
	<g class="st24">
		
			<linearGradient id="SVGID_27_" gradientUnits="userSpaceOnUse" x1="1098.3099" y1="327.9091" x2="-469.695" y2="-66.0599" gradientTransform="matrix(0.9807 -0.1956 0.1956 0.9807 -60.9437 -5.2062)">
			<stop  offset="0" style="stop-color:#390796"/>
			<stop  offset="1" style="stop-color:#D95C9B"/>
		</linearGradient>
		<path class="st25" d="M-553.3,423.3c0,0,161-474.7,635.8-418.4s494.9,229.7,717.5,67s299.2-371.7,299.2-371.7"/>
		
			<linearGradient id="SVGID_28_" gradientUnits="userSpaceOnUse" x1="1098.3099" y1="330.8276" x2="-469.695" y2="-63.1414" gradientTransform="matrix(0.9807 -0.1956 0.1956 0.9807 -60.9437 -5.2062)">
			<stop  offset="0" style="stop-color:#390796"/>
			<stop  offset="1" style="stop-color:#D95C9B"/>
		</linearGradient>
		<path class="st26" d="M-552.8,426.2c0,0,161-474.7,635.8-418.4s494.9,229.7,717.5,67S1099.7-297,1099.7-297"/>
		
			<linearGradient id="SVGID_29_" gradientUnits="userSpaceOnUse" x1="1098.3099" y1="333.7462" x2="-469.695" y2="-60.2228" gradientTransform="matrix(0.9807 -0.1956 0.1956 0.9807 -60.9437 -5.2062)">
			<stop  offset="0" style="stop-color:#390796"/>
			<stop  offset="1" style="stop-color:#D95C9B"/>
		</linearGradient>
		<path class="st27" d="M-552.2,429c0,0,161-474.7,635.8-418.4s494.9,229.7,717.5,67s299.2-371.7,299.2-371.7"/>
		
			<linearGradient id="SVGID_30_" gradientUnits="userSpaceOnUse" x1="1098.3099" y1="336.6648" x2="-469.695" y2="-57.3042" gradientTransform="matrix(0.9807 -0.1956 0.1956 0.9807 -60.9437 -5.2062)">
			<stop  offset="0" style="stop-color:#390796"/>
			<stop  offset="1" style="stop-color:#D95C9B"/>
		</linearGradient>
		<path class="st28" d="M-551.6,431.9c0,0,161-474.7,635.8-418.4s494.9,229.7,717.5,67s299.2-371.7,299.2-371.7"/>
		
			<linearGradient id="SVGID_31_" gradientUnits="userSpaceOnUse" x1="1098.3099" y1="339.5834" x2="-469.695" y2="-54.3856" gradientTransform="matrix(0.9807 -0.1956 0.1956 0.9807 -60.9437 -5.2062)">
			<stop  offset="0" style="stop-color:#390796"/>
			<stop  offset="1" style="stop-color:#D95C9B"/>
		</linearGradient>
		<path class="st29" d="M-551.1,434.7c0,0,161-474.7,635.8-418.4s494.9,229.7,717.5,67s299.2-371.7,299.2-371.7"/>
		
			<linearGradient id="SVGID_32_" gradientUnits="userSpaceOnUse" x1="1098.3099" y1="342.502" x2="-469.695" y2="-51.467" gradientTransform="matrix(0.9807 -0.1956 0.1956 0.9807 -60.9437 -5.2062)">
			<stop  offset="0" style="stop-color:#390796"/>
			<stop  offset="1" style="stop-color:#D95C9B"/>
		</linearGradient>
		<path class="st30" d="M-550.5,437.6c0,0,161-474.7,635.8-418.4s494.9,229.7,717.5,67S1102-285.5,1102-285.5"/>
		
			<linearGradient id="SVGID_33_" gradientUnits="userSpaceOnUse" x1="1098.3099" y1="345.4205" x2="-469.695" y2="-48.5485" gradientTransform="matrix(0.9807 -0.1956 0.1956 0.9807 -60.9437 -5.2062)">
			<stop  offset="0" style="stop-color:#390796"/>
			<stop  offset="1" style="stop-color:#D95C9B"/>
		</linearGradient>
		<path class="st31" d="M-549.9,440.5c0,0,161-474.7,635.8-418.4s494.9,229.7,717.5,67s299.2-371.7,299.2-371.7"/>
		
			<linearGradient id="SVGID_34_" gradientUnits="userSpaceOnUse" x1="1098.3099" y1="348.3391" x2="-469.695" y2="-45.6299" gradientTransform="matrix(0.9807 -0.1956 0.1956 0.9807 -60.9437 -5.2062)">
			<stop  offset="0" style="stop-color:#390796"/>
			<stop  offset="1" style="stop-color:#D95C9B"/>
		</linearGradient>
		<path class="st32" d="M-549.4,443.3c0,0,161-474.7,635.8-418.4s494.9,229.7,717.5,67s299.2-371.7,299.2-371.7"/>
		
			<linearGradient id="SVGID_35_" gradientUnits="userSpaceOnUse" x1="1098.3099" y1="351.2577" x2="-469.695" y2="-42.7113" gradientTransform="matrix(0.9807 -0.1956 0.1956 0.9807 -60.9437 -5.2062)">
			<stop  offset="0" style="stop-color:#390796"/>
			<stop  offset="1" style="stop-color:#D95C9B"/>
		</linearGradient>
		<path class="st33" d="M-548.8,446.2c0,0,161-474.7,635.8-418.4s494.9,229.7,717.5,67s299.2-371.7,299.2-371.7"/>
		
			<linearGradient id="SVGID_36_" gradientUnits="userSpaceOnUse" x1="1098.3099" y1="354.1763" x2="-469.695" y2="-39.7927" gradientTransform="matrix(0.9807 -0.1956 0.1956 0.9807 -60.9437 -5.2062)">
			<stop  offset="0" style="stop-color:#390796"/>
			<stop  offset="1" style="stop-color:#D95C9B"/>
		</linearGradient>
		<path class="st34" d="M-548.2,449.1c0,0,161-474.7,635.8-418.4s494.9,229.7,717.5,67s299.2-371.7,299.2-371.7"/>
		
			<linearGradient id="SVGID_37_" gradientUnits="userSpaceOnUse" x1="1098.3099" y1="357.0949" x2="-469.695" y2="-36.8741" gradientTransform="matrix(0.9807 -0.1956 0.1956 0.9807 -60.9437 -5.2062)">
			<stop  offset="0" style="stop-color:#390796"/>
			<stop  offset="1" style="stop-color:#D95C9B"/>
		</linearGradient>
		<path class="st35" d="M-547.6,451.9c0,0,161-474.7,635.8-418.4s494.9,229.7,717.5,67s299.2-371.7,299.2-371.7"/>
		
			<linearGradient id="SVGID_38_" gradientUnits="userSpaceOnUse" x1="1098.3099" y1="360.0135" x2="-469.695" y2="-33.9555" gradientTransform="matrix(0.9807 -0.1956 0.1956 0.9807 -60.9437 -5.2062)">
			<stop  offset="0" style="stop-color:#390796"/>
			<stop  offset="1" style="stop-color:#D95C9B"/>
		</linearGradient>
		<path class="st36" d="M-547.1,454.8c0,0,161-474.7,635.8-418.4s494.9,229.7,717.5,67s299.2-371.7,299.2-371.7"/>
		
			<linearGradient id="SVGID_39_" gradientUnits="userSpaceOnUse" x1="1098.3099" y1="362.932" x2="-469.695" y2="-31.037" gradientTransform="matrix(0.9807 -0.1956 0.1956 0.9807 -60.9437 -5.2062)">
			<stop  offset="0" style="stop-color:#390796"/>
			<stop  offset="1" style="stop-color:#D95C9B"/>
		</linearGradient>
		<path class="st37" d="M-546.5,457.6c0,0,161-474.7,635.8-418.4s494.9,229.7,717.5,67S1106-265.5,1106-265.5"/>
		
			<linearGradient id="SVGID_40_" gradientUnits="userSpaceOnUse" x1="1098.3099" y1="365.8506" x2="-469.695" y2="-28.1184" gradientTransform="matrix(0.9807 -0.1956 0.1956 0.9807 -60.9437 -5.2062)">
			<stop  offset="0" style="stop-color:#390796"/>
			<stop  offset="1" style="stop-color:#D95C9B"/>
		</linearGradient>
		<path class="st38" d="M-545.9,460.5c0,0,161-474.7,635.8-418.4s494.9,229.7,717.5,67s299.2-371.7,299.2-371.7"/>
		
			<linearGradient id="SVGID_41_" gradientUnits="userSpaceOnUse" x1="1098.3099" y1="368.7692" x2="-469.695" y2="-25.1998" gradientTransform="matrix(0.9807 -0.1956 0.1956 0.9807 -60.9437 -5.2062)">
			<stop  offset="0" style="stop-color:#390796"/>
			<stop  offset="1" style="stop-color:#D95C9B"/>
		</linearGradient>
		<path class="st39" d="M-545.4,463.4c0,0,161-474.7,635.8-418.4s494.9,229.7,717.5,67s299.2-371.7,299.2-371.7"/>
		
			<linearGradient id="SVGID_42_" gradientUnits="userSpaceOnUse" x1="1098.3099" y1="371.6878" x2="-469.695" y2="-22.2812" gradientTransform="matrix(0.9807 -0.1956 0.1956 0.9807 -60.9437 -5.2062)">
			<stop  offset="0" style="stop-color:#390796"/>
			<stop  offset="1" style="stop-color:#D95C9B"/>
		</linearGradient>
		<path class="st40" d="M-544.8,466.2c0,0,161-474.7,635.8-418.4s494.9,229.7,717.5,67s299.2-371.7,299.2-371.7"/>
		
			<linearGradient id="SVGID_43_" gradientUnits="userSpaceOnUse" x1="1098.3099" y1="374.6064" x2="-469.695" y2="-19.3626" gradientTransform="matrix(0.9807 -0.1956 0.1956 0.9807 -60.9437 -5.2062)">
			<stop  offset="0" style="stop-color:#390796"/>
			<stop  offset="1" style="stop-color:#D95C9B"/>
		</linearGradient>
		<path class="st41" d="M-544.2,469.1c0,0,161-474.7,635.8-418.4s494.9,229.7,717.5,67S1108.3-254,1108.3-254"/>
		
			<linearGradient id="SVGID_44_" gradientUnits="userSpaceOnUse" x1="1098.3099" y1="377.5249" x2="-469.695" y2="-16.444" gradientTransform="matrix(0.9807 -0.1956 0.1956 0.9807 -60.9437 -5.2062)">
			<stop  offset="0" style="stop-color:#390796"/>
			<stop  offset="1" style="stop-color:#D95C9B"/>
		</linearGradient>
		<path class="st42" d="M-543.6,472c0,0,161-474.7,635.8-418.4s494.9,229.7,717.5,67s299.2-371.7,299.2-371.7"/>
		
			<linearGradient id="SVGID_45_" gradientUnits="userSpaceOnUse" x1="1098.3099" y1="380.4435" x2="-469.695" y2="-13.5255" gradientTransform="matrix(0.9807 -0.1956 0.1956 0.9807 -60.9437 -5.2062)">
			<stop  offset="0" style="stop-color:#390796"/>
			<stop  offset="1" style="stop-color:#D95C9B"/>
		</linearGradient>
		<path class="st43" d="M-543.1,474.8c0,0,161-474.7,635.8-418.4s494.9,229.7,717.5,67s299.2-371.7,299.2-371.7"/>
		
			<linearGradient id="SVGID_46_" gradientUnits="userSpaceOnUse" x1="1098.3099" y1="383.3621" x2="-469.695" y2="-10.6069" gradientTransform="matrix(0.9807 -0.1956 0.1956 0.9807 -60.9437 -5.2062)">
			<stop  offset="0" style="stop-color:#390796"/>
			<stop  offset="1" style="stop-color:#D95C9B"/>
		</linearGradient>
		<path class="st44" d="M-542.5,477.7c0,0,161-474.7,635.8-418.4s494.9,229.7,717.5,67S1110-245.4,1110-245.4"/>
		
			<linearGradient id="SVGID_47_" gradientUnits="userSpaceOnUse" x1="1098.3099" y1="386.2807" x2="-469.695" y2="-7.6883" gradientTransform="matrix(0.9807 -0.1956 0.1956 0.9807 -60.9437 -5.2062)">
			<stop  offset="0" style="stop-color:#390796"/>
			<stop  offset="1" style="stop-color:#D95C9B"/>
		</linearGradient>
		<path class="st45" d="M-541.9,480.5c0,0,161-474.7,635.8-418.4s494.9,229.7,717.5,67s299.2-371.7,299.2-371.7"/>
		
			<linearGradient id="SVGID_48_" gradientUnits="userSpaceOnUse" x1="1098.3099" y1="389.1993" x2="-469.695" y2="-4.7697" gradientTransform="matrix(0.9807 -0.1956 0.1956 0.9807 -60.9437 -5.2062)">
			<stop  offset="0" style="stop-color:#390796"/>
			<stop  offset="1" style="stop-color:#D95C9B"/>
		</linearGradient>
		<path class="st46" d="M-541.4,483.4c0,0,161-474.7,635.8-418.4s494.9,229.7,717.5,67s299.2-371.7,299.2-371.7"/>
		
			<linearGradient id="SVGID_49_" gradientUnits="userSpaceOnUse" x1="1098.3099" y1="392.1179" x2="-469.695" y2="-1.8511" gradientTransform="matrix(0.9807 -0.1956 0.1956 0.9807 -60.9437 -5.2062)">
			<stop  offset="0" style="stop-color:#390796"/>
			<stop  offset="1" style="stop-color:#D95C9B"/>
		</linearGradient>
		<path class="st47" d="M-540.8,486.3c0,0,161-474.7,635.8-418.4s494.9,229.7,717.5,67s299.2-371.7,299.2-371.7"/>
		
			<linearGradient id="SVGID_50_" gradientUnits="userSpaceOnUse" x1="1098.3099" y1="395.0364" x2="-469.695" y2="1.0674" gradientTransform="matrix(0.9807 -0.1956 0.1956 0.9807 -60.9437 -5.2062)">
			<stop  offset="0" style="stop-color:#390796"/>
			<stop  offset="1" style="stop-color:#D95C9B"/>
		</linearGradient>
		<path class="st48" d="M-540.2,489.1c0,0,161-474.7,635.8-418.4s494.9,229.7,717.5,67S1112.3-234,1112.3-234"/>
		
			<linearGradient id="SVGID_51_" gradientUnits="userSpaceOnUse" x1="1098.3099" y1="397.955" x2="-469.695" y2="3.986" gradientTransform="matrix(0.9807 -0.1956 0.1956 0.9807 -60.9437 -5.2062)">
			<stop  offset="0" style="stop-color:#390796"/>
			<stop  offset="1" style="stop-color:#D95C9B"/>
		</linearGradient>
		<path class="st49" d="M-539.7,492c0,0,161-474.7,635.8-418.4s494.9,229.7,717.5,67s299.2-371.7,299.2-371.7"/>
		
			<linearGradient id="SVGID_52_" gradientUnits="userSpaceOnUse" x1="1098.3099" y1="400.8736" x2="-469.695" y2="6.9046" gradientTransform="matrix(0.9807 -0.1956 0.1956 0.9807 -60.9437 -5.2062)">
			<stop  offset="0" style="stop-color:#390796"/>
			<stop  offset="1" style="stop-color:#D95C9B"/>
		</linearGradient>
		<path class="st50" d="M-539.1,494.9c0,0,161-474.7,635.8-418.4s494.9,229.7,717.5,67s299.2-371.7,299.2-371.7"/>
		
			<linearGradient id="SVGID_53_" gradientUnits="userSpaceOnUse" x1="1098.3099" y1="403.7922" x2="-469.695" y2="9.8232" gradientTransform="matrix(0.9807 -0.1956 0.1956 0.9807 -60.9437 -5.2062)">
			<stop  offset="0" style="stop-color:#390796"/>
			<stop  offset="1" style="stop-color:#D95C9B"/>
		</linearGradient>
		<path class="st51" d="M-538.5,497.7c0,0,161-474.7,635.8-418.4s494.9,229.7,717.5,67S1114-225.4,1114-225.4"/>
		
			<linearGradient id="SVGID_54_" gradientUnits="userSpaceOnUse" x1="1098.3099" y1="406.7108" x2="-469.695" y2="12.7418" gradientTransform="matrix(0.9807 -0.1956 0.1956 0.9807 -60.9437 -5.2062)">
			<stop  offset="0" style="stop-color:#390796"/>
			<stop  offset="1" style="stop-color:#D95C9B"/>
		</linearGradient>
		<path class="st52" d="M-537.9,500.6c0,0,161-474.7,635.8-418.4s494.9,229.7,717.5,67s299.2-371.7,299.2-371.7"/>
		
			<linearGradient id="SVGID_55_" gradientUnits="userSpaceOnUse" x1="1098.3099" y1="409.6294" x2="-469.695" y2="15.6604" gradientTransform="matrix(0.9807 -0.1956 0.1956 0.9807 -60.9437 -5.2062)">
			<stop  offset="0" style="stop-color:#390796"/>
			<stop  offset="1" style="stop-color:#D95C9B"/>
		</linearGradient>
		<path class="st53" d="M-537.4,503.4c0,0,161-474.7,635.8-418.4s494.9,229.7,717.5,67s299.2-371.7,299.2-371.7"/>
		
			<linearGradient id="SVGID_56_" gradientUnits="userSpaceOnUse" x1="1098.3099" y1="412.5479" x2="-469.695" y2="18.5789" gradientTransform="matrix(0.9807 -0.1956 0.1956 0.9807 -60.9437 -5.2062)">
			<stop  offset="0" style="stop-color:#390796"/>
			<stop  offset="1" style="stop-color:#D95C9B"/>
		</linearGradient>
		<path class="st54" d="M-536.8,506.3c0,0,161-474.7,635.8-418.4s494.9,229.7,717.5,67s299.2-371.7,299.2-371.7"/>
		
			<linearGradient id="SVGID_57_" gradientUnits="userSpaceOnUse" x1="1098.3099" y1="415.4665" x2="-469.695" y2="21.4975" gradientTransform="matrix(0.9807 -0.1956 0.1956 0.9807 -60.9437 -5.2062)">
			<stop  offset="0" style="stop-color:#390796"/>
			<stop  offset="1" style="stop-color:#D95C9B"/>
		</linearGradient>
		<path class="st55" d="M-536.2,509.2c0,0,161-474.7,635.8-418.4s494.9,229.7,717.5,67S1116.3-214,1116.3-214"/>
		
			<linearGradient id="SVGID_58_" gradientUnits="userSpaceOnUse" x1="1098.3099" y1="418.3851" x2="-469.695" y2="24.4161" gradientTransform="matrix(0.9807 -0.1956 0.1956 0.9807 -60.9437 -5.2062)">
			<stop  offset="0" style="stop-color:#390796"/>
			<stop  offset="1" style="stop-color:#D95C9B"/>
		</linearGradient>
		<path class="st56" d="M-535.7,512c0,0,161-474.7,635.8-418.4s494.9,229.7,717.5,67s299.2-371.7,299.2-371.7"/>
		
			<linearGradient id="SVGID_59_" gradientUnits="userSpaceOnUse" x1="1098.3099" y1="421.3037" x2="-469.695" y2="27.3347" gradientTransform="matrix(0.9807 -0.1956 0.1956 0.9807 -60.9437 -5.2062)">
			<stop  offset="0" style="stop-color:#390796"/>
			<stop  offset="1" style="stop-color:#D95C9B"/>
		</linearGradient>
		<path class="st57" d="M-535.1,514.9c0,0,161-474.7,635.8-418.4s494.9,229.7,717.5,67s299.2-371.7,299.2-371.7"/>
		
			<linearGradient id="SVGID_60_" gradientUnits="userSpaceOnUse" x1="1098.3099" y1="424.2223" x2="-469.695" y2="30.2533" gradientTransform="matrix(0.9807 -0.1956 0.1956 0.9807 -60.9437 -5.2062)">
			<stop  offset="0" style="stop-color:#390796"/>
			<stop  offset="1" style="stop-color:#D95C9B"/>
		</linearGradient>
		<path class="st58" d="M-534.5,517.7c0,0,161-474.7,635.8-418.4s494.9,229.7,717.5,67S1118-205.4,1118-205.4"/>
		
			<linearGradient id="SVGID_61_" gradientUnits="userSpaceOnUse" x1="1098.3099" y1="427.1408" x2="-469.695" y2="33.1719" gradientTransform="matrix(0.9807 -0.1956 0.1956 0.9807 -60.9437 -5.2062)">
			<stop  offset="0" style="stop-color:#390796"/>
			<stop  offset="1" style="stop-color:#D95C9B"/>
		</linearGradient>
		<path class="st59" d="M-533.9,520.6c0,0,161-474.7,635.8-418.4s494.9,229.7,717.5,67s299.2-371.7,299.2-371.7"/>
		
			<linearGradient id="SVGID_62_" gradientUnits="userSpaceOnUse" x1="1098.3099" y1="430.0594" x2="-469.695" y2="36.0904" gradientTransform="matrix(0.9807 -0.1956 0.1956 0.9807 -60.9437 -5.2062)">
			<stop  offset="0" style="stop-color:#390796"/>
			<stop  offset="1" style="stop-color:#D95C9B"/>
		</linearGradient>
		<path class="st60" d="M-533.4,523.5c0,0,161-474.7,635.8-418.4s494.9,229.7,717.5,67s299.2-371.7,299.2-371.7"/>
		
			<linearGradient id="SVGID_63_" gradientUnits="userSpaceOnUse" x1="1098.3099" y1="432.978" x2="-469.695" y2="39.009" gradientTransform="matrix(0.9807 -0.1956 0.1956 0.9807 -60.9437 -5.2062)">
			<stop  offset="0" style="stop-color:#390796"/>
			<stop  offset="1" style="stop-color:#D95C9B"/>
		</linearGradient>
		<path class="st61" d="M-532.8,526.3c0,0,161-474.7,635.8-418.4s494.9,229.7,717.5,67s299.2-371.7,299.2-371.7"/>
		
			<linearGradient id="SVGID_64_" gradientUnits="userSpaceOnUse" x1="1098.3099" y1="435.8966" x2="-469.695" y2="41.9276" gradientTransform="matrix(0.9807 -0.1956 0.1956 0.9807 -60.9437 -5.2062)">
			<stop  offset="0" style="stop-color:#390796"/>
			<stop  offset="1" style="stop-color:#D95C9B"/>
		</linearGradient>
		<path class="st62" d="M-532.2,529.2c0,0,161-474.7,635.8-418.4s494.9,229.7,717.5,67s299.2-371.7,299.2-371.7"/>
		
			<linearGradient id="SVGID_65_" gradientUnits="userSpaceOnUse" x1="1098.3099" y1="438.8152" x2="-469.695" y2="44.8462" gradientTransform="matrix(0.9807 -0.1956 0.1956 0.9807 -60.9437 -5.2062)">
			<stop  offset="0" style="stop-color:#390796"/>
			<stop  offset="1" style="stop-color:#D95C9B"/>
		</linearGradient>
		<path class="st63" d="M-531.7,532.1c0,0,161-474.7,635.8-418.4s494.9,229.7,717.5,67s299.2-371.7,299.2-371.7"/>
		
			<linearGradient id="SVGID_66_" gradientUnits="userSpaceOnUse" x1="1098.3099" y1="441.7338" x2="-469.695" y2="47.7648" gradientTransform="matrix(0.9807 -0.1956 0.1956 0.9807 -60.9437 -5.2062)">
			<stop  offset="0" style="stop-color:#390796"/>
			<stop  offset="1" style="stop-color:#D95C9B"/>
		</linearGradient>
		<path class="st64" d="M-531.1,534.9c0,0,161-474.7,635.8-418.4s494.9,229.7,717.5,67s299.2-371.7,299.2-371.7"/>
		
			<linearGradient id="SVGID_67_" gradientUnits="userSpaceOnUse" x1="1098.3099" y1="444.6523" x2="-469.695" y2="50.6833" gradientTransform="matrix(0.9807 -0.1956 0.1956 0.9807 -60.9437 -5.2062)">
			<stop  offset="0" style="stop-color:#390796"/>
			<stop  offset="1" style="stop-color:#D95C9B"/>
		</linearGradient>
		<path class="st65" d="M-530.5,537.8c0,0,161-474.7,635.8-418.4s494.9,229.7,717.5,67S1122-185.3,1122-185.3"/>
		
			<linearGradient id="SVGID_68_" gradientUnits="userSpaceOnUse" x1="1098.3099" y1="447.5709" x2="-469.695" y2="53.6019" gradientTransform="matrix(0.9807 -0.1956 0.1956 0.9807 -60.9437 -5.2062)">
			<stop  offset="0" style="stop-color:#390796"/>
			<stop  offset="1" style="stop-color:#D95C9B"/>
		</linearGradient>
		<path class="st66" d="M-529.9,540.6c0,0,161-474.7,635.8-418.4s494.9,229.7,717.5,67s299.2-371.7,299.2-371.7"/>
		
			<linearGradient id="SVGID_69_" gradientUnits="userSpaceOnUse" x1="1098.3099" y1="450.4895" x2="-469.695" y2="56.5205" gradientTransform="matrix(0.9807 -0.1956 0.1956 0.9807 -60.9437 -5.2062)">
			<stop  offset="0" style="stop-color:#390796"/>
			<stop  offset="1" style="stop-color:#D95C9B"/>
		</linearGradient>
		<path class="st67" d="M-529.4,543.5c0,0,161-474.7,635.8-418.4s494.9,229.7,717.5,67s299.2-371.7,299.2-371.7"/>
		
			<linearGradient id="SVGID_70_" gradientUnits="userSpaceOnUse" x1="1098.3099" y1="453.4081" x2="-469.695" y2="59.4391" gradientTransform="matrix(0.9807 -0.1956 0.1956 0.9807 -60.9437 -5.2062)">
			<stop  offset="0" style="stop-color:#390796"/>
			<stop  offset="1" style="stop-color:#D95C9B"/>
		</linearGradient>
		<path class="st68" d="M-528.8,546.4c0,0,161-474.7,635.8-418.4s494.9,229.7,717.5,67s299.2-371.7,299.2-371.7"/>
		
			<linearGradient id="SVGID_71_" gradientUnits="userSpaceOnUse" x1="1098.3099" y1="456.3267" x2="-469.695" y2="62.3577" gradientTransform="matrix(0.9807 -0.1956 0.1956 0.9807 -60.9437 -5.2062)">
			<stop  offset="0" style="stop-color:#390796"/>
			<stop  offset="1" style="stop-color:#D95C9B"/>
		</linearGradient>
		<path class="st69" d="M-528.2,549.2c0,0,161-474.7,635.8-418.4s494.9,229.7,717.5,67s299.2-371.7,299.2-371.7"/>
		
			<linearGradient id="SVGID_72_" gradientUnits="userSpaceOnUse" x1="1098.3099" y1="459.2452" x2="-469.695" y2="65.2763" gradientTransform="matrix(0.9807 -0.1956 0.1956 0.9807 -60.9437 -5.2062)">
			<stop  offset="0" style="stop-color:#390796"/>
			<stop  offset="1" style="stop-color:#D95C9B"/>
		</linearGradient>
		<path class="st70" d="M-527.7,552.1c0,0,161-474.7,635.8-418.4s494.9,229.7,717.5,67S1124.8-171,1124.8-171"/>
		
			<linearGradient id="SVGID_73_" gradientUnits="userSpaceOnUse" x1="1098.3099" y1="462.1638" x2="-469.695" y2="68.1948" gradientTransform="matrix(0.9807 -0.1956 0.1956 0.9807 -60.9437 -5.2062)">
			<stop  offset="0" style="stop-color:#390796"/>
			<stop  offset="1" style="stop-color:#D95C9B"/>
		</linearGradient>
		<path class="st71" d="M-527.1,555c0,0,161-474.7,635.8-418.4s494.9,229.7,717.5,67s299.2-371.7,299.2-371.7"/>
		
			<linearGradient id="SVGID_74_" gradientUnits="userSpaceOnUse" x1="1098.3099" y1="465.0824" x2="-469.695" y2="71.1134" gradientTransform="matrix(0.9807 -0.1956 0.1956 0.9807 -60.9437 -5.2062)">
			<stop  offset="0" style="stop-color:#390796"/>
			<stop  offset="1" style="stop-color:#D95C9B"/>
		</linearGradient>
		<path class="st72" d="M-526.5,557.8c0,0,161-474.7,635.8-418.4s494.9,229.7,717.5,67S1126-165.3,1126-165.3"/>
		
			<linearGradient id="SVGID_75_" gradientUnits="userSpaceOnUse" x1="1098.3099" y1="468.001" x2="-469.695" y2="74.032" gradientTransform="matrix(0.9807 -0.1956 0.1956 0.9807 -60.9437 -5.2062)">
			<stop  offset="0" style="stop-color:#390796"/>
			<stop  offset="1" style="stop-color:#D95C9B"/>
		</linearGradient>
		<path class="st73" d="M-526,560.7c0,0,161-474.7,635.8-418.4s494.9,229.7,717.5,67s299.2-371.7,299.2-371.7"/>
		
			<linearGradient id="SVGID_76_" gradientUnits="userSpaceOnUse" x1="1098.3099" y1="470.9196" x2="-469.695" y2="76.9506" gradientTransform="matrix(0.9807 -0.1956 0.1956 0.9807 -60.9437 -5.2062)">
			<stop  offset="0" style="stop-color:#390796"/>
			<stop  offset="1" style="stop-color:#D95C9B"/>
		</linearGradient>
		<path class="st74" d="M-525.4,563.5c0,0,161-474.7,635.8-418.4s494.9,229.7,717.5,67s299.2-371.7,299.2-371.7"/>
		
			<linearGradient id="SVGID_77_" gradientUnits="userSpaceOnUse" x1="1098.3099" y1="473.8382" x2="-469.695" y2="79.8692" gradientTransform="matrix(0.9807 -0.1956 0.1956 0.9807 -60.9437 -5.2062)">
			<stop  offset="0" style="stop-color:#390796"/>
			<stop  offset="1" style="stop-color:#D95C9B"/>
		</linearGradient>
		<path class="st75" d="M-524.8,566.4c0,0,161-474.7,635.8-418.4s494.9,229.7,717.5,67s299.2-371.7,299.2-371.7"/>
		
			<linearGradient id="SVGID_78_" gradientUnits="userSpaceOnUse" x1="1098.3099" y1="476.7567" x2="-469.695" y2="82.7878" gradientTransform="matrix(0.9807 -0.1956 0.1956 0.9807 -60.9437 -5.2062)">
			<stop  offset="0" style="stop-color:#390796"/>
			<stop  offset="1" style="stop-color:#D95C9B"/>
		</linearGradient>
		<path class="st76" d="M-524.2,569.3c0,0,161-474.7,635.8-418.4s494.9,229.7,717.5,67s299.2-371.7,299.2-371.7"/>
		
			<linearGradient id="SVGID_79_" gradientUnits="userSpaceOnUse" x1="1098.3099" y1="479.6753" x2="-469.695" y2="85.7063" gradientTransform="matrix(0.9807 -0.1956 0.1956 0.9807 -60.9437 -5.2062)">
			<stop  offset="0" style="stop-color:#390796"/>
			<stop  offset="1" style="stop-color:#D95C9B"/>
		</linearGradient>
		<path class="st77" d="M-523.7,572.1c0,0,161-474.7,635.8-418.4s494.9,229.7,717.5,67S1128.8-151,1128.8-151"/>
		
			<linearGradient id="SVGID_80_" gradientUnits="userSpaceOnUse" x1="1098.3099" y1="482.5939" x2="-469.695" y2="88.6249" gradientTransform="matrix(0.9807 -0.1956 0.1956 0.9807 -60.9437 -5.2062)">
			<stop  offset="0" style="stop-color:#390796"/>
			<stop  offset="1" style="stop-color:#D95C9B"/>
		</linearGradient>
		<path class="st78" d="M-523.1,575c0,0,161-474.7,635.8-418.4s494.9,229.7,717.5,67s299.2-371.7,299.2-371.7"/>
		
			<linearGradient id="SVGID_81_" gradientUnits="userSpaceOnUse" x1="1098.3099" y1="485.5125" x2="-469.695" y2="91.5435" gradientTransform="matrix(0.9807 -0.1956 0.1956 0.9807 -60.9437 -5.2062)">
			<stop  offset="0" style="stop-color:#390796"/>
			<stop  offset="1" style="stop-color:#D95C9B"/>
		</linearGradient>
		<path class="st79" d="M-522.5,577.9c0,0,161-474.7,635.8-418.4s494.9,229.7,717.5,67S1130-145.3,1130-145.3"/>
		
			<linearGradient id="SVGID_82_" gradientUnits="userSpaceOnUse" x1="1098.3099" y1="488.4311" x2="-469.695" y2="94.4621" gradientTransform="matrix(0.9807 -0.1956 0.1956 0.9807 -60.9437 -5.2062)">
			<stop  offset="0" style="stop-color:#390796"/>
			<stop  offset="1" style="stop-color:#D95C9B"/>
		</linearGradient>
		<path class="st80" d="M-522,580.7c0,0,161-474.7,635.8-418.4s494.9,229.7,717.5,67s299.2-371.7,299.2-371.7"/>
		
			<linearGradient id="SVGID_83_" gradientUnits="userSpaceOnUse" x1="1098.3099" y1="491.3497" x2="-469.695" y2="97.3807" gradientTransform="matrix(0.9807 -0.1956 0.1956 0.9807 -60.9437 -5.2062)">
			<stop  offset="0" style="stop-color:#390796"/>
			<stop  offset="1" style="stop-color:#D95C9B"/>
		</linearGradient>
		<path class="st81" d="M-521.4,583.6c0,0,161-474.7,635.8-418.4s494.9,229.7,717.5,67s299.2-371.7,299.2-371.7"/>
		
			<linearGradient id="SVGID_84_" gradientUnits="userSpaceOnUse" x1="1098.3099" y1="494.2682" x2="-469.695" y2="100.2992" gradientTransform="matrix(0.9807 -0.1956 0.1956 0.9807 -60.9437 -5.2062)">
			<stop  offset="0" style="stop-color:#390796"/>
			<stop  offset="1" style="stop-color:#D95C9B"/>
		</linearGradient>
		<path class="st82" d="M-520.8,586.4c0,0,161-474.7,635.8-418.4s494.9,229.7,717.5,67s299.2-371.7,299.2-371.7"/>
		
			<linearGradient id="SVGID_85_" gradientUnits="userSpaceOnUse" x1="1098.3099" y1="497.1868" x2="-469.695" y2="103.2178" gradientTransform="matrix(0.9807 -0.1956 0.1956 0.9807 -60.9437 -5.2062)">
			<stop  offset="0" style="stop-color:#390796"/>
			<stop  offset="1" style="stop-color:#D95C9B"/>
		</linearGradient>
		<path class="st83" d="M-520.2,589.3c0,0,161-474.7,635.8-418.4s494.9,229.7,717.5,67s299.2-371.7,299.2-371.7"/>
		
			<linearGradient id="SVGID_86_" gradientUnits="userSpaceOnUse" x1="1098.3099" y1="500.1054" x2="-469.695" y2="106.1364" gradientTransform="matrix(0.9807 -0.1956 0.1956 0.9807 -60.9437 -5.2062)">
			<stop  offset="0" style="stop-color:#390796"/>
			<stop  offset="1" style="stop-color:#D95C9B"/>
		</linearGradient>
		<path class="st84" d="M-519.7,592.2c0,0,161-474.7,635.8-418.4s494.9,229.7,717.5,67s299.2-371.7,299.2-371.7"/>
		
			<linearGradient id="SVGID_87_" gradientUnits="userSpaceOnUse" x1="1098.3099" y1="503.024" x2="-469.695" y2="109.055" gradientTransform="matrix(0.9807 -0.1956 0.1956 0.9807 -60.9437 -5.2062)">
			<stop  offset="0" style="stop-color:#390796"/>
			<stop  offset="1" style="stop-color:#D95C9B"/>
		</linearGradient>
		<path class="st85" d="M-519.1,595c0,0,161-474.7,635.8-418.4s494.9,229.7,717.5,67s299.2-371.7,299.2-371.7"/>
		
			<linearGradient id="SVGID_88_" gradientUnits="userSpaceOnUse" x1="1098.3099" y1="505.9426" x2="-469.695" y2="111.9736" gradientTransform="matrix(0.9807 -0.1956 0.1956 0.9807 -60.9437 -5.2062)">
			<stop  offset="0" style="stop-color:#390796"/>
			<stop  offset="1" style="stop-color:#D95C9B"/>
		</linearGradient>
		<path class="st86" d="M-518.5,597.9c0,0,161-474.7,635.8-418.4s494.9,229.7,717.5,67S1134-125.2,1134-125.2"/>
		
			<linearGradient id="SVGID_89_" gradientUnits="userSpaceOnUse" x1="1098.3099" y1="508.8611" x2="-469.695" y2="114.8922" gradientTransform="matrix(0.9807 -0.1956 0.1956 0.9807 -60.9437 -5.2062)">
			<stop  offset="0" style="stop-color:#390796"/>
			<stop  offset="1" style="stop-color:#D95C9B"/>
		</linearGradient>
		<path class="st87" d="M-518,600.8c0,0,161-474.7,635.8-418.4s494.9,229.7,717.5,67s299.2-371.7,299.2-371.7"/>
		
			<linearGradient id="SVGID_90_" gradientUnits="userSpaceOnUse" x1="1098.3099" y1="511.7797" x2="-469.695" y2="117.8107" gradientTransform="matrix(0.9807 -0.1956 0.1956 0.9807 -60.9437 -5.2062)">
			<stop  offset="0" style="stop-color:#390796"/>
			<stop  offset="1" style="stop-color:#D95C9B"/>
		</linearGradient>
		<path class="st88" d="M-517.4,603.6c0,0,161-474.7,635.8-418.4s494.9,229.7,717.5,67s299.2-371.7,299.2-371.7"/>
		
			<linearGradient id="SVGID_91_" gradientUnits="userSpaceOnUse" x1="1098.3099" y1="514.6983" x2="-469.695" y2="120.7293" gradientTransform="matrix(0.9807 -0.1956 0.1956 0.9807 -60.9437 -5.2062)">
			<stop  offset="0" style="stop-color:#390796"/>
			<stop  offset="1" style="stop-color:#D95C9B"/>
		</linearGradient>
		<path class="st89" d="M-516.8,606.5c0,0,161-474.7,635.8-418.4s494.9,229.7,717.5,67s299.2-371.7,299.2-371.7"/>
		
			<linearGradient id="SVGID_92_" gradientUnits="userSpaceOnUse" x1="1098.3099" y1="517.6169" x2="-469.695" y2="123.6479" gradientTransform="matrix(0.9807 -0.1956 0.1956 0.9807 -60.9437 -5.2062)">
			<stop  offset="0" style="stop-color:#390796"/>
			<stop  offset="1" style="stop-color:#D95C9B"/>
		</linearGradient>
		<path class="st90" d="M-516.2,609.3c0,0,161-474.7,635.8-418.4s494.9,229.7,717.5,67s299.2-371.7,299.2-371.7"/>
		
			<linearGradient id="SVGID_93_" gradientUnits="userSpaceOnUse" x1="1098.3099" y1="520.5355" x2="-469.695" y2="126.5665" gradientTransform="matrix(0.9807 -0.1956 0.1956 0.9807 -60.9437 -5.2062)">
			<stop  offset="0" style="stop-color:#390796"/>
			<stop  offset="1" style="stop-color:#D95C9B"/>
		</linearGradient>
		<path class="st91" d="M-515.7,612.2c0,0,161-474.7,635.8-418.4s494.9,229.7,717.5,67s299.2-371.7,299.2-371.7"/>
		
			<linearGradient id="SVGID_94_" gradientUnits="userSpaceOnUse" x1="1098.3099" y1="523.454" x2="-469.695" y2="129.4851" gradientTransform="matrix(0.9807 -0.1956 0.1956 0.9807 -60.9437 -5.2062)">
			<stop  offset="0" style="stop-color:#390796"/>
			<stop  offset="1" style="stop-color:#D95C9B"/>
		</linearGradient>
		<path class="st92" d="M-515.1,615.1c0,0,161-474.7,635.8-418.4s494.9,229.7,717.5,67S1137.4-108,1137.4-108"/>
		
			<linearGradient id="SVGID_95_" gradientUnits="userSpaceOnUse" x1="1098.3099" y1="526.3726" x2="-469.695" y2="132.4036" gradientTransform="matrix(0.9807 -0.1956 0.1956 0.9807 -60.9437 -5.2062)">
			<stop  offset="0" style="stop-color:#390796"/>
			<stop  offset="1" style="stop-color:#D95C9B"/>
		</linearGradient>
		<path class="st93" d="M-514.5,617.9c0,0,161-474.7,635.8-418.4s494.9,229.7,717.5,67S1138-105.2,1138-105.2"/>
		
			<linearGradient id="SVGID_96_" gradientUnits="userSpaceOnUse" x1="1098.3099" y1="529.2912" x2="-469.695" y2="135.3222" gradientTransform="matrix(0.9807 -0.1956 0.1956 0.9807 -60.9437 -5.2062)">
			<stop  offset="0" style="stop-color:#390796"/>
			<stop  offset="1" style="stop-color:#D95C9B"/>
		</linearGradient>
		<path class="st94" d="M-514,620.8c0,0,161-474.7,635.8-418.4s494.9,229.7,717.5,67s299.2-371.7,299.2-371.7"/>
		
			<linearGradient id="SVGID_97_" gradientUnits="userSpaceOnUse" x1="1098.3099" y1="532.2098" x2="-469.695" y2="138.2408" gradientTransform="matrix(0.9807 -0.1956 0.1956 0.9807 -60.9437 -5.2062)">
			<stop  offset="0" style="stop-color:#390796"/>
			<stop  offset="1" style="stop-color:#D95C9B"/>
		</linearGradient>
		<path class="st95" d="M-513.4,623.7c0,0,161-474.7,635.8-418.4s494.9,229.7,717.5,67s299.2-371.7,299.2-371.7"/>
		
			<linearGradient id="SVGID_98_" gradientUnits="userSpaceOnUse" x1="1098.3099" y1="535.1284" x2="-469.695" y2="141.1594" gradientTransform="matrix(0.9807 -0.1956 0.1956 0.9807 -60.9437 -5.2062)">
			<stop  offset="0" style="stop-color:#390796"/>
			<stop  offset="1" style="stop-color:#D95C9B"/>
		</linearGradient>
		<path class="st96" d="M-512.8,626.5c0,0,161-474.7,635.8-418.4s494.9,229.7,717.5,67s299.2-371.7,299.2-371.7"/>
	</g>
</g>
</svg>
