<?xml version="1.0" encoding="utf-8"?>
<!-- Generator: Adobe Illustrator 22.0.1, SVG Export Plug-In . SVG Version: 6.00 Build 0)  -->
<svg version="1.1" id="图层_1" xmlns="http://www.w3.org/2000/svg" xmlns:xlink="http://www.w3.org/1999/xlink" x="0px" y="0px"
	 viewBox="0 0 2500 2500" style="enable-background:new 0 0 2500 2500;" xml:space="preserve">
<style type="text/css">
	.st0{fill:#660000;stroke:#65140E;stroke-width:9;stroke-miterlimit:10;}
</style>
<g>
	<path class="st0" d="M2501,430.5c-8.5,1.7-17.2,3.3-26.2,4.8c-122.7,20.3-198.7-10.2-250.7-60.3c-42.7-41.3-69.2-95.9-91.5-146.6
		c-22.4-50.7-40.5-97.5-67.1-123.1c-15.9-15.4-35-23.1-59.5-19.1c-24.5,3.9-54.3,19.2-92.4,49.6c-26.1,20.9-56.1,48.9-90.7,85.2
		c-64.4,67.4-95.6,179.4-110.7,275c-15.2,95.6-14.4,174.8-14.5,176.4c-16.1,266,183.1,668.1-63.8,865.2
		c-17.9,14.3-38.1,27.5-60.9,39.5c-164.7,86.7-291.8,169.6-390,248.1c-244.4,195.3-310.3,363.7-333.4,498
		c-11.8,68.3-12.5,127.7-20,177.3c0.6-0.1,1.1-0.1,1.7,0c7.5-49.6,8.2-108.8,20-176.8c23.1-134.1,88.9-302.2,333-497.3
		c98.2-78.4,225.2-161.3,389.8-247.9c22.9-12,43.2-25.3,61.1-39.7c247.6-198,47.9-600.6,64.2-866c0.1-1.8-0.7-80.8,14.5-176.3
		c15.1-95.5,46.4-207.3,110.4-274.4c34.6-36.3,64.6-64.2,90.6-85.1c38-30.3,67.7-45.5,91.7-49.3s42.2,3.6,57.9,18.6
		c26.1,25.2,44.3,71.8,66.6,122.6s48.8,105.6,91.9,147.2c52.4,50.6,129.4,81.3,252.4,60.9c8.7-1.4,17.2-3,25.5-4.6
		C2500.8,431.5,2500.9,431,2501,430.5z"/>
	<path class="st0" d="M2501.7,386.5c-16.4,4.4-33.7,8.3-52.1,11.8c-115.9,22-190.5-4-244.4-48.6c-4.9-4-9.5-8.3-14-12.6
		c-38-36.6-63.5-82.9-85.7-126.1c-22.2-43.1-41-83.1-65.8-107c-17.4-16.8-37.9-25.7-64.3-21.9c-26.3,3.8-58.5,20-99.8,53
		c-23.6,18.9-50.3,43.3-80.5,74c-63.2,64.3-95.7,170.7-112.8,263.2c-8.5,46.2-13.3,89-16,121.3c-2.7,32.2-3.6,54.1-4.3,58.3
		c-3.9,21.5-1.9,45.1-1.1,68.8c8.3,270.8,162.9,622.3-67.6,806.4c-10.7,8.6-22.2,16.8-34.7,24.6
		c-107.6,67.7-198.3,132.1-274.8,193.3c-269.2,215.1-364.5,390.6-411,527c-32.3,94.8-41.1,170.7-68.3,228c0.1,0,0.2,0,0.3,0
		c0.5,0,1,0.1,1.5,0.2c27.1-57.5,35.9-133.2,68.1-227.5c46.5-136.3,141.6-311.5,410.6-526.5c76.5-61.1,167.2-125.5,274.7-193.2
		c12.5-7.8,24.1-16.1,34.8-24.6c231.3-184.9,76.2-537,68-807.3c-0.8-23.8-2.8-47.3,1.1-68.6c0.8-4.4,1.6-26.1,4.4-58.3
		c8.3-96.7,34.2-287.8,128.5-383.8c30.2-30.7,56.8-55.1,80.4-73.9c41.3-33,73.3-49,99.2-52.7c25.9-3.7,45.5,4.9,62.7,21.4
		c24.4,23.5,43.2,63.3,65.4,106.5s47.8,89.6,86.1,126.5c4.5,4.4,9.2,8.6,14.1,12.7c54.3,45,129.8,71.1,246,49
		c18.1-3.5,35.3-7.4,51.5-11.7C2501.7,387.6,2501.7,387,2501.7,386.5z"/>
	<path class="st0" d="M2500,340.3c-22.8,8-47.9,15.1-75.5,21.1c-110.1,23.9-183.6,1.8-239.3-38c-10.7-7.6-20.5-16-29.7-24.8
		c-65.3-62.9-95.3-151.2-140.3-194.6c-19.2-18.5-41.3-28.9-69.8-25.4s-63.3,20.6-108.4,56.6c-20.8,16.6-43.9,37.4-69.5,62.6
		c-62,61.2-95.7,162-114.7,251.4c-19,89.3-23.3,167.4-26.4,182.7c-4.3,21.2-2.6,44.6-2.3,68.1c1.5,140.3,42.7,298.2,54,444.6
		c11.2,146.5-7.5,281.4-125.8,375.9c-2.6,2.1-5.3,4.2-8,6.2c-30.3,22.9-59.2,45.3-86.7,67.4c-628.7,502.4-561,777.7-699.9,906.6
		c0.8-0.1,1.6-0.2,2.5-0.1c137.9-130.2,72-404.6,698.6-905.3c27.5-22,56.4-44.4,86.7-67.4c2.7-2,5.4-4.1,8-6.2
		c118.7-94.9,137.5-230.3,126.2-376.9s-52.5-304.5-54-444.6c-0.3-23.5-2-46.8,2.3-67.8c3.1-15.5,7.4-93.3,26.4-182.7
		c19-89.3,52.7-189.9,114.4-250.8c25.6-25.2,48.6-45.9,69.4-62.5c45.1-36.1,79.8-53,107.8-56.4s49.2,6.6,68.2,24.9
		c44.5,42.8,74.6,131.3,140.3,194.7c9.2,8.9,19.1,17.3,29.9,25c56.1,40.2,130.4,62.4,240.8,38.3c27.4-5.9,52.2-13,74.8-20.9
		C2499.9,341.4,2500,340.9,2500,340.3z"/>
	<path class="st0" d="M2500.6,289.4c-28.7,13.5-62.3,25.6-101.4,35.3c-104.3,25.7-176.6,7.7-234.2-27.5c-18.1-11-34-23.9-48.4-37.7
		c-53.2-51.3-84.6-116.5-123.8-154.3c-21.5-20.8-45.5-33.3-76.5-30.4c-31,2.8-69,20.8-118.8,60.7c-17.7,14.1-36.9,31-57.7,50.9
		c-121.7,116.1-139.5,381-149.1,425.4c-4.5,21-3.3,44.1-3.5,67.3c-3,283.9,159.1,624.1-57.3,822.5
		c-613,562.3-622.8,826.2-778.3,950.3c-23.8,19-51,34.8-84.3,47.8c0.8,0.2,1.4,0.5,1.9,0.9c32.9-13,59.9-28.7,83.6-47.6
		c156-124.8,165.4-388.1,778.3-950.4c217.1-199.3,54.5-539.9,57.7-823.3c0.3-23.3-1-46.3,3.4-67.1c9.5-44.6,27.5-309.2,148.8-424.8
		c20.9-19.9,40-36.8,57.6-50.8c49.8-39.8,87.6-57.6,118.1-60.4c30.5-2.7,53.7,9.4,75,29.9c38.8,37.4,70.3,102.7,123.8,154.3
		c14.4,13.9,30.5,26.9,48.7,38c58.1,35.4,131.1,53.5,235.6,27.7c38.8-9.6,72.1-21.5,100.7-34.9
		C2500.6,290.5,2500.6,289.9,2500.6,289.4z"/>
	<path class="st0" d="M2499.8,233.1c-32.6,21-73.8,40.1-125.8,54.6c-98.4,27.5-169.5,13.5-229.1-16.9
		c-28.3-14.4-51.8-32.9-72.4-52.8c-38.6-37.2-67-79.4-97.8-109.1c-24.7-23.8-51.1-39.7-85.3-38.2c-34.2,1.5-76.1,20.2-132.2,65.1
		c-14.1,11.3-29.1,24.2-45.1,38.9c-119.5,110-143.9,358.8-157.1,416.8c-4.7,20.7-3.9,43.6-4.7,66.6
		c-9.2,284.2,149.9,609.6-34.8,818.3c-479.2,541.8-580.7,786.5-732.2,907.6c-77.1,61.6-167.2,91.3-326.8,112.1c0,0-2.9,0.3-8.7,0.9
		c-39.5,3.5-209.9,14.9-448.1-20.5v0.1v1.3c273.2,40.6,457.3,19.7,457.3,19.7c159.7-20.8,250.2-50.6,327.5-112.4
		c151.9-121.4,253.2-365.9,732.3-907.7c185.2-209.6,25.8-535.3,35.1-819c0.7-23.1,0-45.8,4.6-66.4c13.1-58.1,37.7-306.7,156.8-416.2
		c16-14.7,31-27.6,45.1-38.9c56-44.8,97.7-63.3,131.4-64.8c33.6-1.5,59.3,14,83.9,37.6c30.6,29.5,59.1,71.7,97.8,109.1
		c20.7,20,44.4,38.6,72.9,53.1c60,30.6,131.7,44.6,230.4,17.1c51.6-14.4,92.6-33.3,125.1-54.1
		C2499.9,234.3,2499.8,233.7,2499.8,233.1z"/>
	<path class="st0" d="M2500.5,165.9c-6.2,6-13,11.9-20.3,17.8c-31.9,25.5-74.5,49.3-131.3,67.2c-92.6,29.2-162.3,19.3-224-6.3
		c-45.8-19.1-80.3-47.9-110.3-76.8c-16.2-15.6-31-31.2-45.7-45.3c-30.7-29.6-60.6-52.9-99.6-55.2c-39-2.3-86.6,16.2-153.2,69.4
		c-10.1,8.1-20.7,17-31.7,26.7c-117.4,103.8-148.1,336.7-165,408.1c-4.8,20.5-4.6,43.1-5.9,65.8c-15.5,284.5,140.9,595.9-12.4,814.1
		c-350.6,499.4-502.5,735.3-654.8,857C731.5,2400,616.5,2427,415.7,2453.2l0,0c0,0-3,0.3-8.7,0.7c-37.4,2.8-191.8,12-407.3-7.6v1.4
		c249,22.6,416.4,6.9,416.5,6.9l0,0l0,0c200.9-26.2,316.3-53.3,431.3-145.2c152.6-122,304.5-357.9,655.1-857.3
		c153.7-219-3.1-530.7,12.5-814.7c1.2-22.8,1.1-45.3,5.8-65.6c16.9-71.6,47.8-304.3,164.7-407.6c11-9.7,21.6-18.6,31.7-26.7
		c66.4-53.1,113.9-71.4,152.1-69.1c38.3,2.3,67.7,25,98.4,54.6c14.6,14.1,29.5,29.7,45.6,45.3c30.1,29,64.7,58,110.9,77.2
		c62,25.8,132.4,35.7,225.3,6.4c56.9-18,99.7-41.8,131.7-67.4c6.8-5.4,13.1-11,19-16.5C2500.3,167.5,2500.4,166.7,2500.5,165.9z"/>
	<path class="st0" d="M2500.6,75.9c-14.1,25.8-35.3,53.4-67.2,79c-27.7,22.1-63.5,42.7-109.7,59.2c-86.8,30.8-155.3,25-219,4.2
		c-93.5-30.6-140.9-95.5-197.4-128.8c-28.3-16.7-58.9-25.4-98.4-17.7s-87.9,31.6-152.2,80.1c-1.7,1.2-3.3,2.5-4.9,3.8
		c-117.4,93.8-147.5,312-168.1,395.7c-5,20.2-5.4,42.5-7.1,65c-21.9,284.7,132.6,582.9,10.1,809.9
		c-247.5,459.1-408.8,690.1-563,813.4c-160.6,128.3-313.6,140-549,170.8l0,0c-0.4,0-3.3,0.3-8.7,0.6c-35.2,2.2-173.5,9.3-366.4,1.6
		v1.4c224.9,9,375.6-2.2,375.6-2.2l0,0l0,0c235.2-30.8,388.7-42.5,549.6-171.1c154.5-123.5,315.8-354.6,563.3-813.8
		c122.7-227.7-32-526.2-10-810.3c1.7-22.5,2.1-44.8,7-64.8c20.6-83.8,50.9-301.8,167.7-395.1c1.6-1.3,3.2-2.6,4.9-3.8
		c64.2-48.4,112.5-72.2,151.7-79.8c58.7-11.4,96.9,13.5,138.4,47.2c41.4,33.7,85.9,76.2,156.5,99.3c64,21,133,26.7,220.1-4.2
		c46.4-16.5,82.3-37.1,110.2-59.4c31-24.8,51.9-51.5,66.1-76.6C2500.7,78.2,2500.7,77,2500.6,75.9z"/>
	<path class="st0" d="M334.1,2367.6C334.1,2367.6,334,2367.6,334.1,2367.6l0.2,0.7L334.1,2367.6z"/>
	<path class="st0" d="M2473.5,0c-10.6,38-34,85.1-85.2,126c-23.6,18.8-53,36.4-89.8,51.1c-81,32.4-148.2,30.8-213.8,14.8
		c-96-23.4-147.8-79.6-206.8-108.6c-29.5-14.5-60.9-22-100.2-15c-39.3,7-86.7,28.5-148.5,72c-3.7,2.6-7.3,5.3-10.8,8.1
		c-111.4,89-145.8,287.5-170.2,382.7c-5.1,20-6,42-8.3,64.3c-28.3,284.9,124.9,570.7,32.7,805.6c-171.3,436.7-323.2,665-477.8,788.4
		c-199.7,159.6-403.9,144.4-660.6,178.1l0,0h0.1l0.2,0.7l-0.2-0.7c-0.5,0-3.4,0.2-8.7,0.4c-32.8,1.6-154.9,6.9-325.6,7.5v0.1v1.3
		c201-0.7,334.8-8,334.8-8h0.1l0,0c256.5-33.7,461.2-18.5,661.3-178.4c154.8-123.7,306.8-352.1,478.1-788.9
		c92.4-235.7-61-521.6-32.6-806c2.2-22.3,3.1-44.2,8.2-64.1c24.3-95.3,58.9-293.5,169.8-382.1c3.5-2.8,7.1-5.5,10.8-8.1
		c61.7-43.5,108.9-64.8,148-71.8C1837,59,1877.1,80.9,1921,110s91.3,65.4,163.8,83c66,16.1,133.6,17.6,214.9-14.9
		c36.9-14.7,66.5-32.3,90.2-51.3c51.7-41.3,75.2-88.9,85.7-127.2h-2.1L2473.5,0L2473.5,0z"/>
	<path class="st0" d="M2418.6,0c-13.2,32.2-35.8,66.7-74.1,97.4c-19.4,15.5-42.9,30.1-71.3,42.9c-75.2,33.8-141,36.5-208.7,25.4
		c-98.5-16.2-154.9-63.9-216.5-88.5c-61.7-24.6-128.4-25.6-246.7,51.7c-6,3.9-11.8,8.1-17.4,12.6
		c-105.2,84.1-143.5,263.8-171.6,369.6c-5.3,19.8-6.7,41.5-9.5,63.5c-34.7,285.1,118.1,559,55.2,801.5
		c-111.3,429.1-248.9,656.9-402.7,779.8c-228.7,182.8-493.5,133.5-762.3,169l0,0h0.1l0.2,0.7l-0.2-0.7
		c-3.1,0.1-118.9,4.2-293.5,10.8v1.5c63.1-2.4,118.6-4.5,163.8-6.1c40.9-1.5,73.4-2.7,95.7-3.5s34.3-1.2,34.4-1.2l0,0h0.1
		c268.3-35.5,533.7,13.9,762.9-169.3c154.1-123.1,291.7-351.2,403-780.4c63-243.1-89.9-517-55.1-801.6c2.7-22.1,4.2-43.7,9.4-63.4
		c28.1-105.8,66.5-285.3,171.2-369c5.6-4.4,11.3-8.6,17.3-12.5c118.2-77.1,184-75.9,245.1-51.6c61.2,24.3,117.9,72.3,216.9,88.6
		c67.9,11.2,134.2,8.5,209.6-25.5c28.4-12.8,52-27.4,71.5-43c38.8-31,61.6-66,74.8-98.5h-1.6V0z"/>
	<path class="st0" d="M293.2,2324.8L293.2,2324.8l0.2,0.7L293.2,2324.8z"/>
	<path class="st0" d="M252.6,2282.7l-0.2-0.7l0,0h-0.1L252.6,2282.7z"/>
	<path class="st0" d="M2361.6,0c-13.4,23.7-32.6,47.4-59.6,69c-15.3,12.2-33.2,23.8-53.9,34.4c-69.5,35.2-133.9,42.2-203.7,35.9
		c-101-9.1-165.7-52.3-231.8-74.6c-66.1-22.3-133.5-23.1-239,52.5c-3.7,2.6-7.3,5.4-10.9,8.2c-102.2,81.7-152.9,244.9-186.1,365.3
		c-5.4,19.6-7.5,40.9-10.6,62.8c-41.3,285.3,112.3,547.6,77.7,797.2c-59.5,430.7-181.7,660.1-334.5,782.1
		c-249.8,199.7-581.7,112.6-856.8,149l0,0l0.2,0.7l-0.3-0.7h0.1c-0.5,0-99.9,1.6-252.8,11.2v1.5c46.3-2.9,87.8-5.1,123-6.7
		c40.7-1.9,73.3-3,95.6-3.7c11.2-0.3,19.8-0.6,25.6-0.7c5.8-0.1,8.8-0.2,8.8-0.2h0.1h0.1c274.5-36.5,607.1,50.8,857.6-149.3
		c153.1-122.4,275.3-352,334.9-782.8c34.6-250.3-119-512.5-77.7-797.2c3.1-21.8,5.3-43.2,10.6-62.6
		c33.2-120.4,83.9-283.4,185.7-364.7c3.5-2.8,7.1-5.6,10.8-8.2C1680.1,42.9,1746.6,44,1812.2,66c65.7,22.1,130.7,65.5,232.3,74.7
		c69.9,6.3,134.8-0.7,204.4-36.1c20.9-10.6,38.8-22.2,54.2-34.5c27.5-22,46.9-46,60.4-70.1H2361.6L2361.6,0z"/>
	<path class="st0" d="M211.7,2239.9l-0.1-0.7l0,0h-0.1L211.7,2239.9z"/>
	<path class="st0" d="M2301.2,0c-11,14.2-24.4,28-40.6,41c-11.2,8.9-23.7,17.5-37.8,25.6c-63.8,36.6-126.8,47.9-198.5,46.5
		c-103.6-2-173.1-37.1-241.9-55.1c-68.8-18.1-136.7-18.9-236.5,47.8c-6.4,4.3-12.6,8.8-18.6,13.6
		c-95.9,76.7-149.3,221.7-186.3,351.3c-5.5,19.4-8.2,40.5-11.8,62c-47.9,285.5,107.3,536.2,100.3,793
		c-12,437.6-118.7,670-270.5,791.3c-265.4,212.1-669.2,85.2-947.3,122.2l0,0l0.1,0.7l-0.3-0.7h0.1c-1,0-83.4-0.2-211.9,9.9v1.5
		c30.1-2.4,57.7-4.2,82.3-5.5c40.6-2.3,73.1-3.4,95.4-3.9c11.2-0.3,19.8-0.4,25.6-0.4c5.8-0.1,8.9,0,8.9-0.1l0,0h0.1
		c277.5-37.1,681.9,90.1,948.1-122.5c152.2-121.6,258.9-354.3,270.9-792.1c7-257.4-148.2-508-100.2-792.9
		c3.7-21.6,6.3-42.6,11.8-61.9c37-129.5,90.4-274.4,186-350.7c6-4.8,12.1-9.3,18.5-13.5c99.6-66.5,166.8-65.6,235.2-47.7
		c68.4,18,138.2,53.2,242.3,55.2c71.9,1.4,135.3-10,199.3-46.7c14.1-8.1,26.7-16.7,38-25.6c16.7-13.4,30.4-27.6,41.6-42.1h-2.3V0z"
		/>
	<path class="st0" d="M170.9,2197.1l-0.1-0.7c0,0,0,0-0.1,0h-0.1L170.9,2197.1z"/>
	<path class="st0" d="M2235.6,0c-4.9,4.6-10,9-15.5,13.4c-7,5.6-14.4,11-22.5,16.2c-58.2,37.8-119.7,53.6-193.4,57.1
		c-106.2,5.1-180.5-21.9-252-35.8s-140.1-14.6-233.9,43.3c-9.7,6-19.1,12.6-28.1,19.8c-89.4,71.4-144.3,199.7-184.9,336.5
		c-5.7,19.1-8.9,39.9-13,61.2c-54.7,285.6,103,524.6,122.7,788.9c33.5,447.7-57.8,683.9-208.7,804.5
		C929.2,2326.7,450,2159,170.7,2196.3h0.1l0.1,0.7l-0.3-0.7h0.1c-2.3,0-67.6-1.3-171.1,7.3v1.4c14.6-1.2,28.5-2.2,41.5-3.1
		c40.5-2.6,73-3.7,95.3-4.1c11.2-0.2,19.8-0.2,25.7-0.2c5.8,0,8.9,0.1,8.9,0.1h0.1h0.1c278.4-37.4,758.2,130.6,1036.4-91.5
		c151.4-121,242.7-357.5,209.1-805.5c-19.9-264.7-177.4-503.5-122.7-788.5c4.1-21.3,7.4-42.1,13-61.1
		c40.5-136.8,95.4-264.8,184.4-335.9c9-7.2,18.3-13.7,28-19.7c93.7-57.7,161.5-57,232.8-43.1c71.3,13.8,145.9,40.9,252.5,35.8
		c73.9-3.5,135.8-19.4,194.2-57.3c8.1-5.3,15.6-10.7,22.6-16.3c6-4.8,11.5-9.6,16.7-14.6L2235.6,0L2235.6,0z"/>
	<path class="st0" d="M2162.2,0C2112,34.3,2055,52.6,1984.1,60.5c-108.8,12.1-188.1-6.8-262.4-16.6c-74.2-9.8-143.4-10.3-231.2,38.9
		c-13.9,7.7-27.1,16.7-39.6,26.7c-82.4,65.8-137.8,179.1-181.3,320.9c-5.8,18.9-9.7,39.4-14.2,60.5
		c-61.5,285.8,99.2,512.8,145.3,784.6c77.8,459.6,1.9,700.1-148.3,820c-143.2,114.5-354.1,119.6-564.1,100.8s-418.9-61.6-558.4-42.8
		l0.1,0.7l-0.3-0.7h0.1l0,0c0,0-49.3-2-130.3,4.1v1.4c0.3,0,0.5,0,0.8-0.1c40.3-3,72.8-4,95.2-4.3c11.2-0.1,19.8-0.1,25.7,0
		c5.9,0,8.9,0.2,8.9,0.2h0.1h0.1c139-18.8,348,24,558.1,42.8c210.2,18.8,421.5,13.7,565.2-101.1
		c150.7-120.4,226.6-361.4,148.7-821.2c-46.2-272.3-206.7-499.1-145.3-784.2c4.5-21.1,8.4-41.5,14.2-60.4
		c43.4-141.7,98.9-254.8,180.9-320.4c12.5-10,25.7-18.9,39.5-26.6c87.6-49,156.1-48.4,230.2-38.7c74.1,9.8,153.7,28.8,262.8,16.6
		c71.8-8,129.7-26.8,180.5-61.9h-2.9V0z"/>
	<path class="st0" d="M130.1,2154.3l-0.1-0.7h-0.1L130.1,2154.3z"/>
	<path class="st0" d="M2074.8,0c-32.1,15.2-68.1,26.9-110.8,34.3c-111.4,19.2-195.7,8.1-272.8,2.4c-77-5.7-146.7-6.1-228.4,34.6
		c-18.8,9.3-36.5,20.7-53.1,34c-75.2,60.1-130.1,160.8-175.8,305c-5.9,18.7-10.4,38.9-15.4,59.7c-68.3,285.9,95.9,500.5,167.8,780.5
		c121.4,472.4,60.7,717.3-88.8,836.8c-146.8,117.3-379.5,114-610.3,85.8c-230.7-28.1-459.3-81-598.2-62.3l0.1,0.7l-0.2-0.7
		c0.1,0,0.1,0,0.2,0l0,0c0,0-33.2-2-89.5,1.1v1.4c22.1-1.2,40.7-1.6,55.1-1.7c11.2-0.1,19.8,0.1,25.7,0.3c5.9,0.2,8.9,0.3,8.9,0.3
		h0.1h0.1c138.3-18.8,367,34.1,597.9,62.2c230.9,28.2,464.1,31.7,611.4-86c150.1-119.9,210.7-365.4,89.2-838.1
		c-72.1-280.4-236-494.6-167.8-779.8c5-20.9,9.5-41,15.4-59.6c45.7-144.1,100.5-244.6,175.4-304.5c16.6-13.3,34.2-24.5,52.9-33.9
		c81.3-40.5,150.6-40.1,227.5-34.4c77,5.7,161.6,16.8,273.2-2.5c44.1-7.6,81-19.7,113.9-35.7L2074.8,0L2074.8,0z"/>
	<path class="st0" d="M89.3,2111.4l-0.1-0.7c-0.1,0-0.1,0-0.2,0L89.3,2111.4z"/>
	<path class="st0" d="M1974.7,0c-9.9,2.9-20.1,5.5-30.8,8c-114,26.3-203.5,23-283.3,21.3s-150.1-1.9-225.3,30.5
		c-24.2,10.4-46.8,23.9-67.9,40.8c-68.3,54.6-121.8,145.5-169,289.6c-6,18.5-11.1,38.3-16.5,59c-75.3,285.9,92.7,487.7,190.3,776.2
		c164.4,485.6,118.9,735.2-30,854.2c-149.6,119.6-404.2,107.5-655.8,70c-251.6-37.4-500.2-100.3-638.1-81.5c0.1,0,0.2,0,0.2,0
		l0.1,0.7l-0.2-0.7l0,0c-1.8-0.1-19.1-1.3-48.5-0.9v1.4c5.1-0.1,9.8-0.1,14.1-0.1c11.2,0,19.9,0.3,25.8,0.5s9,0.5,9,0.5h0.1H49
		c137.3-18.7,386,44,637.7,81.5s506.6,49.8,656.9-70.3c149.5-119.5,194.9-369.7,30.4-855.5c-97.8-288.9-265.4-490.2-190.3-775.5
		c5.4-20.6,10.5-40.4,16.6-58.9c47.2-144,100.6-234.7,168.6-289.1c21.1-16.8,43.5-30.2,67.6-40.6c75-32.3,144.9-32.1,224.7-30.3
		c79.8,1.7,169.5,4.9,283.7-21.4c12.4-2.8,24.2-6,35.5-9.4L1974.7,0L1974.7,0z"/>
	<path class="st0" d="M48.4,2068.6l-0.1-0.7c0,0-0.1,0-0.2,0l0,0L48.4,2068.6z"/>
	<path class="st0" d="M1146.5,428.7c5.8-20.4,11.6-39.8,17.7-58.1c48.2-142.3,99.7-225.9,161.7-275.4c25.6-20.4,52.9-35,82.5-45.6
		c122.9-43.8,252.9-9,447.5-49.6h-7.4c-190.5,38.4-318.8,4.8-441,48.2c-29.7,10.6-57.2,25.3-82.9,45.8
		c-62.2,49.7-113.8,133.5-162,275.9c-6.2,18.3-11.9,37.7-17.7,58.2c-82.8,285.7,89.6,474.4,212.9,772
		c206.8,499,176.2,753.1,28,871.6c-151.9,121.5-428.2,100.6-700.7,53.9C412.7,2079,144.3,2006.5,7.5,2025.1h0.1v0.7l-0.2-0.7h0.1
		c-0.5,0-3.1-0.3-7.8-0.5v1.4c5.3,0.3,8,0.5,8,0.6h0.1h0.1c136.1-18.7,404.7,53.8,677.3,100.5c272.5,46.7,549.2,67.8,701.8-54.2
		c148.9-119,179.2-373.9-27.7-873.1C1235.8,901.9,1063.8,713.8,1146.5,428.7z"/>
	<path class="st0" d="M7.6,2025.8v-0.7c0,0,0,0-0.1,0H7.4L7.6,2025.8z"/>
	<path class="st0" d="M1137.9,782.9c-51.3-117.7-72.8-232.4-28.3-375.1C1164.7,231.4,1220,137.4,1284.2,86
		c68.3-54.5,146.8-61,246.7-66.8c58.3-3.4,123.9-6.5,198.9-18.8c-2.2-0.1-4.4-0.2-6.6-0.4c-72.4,11.5-136,14.6-192.8,17.8
		c-99.8,5.7-178.8,12.3-247.4,67.1c-64.6,51.6-119.8,145.9-175,322.3c-44.7,142.9-23.1,258.1,28.3,375.9s132.6,238.3,207.1,391.9
		c248.7,512.2,233,771.1,85.3,889c-153.8,123-451.8,93.4-745,37.6c-271.1-51.6-538.2-125.7-684-121.8v1.4
		c145.1-4,412.6,70.1,684.1,121.8c293.4,55.9,591.7,85.7,746.3-37.8c148.3-118.6,163.6-378.2-85.1-890.6
		C1270.4,1021,1189.2,900.6,1137.9,782.9z"/>
</g>
<g>
	<path class="st0" d="M590.2-13.1c0.9,8.8,1.7,17.7,2.3,26.9c7.9,125.6-45.3,194-121.3,234.4c-62.6,33.2-140.5,47.5-212.5,58.5
		c-72,11.1-138.1,18.8-176.9,39.5c-23.3,12.4-36.8,29.5-35.2,54.6c1.4,25,17.3,57.8,52.3,102c24.1,30.3,57.1,66,100.6,108.1
		c80.8,78.2,227.1,133.4,353.8,169c126.7,35.8,233.8,52.2,235.9,52.6c356.6,73.7,931.3-35.6,1158.2,251
		c16.5,20.8,31.1,43.6,43.7,68.7c90.9,181.4,182.7,324.9,273.1,439c224.9,283.7,441.8,385.4,619.5,437.4
		c90.4,26.5,170.5,40.1,236.2,58.3c0-0.6,0-1.1,0.3-1.7c-65.8-18.2-145.6-31.7-235.6-58.2c-177.4-51.9-394-153.4-618.6-436.8
		c-90.3-114-182-257.4-272.8-438.7c-12.6-25.2-27.3-48.1-43.9-69c-228-287.5-803.4-177.8-1159.2-251.6
		c-2.4-0.5-109.2-16.9-235.8-52.6c-126.6-35.7-272.6-90.9-353-168.6c-43.5-42-76.4-77.7-100.5-107.9c-34.9-44.1-50.7-76.7-52-101.2
		c-1.3-24.5,11.6-40.9,34.3-53.1c38.2-20.3,104-28.1,176.1-39.1s150.3-25.2,213.4-58.7c76.7-40.7,130.3-110.1,122.3-236
		c-0.5-8.9-1.3-17.6-2.2-26.2C591.5-12.7,590.9-12.9,590.2-13.1z"/>
	<path class="st0" d="M530.9-23.3c3.3,17.1,5.9,35.1,7.7,54c11.3,119.2-35.7,187.2-104.5,230.7c-6.2,4-12.7,7.6-19.2,11.1
		c-55.5,29.6-122,44.7-183.9,57.2c-61.7,12.6-118.7,22.4-154.9,41.7c-25.5,13.5-40.7,31.8-39.8,58.7c1,26.8,17.7,62.1,55.7,110
		c21.8,27.4,50.5,59.1,87.1,95.6c76.8,76.4,215.3,131.6,337.5,168.6c61,18.4,118.1,32.5,161.3,42.2c43.1,9.7,72.5,15.3,78,16.9
		c28.4,8.5,60.6,11.7,92.7,16c367,50.6,866.2-25.6,1078.2,242c9.9,12.4,19.2,25.6,27.7,39.6c74.3,120.9,146.9,224.5,217.4,313.3
		c247.7,312.5,469.5,444.7,646.3,520.3c122.9,52.5,224,77.7,297,117c0-0.1,0-0.2,0-0.3c0.1-0.5,0.3-1,0.5-1.4
		c-73.3-39.2-174.2-64.4-296.4-116.7c-176.7-75.5-398.1-207.5-645.7-519.8c-70.4-88.8-142.9-192.3-217.2-313.2
		c-8.5-14-17.9-27.3-27.7-39.7c-212.9-268.5-713-191.9-1079.3-242.5c-32.3-4.4-64.3-7.5-92.5-16c-5.8-1.7-35-7.3-78-17
		c-129.3-29.2-383.2-96.3-497.9-210.3c-36.7-36.5-65.4-68.1-87-95.4c-38-47.9-54.5-83-55.4-109.4c-0.9-26.4,13.8-43.9,38.9-57.3
		c35.6-19,92.3-28.9,154.2-41.4s128.6-27.7,184.5-57.5c6.7-3.5,13.1-7.2,19.4-11.2C505,218.6,552.2,149.8,540.9,30.2
		c-1.9-18.6-4.4-36.5-7.6-53.4C532.4-23.1,531.6-23.2,530.9-23.3z"/>
	<path class="st0" d="M468.2-31.7c7.2,24.2,12.8,50.6,16.5,79.1c14.8,113.9-26.7,181.7-89.3,228c-12,8.9-24.9,16.8-38.2,23.9
		c-95.3,50.8-219.3,61.2-285.1,96.2c-28,14.9-45.6,34.5-45.4,63.4C27,487.9,44.5,526,86,578.3c19.1,24.1,43.5,51.5,73.5,82.2
		c72.8,74.5,203.6,129.7,321.3,167.9c117.6,38.2,222.3,59.4,242.5,65.8c27.9,8.9,59.8,12.3,91.6,17.1
		c189.7,29,409.5,22.6,608.9,43.3c199.6,20.8,378.8,68.5,487.6,205.9c2.4,3,4.8,6.1,7.1,9.2c26.1,34.9,51.8,68.3,77.2,100.2
		c578.5,729.9,961,722.9,1113,888c0-0.8,0-1.6,0.3-2.5c-153.9-164.4-534.9-159-1111.5-886.4c-25.3-31.9-51-65.3-77.2-100.2
		c-2.3-3.1-4.7-6.2-7.1-9.2C1803.9,1021.7,1624,973.7,1424.3,953s-419.5-14.3-608.9-43.3c-31.8-4.8-63.5-8.2-91.2-17
		c-20.4-6.4-124.8-27.6-242.5-65.8c-117.6-38.2-248.1-93.3-320.5-167.4c-30-30.8-54.3-58-73.4-82.1c-41.6-52.4-58.9-90.3-59-118.7
		c-0.1-28.4,16.7-47.1,44.5-61.9c64.9-34.6,189.2-45.1,285.2-96.2c13.5-7.1,26.4-15.1,38.5-24.1c63.2-46.7,105-115.2,90-229.4
		c-3.6-28.3-9.3-54.4-16.3-78.4C469.7-31.4,469.1-31.6,468.2-31.7z"/>
	<path class="st0" d="M399.6-43.3c13.7,31.3,24.7,67.1,31.6,107.8c18.1,108.6-17.7,176-74.3,225.3c-17.7,15.5-37.7,28.4-58.6,39.6
		c-77.7,41.4-170.8,58.2-228,88.7C38.7,434.7,18,455.7,17,486.9c-1.1,31.2,17.1,72.6,63.1,130.5c16.2,20.5,36,43.2,59.6,68
		C277.1,830.8,632,905.9,690.4,925c27.6,9,59,12.8,90.3,18.1c382.9,64.6,868-21.5,1101.6,235.3
		c661.9,727.4,1016.7,794.4,1159.6,974.9c21.9,27.6,38.9,57.9,51.2,93.6c0.4-0.7,0.9-1.3,1.5-1.7c-12.3-35.3-29.2-65.4-51-92.9
		c-143.7-181.1-497.8-247.6-1159.7-974.9c-234.6-257.6-720.4-171.1-1102.6-235.9c-31.4-5.4-62.7-9.1-90.1-17.9
		c-58.7-19.1-413.2-94.3-550-239.2c-23.6-25-43.3-47.5-59.4-67.9c-45.8-57.8-63.9-99-62.8-129.7c1.2-30.7,21.2-51,52.3-67.6
		c56.7-30.2,149.8-47.1,228-88.7c21.1-11.2,41.2-24.3,59.1-39.8c57-49.7,93.1-117.8,74.8-226.6c-6.8-40.4-17.6-75.9-31.1-107
		C401.1-43.1,400.3-43.2,399.6-43.3z"/>
	<path class="st0" d="M323.5-54.8c23.2,36.7,42.4,81.6,53.7,136.1c21.5,103.1-8.7,170.3-59.2,222.5c-23.9,24.8-52.7,44-82.8,60
		c-56.4,30-117.9,48.9-162.9,72.9c-36.1,19.2-61.7,41.8-65.1,75.9c-3.4,34.1,15.2,79.5,66.9,144.7c13,16.4,28.1,34,45.4,53
		c129.6,141.9,461.6,220,537.9,245.7c27.2,9.1,58.3,13.3,89.2,19.1c382.3,70.8,847-15.5,1099.5,212.2
		c655.5,590.8,969.8,744.2,1109.3,920.1c70.9,89.5,96.7,184.9,99.5,347c0,0-0.1,2.9-0.2,8.8c-1.5,39.8-13.2,210.5-98.9,438l0.1,0
		l1.8,0.3c98.2-260.9,99.3-447.2,99.3-447.2c-2.7-162.2-28.6-258-99.8-347.8c-139.8-176.3-453.9-329.5-1109.4-920.2
		c-253.6-228.4-718.7-141.8-1100.4-212.6c-31.1-5.7-61.8-10-88.9-19C582,929,250.2,850.7,121.3,709.3c-17.3-19-32.3-36.6-45.4-53
		c-51.6-65-70-110.2-66.6-143.8c3.3-33.5,28.3-55.5,64.1-74.7c44.7-23.8,106.2-42.8,162.9-72.9c30.3-16.1,59.2-35.4,83.3-60.4
		c50.9-52.6,81.1-120.3,59.7-223.8C368,26.7,349-17.9,326-54.5C325.1-54.6,324.3-54.7,323.5-54.8z"/>
	<path class="st0" d="M232.8-70.1c7.1,7.4,14,15.4,20.8,23.9c29.4,37,54.7,84.3,69.9,144.2c24.7,97.8,0.3,164.4-44.1,219.8
		c-33.1,41.1-77.4,68.9-121.2,92.2c-23.6,12.6-47.1,23.8-68.4,35.3c-44.8,23.9-81.1,48.3-90.4,86.3c-9.3,38,8.1,89,69.4,166.3
		c9.3,11.7,19.7,24.1,31,37.1c121.5,138.5,431.1,219.4,524.9,251.6c26.9,9.2,57.5,13.9,87.9,20.1c381.7,77.1,827.1-9.6,1097.4,189.1
		c618.7,454.7,913.1,655.9,1053.2,832.7c105.5,133.2,123.6,252.7,127.1,456.6l0,0c0,0-0.1,3-0.4,8.7c-2.2,37.5-14.3,192-75,400.5
		l1.9,0.3c70.1-240.9,75.5-409.6,75.5-409.7l0,0l0,0c-3.5-204-21.7-323.9-127.6-457.4c-140.5-177.2-434.9-378.4-1053.6-833.1
		C1539.8,995.3,1094,1082.4,713,1005.3c-30.6-6.1-61-10.9-87.7-20C531.3,953,222,872,101.1,734.1c-11.4-13-21.7-25.4-31-37.1
		C8.9,619.9-8.3,569,0.9,531.8c9.2-37.3,44.5-61.4,89.4-85.3c21.4-11.4,44.8-22.7,68.4-35.2c43.9-23.4,88.6-51.3,121.9-92.7
		c44.7-55.6,69.2-123,44.4-221C309.7,37.5,284.4-9.9,254.9-47.1c-6.2-7.9-12.8-15.3-19.3-22.3C235-69.5,233.9-69.8,232.8-70.1z"/>
	<path class="st0" d="M111.3-89.7c32.6,19.5,66.5,46.5,96,83.5c25.4,32.2,47.6,72,62.5,121.2c27.8,92.4,9.1,158.8-29.1,217.1
		C184.5,417.7,89.4,450.4,35.4,499c-27,24.3-43.7,52.6-39.5,93.3s28.7,93.6,84,167.7c1.4,1.9,2.9,3.8,4.4,5.7
		c108,136.3,397.9,213.4,507.6,251.9c26.5,9.3,56.5,14.6,86.6,21.1c381,83.5,808.2-4.3,1095.3,166
		c580.6,344.1,866.9,553.6,1008.9,732.6c147.7,186.4,139.2,340,143.4,579.1l0,0c-0.1,0.4-0.1,3.3-0.6,8.7
		c-2.6,35.2-15,173.3-56,362.1l1.9,0.3c47.9-220.1,56.7-371.3,56.7-371.3l0,0l0,0c-4.2-238.9,4.4-393-143.7-579.8
		c-142.2-179.4-428.7-388.8-1009.4-733c-288-170.6-715.6-82.7-1095.8-166.2c-30.1-6.6-60.2-11.8-86.4-21
		C482.9,977.7,193.3,900.5,85.9,764.9c-1.5-1.9-3-3.7-4.4-5.7C26.4,685.3,1.9,632.5-2.1,592.1c-6.1-60.4,33.6-92.7,85.7-126.4
		c52.1-33.6,116.5-68.3,159-132.9c38.5-58.6,57.2-125.5,29.3-218.2c-14.9-49.4-37-89.3-62.7-121.7c-28.6-36-61.3-62.4-92.9-81.9
		C114.4-89.3,112.8-89.6,111.3-89.7z"/>
	<path class="st0" d="M2861.7,2547.2C2861.7,2547.2,2861.7,2547.3,2861.7,2547.2l1,0L2861.7,2547.2z"/>
	<path class="st0" d="M4.5-79.5C54.1-60.8,114-27.4,161.1,32c21.6,27.4,40.7,60.2,54.7,99.8c30.9,87,18,153-14,214.3
		C155,435.8,70.9,474.7,22.4,526.7c-24.3,26-39.4,55.3-36.2,95.7c3.2,40.3,24.7,91.8,73.6,162.3c2.9,4.2,6,8.4,9.2,12.4
		c102.5,129.3,365.1,206.4,489.7,251.2c26.2,9.4,55.8,15,85.5,22.2c380.2,89.8,790.5,0.7,1093,142.8
		c562.5,264,846.6,463.6,988.7,643c183.8,231.8,130.8,430.1,135.6,690.9l0,0l0-0.1l1,0l-1,0c-0.1,0.5-0.3,3.4-0.8,8.7
		c-3.1,32.7-15.3,154.4-41.6,323.1l0.1,0l1.8,0.3c31-198.6,42.4-332.3,42.4-332.3l0-0.1l0,0c-4.8-260.6,48.3-459.4-135.8-691.7
		c-142.4-179.7-426.7-379.4-989.3-643.4c-303.6-142.4-714-53.1-1093.6-142.9c-29.8-7-59.2-12.7-85.3-22
		c-124.8-44.7-387-121.9-489-250.7c-3.2-4.1-6.3-8.2-9.2-12.4C12.3,713.1-8.9,661.9-12.2,621.8c-4.8-60,31.2-94.8,77.5-131.9
		S168.1,414,203.4,346.2c32.2-61.7,45-128.1,14-215.4c-14-39.6-33.1-72.7-54.9-100.2C114.9-29.4,54.4-62.9,4.3-81.6L4-79.6L4.5-79.5
		L4.5-79.5z"/>
	<path class="st0" d="M-4.2-25.3c41.4,20,84.4,49.8,119.8,94.3c17.8,22.5,33.8,48.9,46.6,79.7c33.7,81.6,26.9,147.1,1.1,211.6
		c-37.5,93.7-110.9,139-153.9,194.5c-43,55.6-55,121.2,30.6,254.8c4.3,6.8,9.1,13.4,14.3,19.9c96.9,122.1,333.4,199,471.8,249.7
		c25.9,9.5,55,15.6,84.2,23.2c379.5,96.2,773.6,4.9,1091.1,119.7c561.8,203.1,847.5,388.5,989,567
		c210.5,265.5,101.9,516.2,107.1,789.3l0,0l0-0.1l1,0l-1,0c-0.4,3.1-13.2,118.3-32,292.1l2,0.3c6.8-62.8,12.8-118.1,17.8-163
		c4.5-40.7,8-73.1,10.5-95.2c2.5-22.2,3.8-34.1,3.8-34.2l0,0l0-0.1c-5.3-272.6,103.6-523.9-107.4-790
		c-141.7-178.9-427.9-364.3-989.8-567.5c-318.3-115-712.4-23.6-1091.2-119.8c-29.4-7.5-58.3-13.6-84.1-23.1
		c-138.4-50.7-374.7-127.6-471.1-249.2c-5.1-6.5-9.8-13-14.1-19.8c-85.3-133.5-73.3-198.2-30.7-253.2
		c42.5-55.1,116.4-100.7,154.1-194.9c25.9-64.6,32.8-130.6-1.1-212.5c-12.8-30.8-28.7-57.3-46.7-79.9C81.7,23.4,38.1-6.7-3.7-26.8
		l-0.3,1.6L-4.2-25.3z"/>
	<path class="st0" d="M2797.4,2578.3L2797.4,2578.3l1,0L2797.4,2578.3z"/>
	<path class="st0" d="M2734.1,2609.2l-1,0l0,0l0,0.1L2734.1,2609.2z"/>
	<path class="st0" d="M-13.3,31c29.9,18.4,58.8,42.5,83.7,73.8c14,17.8,26.9,37.9,37.9,60.7c36.5,76.3,35.7,141.4,16.1,208.9
		C96.1,472.2,27.5,526.7-13.1,587.1c-40.6,60.4-52.4,126.8,32.9,247.4c2.9,4.2,6.1,8.4,9.3,12.5c94.1,118.7,306.4,204.2,463.7,263.1
		c25.6,9.6,54,16.3,83.1,24.1c378.7,102.8,757.3,8.1,1088.8,96.5c572.1,152.3,862.5,322.8,1003,500.2c230,290,59.6,598.8,65.1,878.3
		l0,0l1,0l-1,0.1l0-0.1c-0.1,0.5-13.7,99-25,252l2,0.3c3.4-46.3,7.1-87.8,10.5-122.9c3.9-40.6,7.6-73,10.2-95.2
		c1.4-11.1,2.3-19.7,3.1-25.4c0.8-5.7,1.1-8.7,1.1-8.7l0-0.1l0-0.1c-5.7-278.9,165-588.4-65.4-879.1
		c-141-177.8-431.6-348.3-1003.9-500.7c-332.5-88.5-711,6.1-1088.8-96.5c-28.9-7.8-57.5-14.6-82.8-24.1
		c-157.3-58.9-369.4-144.4-463-262.6c-3.2-4.1-6.4-8.2-9.4-12.4c-85.2-120.5-73.2-185.9-33-245.9C28.9,527.7,97.8,473,126.4,374.7
		C146,307,146.8,241.4,110.1,165c-11-22.9-23.8-43.1-38-61C46.8,72.1,17.4,47.7-13,29.1L-13.3,31L-13.3,31z"/>
	<path class="st0" d="M2669.8,2640.3l-1-0.1l0,0l0,0.1L2669.8,2640.3z"/>
	<path class="st0" d="M-22.9,90.6c17.4,13.9,33.9,30.2,48.9,49c10.2,13,19.9,27.2,28.6,42.9c39.3,70.9,44.5,135.6,31.3,206.1
		C66.7,490.4,8.3,551.4-27,615.5c-35.4,64-47.2,130.9,27,243.9c4.8,7.3,9.9,14.4,15.4,21.3c88.3,111.3,275.7,195.6,444.8,260.3
		c25.3,9.6,53.4,16.9,81.8,25.1c377.9,109.3,741.1,10.6,1086.8,73.3c589,106.9,885.9,262.8,1025.6,439
		c244.2,308.1,8.7,679.2,14.5,961.8l0,0l1,0.1l-1,0.1l0-0.1c-0.2,1-13.5,82.3-20.3,211.4l2,0.3c1.5-30.2,3.5-57.9,5.6-82.4
		c3.3-40.6,7-72.9,9.9-95c1.4-11.1,2.6-19.6,3.5-25.4c0.8-5.7,1.4-8.8,1.3-8.8l0,0l0-0.1c-6-282,230-653.7-14.8-962.7
		c-140-176.7-437.3-332.6-1026.6-439.6c-346.5-62.8-709.5,35.9-1086.6-73.4c-28.6-8.3-56.5-15.5-81.7-25.1
		c-169-64.7-356.2-148.9-444-259.8c-5.5-7-10.6-14-15.3-21.2c-74-112.8-62.1-178.9-27-242.6c35.2-63.6,93.8-124.9,113-227.2
		c13.3-70.7,8-135.8-31.4-206.9c-8.7-15.7-18.3-30-28.5-43.1c-15.4-19.4-32.4-36-50.2-50.2l-0.4,2.3L-22.9,90.6z"/>
	<path class="st0" d="M2605.6,2671.3l-1-0.1c0,0,0,0,0,0.1l0,0.1L2605.6,2671.3z"/>
	<path class="st0" d="M-33.3,155.4c5.4,5.8,10.6,11.8,15.6,18.2c6.4,8.1,12.6,16.6,18.3,25.7C42.5,265,54,329.2,47,402.7
		c-10,106-58.2,173.4-88.4,241s-42,135.1,21.3,240.3c6.6,10.9,14,21.6,22.3,32c82.2,103.8,246.7,185.9,425,255.7
		c24.9,9.8,52.5,17.5,80.6,26.1c377,116.1,724.8,12.3,1084.8,50.3c609.9,64.2,914.3,205.7,1053.2,380.9
		c255.2,321.7-47.4,758.4-41.4,1042.3l0-0.1l1,0.1l-1,0.1l0-0.1c-0.4,2.3-12.5,66.5-17.3,170.5l1.9,0.3c0.7-14.7,1.6-28.6,2.4-41.6
		c2.9-40.6,6.6-72.9,9.6-95c1.5-11.1,2.9-19.6,3.8-25.4c0.9-5.7,1.5-8.8,1.5-8.8l0-0.1l0-0.1c-6.3-283,296.8-720.2,41.1-1043.1
		c-139.3-175.8-444.2-317.3-1054.5-381.5c-360.6-37.9-708.1,65.7-1084.2-50.2c-28.1-8.7-55.7-16.5-80.4-26.1
		C250,1100.5,85.9,1018.5,4.1,915.2c-8.3-10.5-15.6-21-22.2-31.9c-63-105-51.3-171.8-21.2-239.2c30-67.4,78.4-135.2,88.5-241.5
		c7-73.7-4.6-138.3-46.5-204.2c-5.9-9.1-12-17.7-18.4-25.9c-5.5-7-11.1-13.4-17.1-19.7L-33.3,155.4L-33.3,155.4z"/>
	<path class="st0" d="M-44.9,227.9c38.3,57,54,117.3,53.4,189c-0.9,110-39.1,184.2-64.1,255.5c-25,71.1-36.7,139.3,15.8,236.7
		c8.2,15.4,18.2,30.4,29.8,44.9c75.8,95.7,220,175,404.5,248.7c24.6,9.8,51.7,18.1,79.4,27.2c376.2,122.8,708.2,13.5,1082.6,27
		c633,23.1,945.7,150.2,1083.7,324.6c131.9,166.3,105.2,375.6,46.5,578.8c-58.7,203.2-149.7,400.2-146.5,542l1,0.1l-1,0.1l0-0.1l0,0
		c0,0-10.5,48.2-15.2,129.5l1.9,0.3c0-0.3,0.1-0.5,0-0.8c2.4-40.4,6.2-72.7,9.3-94.9c1.6-11.1,3-19.6,4.1-25.4
		c0.9-5.8,1.7-8.7,1.7-8.7l0-0.1l0-0.1c-3.3-141.3,87.7-338.4,146.5-541.7c58.8-203.4,85.5-413.2-46.7-580
		c-138.6-174.9-452-302.2-1085.3-325.2c-375-13.6-706.8,95.6-1082-26.9c-27.8-9-54.7-17.3-79.3-27.1
		c-184.5-73.6-328.4-153-403.9-248.2c-11.5-14.5-21.4-29.5-29.6-44.8C-90.7,811-79,743.5-54.1,672.5c25-71,63.3-145.5,64.2-255.9
		C10.6,344-5.6,282.7-44.9,224.9l-0.5,2.9L-44.9,227.9z"/>
	<path class="st0" d="M2541.3,2702.3l-1-0.1l0,0.1L2541.3,2702.3z"/>
	<path class="st0" d="M-58.8,314.2c15.4,35,25.5,73.1,28.7,116.8c8.2,114.2-20.2,195-40.1,269.9c-19.9,74.8-31.5,143.5,10.4,233
		c9.6,20.6,22.2,40.5,37.5,59.8c69.2,87.3,196.5,163.4,383.9,239.8c24.3,9.9,50.9,18.7,78.2,28.2c375.2,129.6,691.1,14.1,1080.6,3.9
		c657.2-17.2,978.3,95.9,1115.9,269.5c135.1,170.4,93.7,399.5,18.9,621.2c-74.6,221.7-182.3,435.9-179.2,577.1l1,0.1l-1,0
		c0-0.1,0-0.1,0-0.2l0,0c0,0-8,32.3-12.7,88.6l1.9,0.3c1.9-22.1,4.3-40.5,6.5-54.8c1.6-11.1,3.3-19.5,4.5-25.3
		c1.2-5.8,1.8-8.7,1.8-8.7l0-0.1l0-0.1c-3.4-140.6,104.4-354.9,179-576.8c74.8-221.8,116.5-451.3-19-622.3
		c-138.1-174.2-459.9-287.4-1117.6-270.2c-390.1,10.3-705.4,125.5-1079.7-3.8c-27.4-9.5-53.9-18.3-78-28.2
		c-187.3-76.4-314.3-152.4-383.3-239.3c-15.3-19.3-27.7-39.1-37.4-59.6C-99.7,844-88.2,775.7-68.3,701
		c19.9-74.8,48.4-155.9,40-270.3c-3.3-45.2-13.7-84.3-30.1-120.2L-58.8,314.2L-58.8,314.2z"/>
	<path class="st0" d="M2476.9,2733.2l-1-0.1c0,0.1,0,0.1,0,0.2L2476.9,2733.2z"/>
	<path class="st0" d="M-74.7,413c2.3,10.4,4.2,21,5.9,32.1c17.4,118.3-1.3,205.9-16.2,284.3s-26.4,147.8,5.4,229.1
		c10.2,26.2,24.8,51.4,44.3,75.9c62.9,79.3,177.1,151.9,364.2,229.8c24,9.9,50,19.3,77,29.1c374.1,136.5,673.3,14.4,1078.4-19.2
		c681.8-56.8,1011.7,42.4,1148.7,215.2c137.7,173.7,80.9,422.4-9.7,662.7c-90.5,240.3-214.9,472.1-211.4,612.3c0-0.1,0-0.2,0-0.2
		l1,0.1l-1,0l0,0c-0.4,1.8-4.8,18.6-8.9,47.7l1.9,0.3c0.7-5.1,1.4-9.7,2.1-13.9c1.8-11.1,3.6-19.6,4.8-25.4c1.2-5.8,2.1-8.8,2.1-8.8
		l0-0.1l0-0.1c-3.4-139.6,120.7-371.5,211.4-611.9c90.6-240.4,147.7-489.3,9.4-663.8c-137.6-173.6-468.3-272.8-1150.4-215.9
		c-405.7,33.8-704.1,155.5-1077.4,19.4c-27-9.8-52.9-19.1-76.9-29.2C143,1184.6,29,1112.2-33.6,1033.2
		c-19.3-24.5-33.9-49.5-44.1-75.6c-31.7-81.1-20.3-150-5.2-228.4c15-78.4,33.5-166.3,16.2-284.7c-1.8-12.9-4.3-25.2-7.1-37.1
		L-74.7,413L-74.7,413z"/>
	<path class="st0" d="M2412.6,2764.3l-1-0.1c0,0,0,0.1,0,0.2l0,0L2412.6,2764.3z"/>
	<path class="st0" d="M372.6,1323.8c-26.6-10.2-51.9-20.1-75.6-30.1c-184.5-78.5-289.2-147.5-346.2-219.5
		c-23.5-29.7-38.9-59.8-48.5-91.4c-39.6-130.9,28-251.6,4.1-452.6l-1.2,7.3c21.6,196.4-44.2,315.8-5,445.9
		c9.6,31.6,25.1,62,48.7,91.8c57.2,72.2,162.2,141.4,346.8,219.9c23.7,10.1,49,19.9,75.8,30.1c372.6,143.8,654.8,14.6,1076.3-42.5
		c706.7-95.7,1044.9-10.3,1181.4,161.7c139.9,176.4,67.8,444.6-38.5,703.5c-106.2,258.8-246.7,508.1-243.4,647.2l0-0.1l0.9,0.2l-1,0
		l0-0.1c-0.1,0.5-0.9,3-1.9,7.6l1.9,0.3c1.2-5.2,1.9-7.8,2.1-7.8l0-0.1l0-0.1c-3.6-138.4,136.9-387.9,243.3-646.9
		c106.4-258.9,178.8-527.5,38.3-704.7c-137-172.9-476.4-258.2-1183.4-162.4C1025.8,1338.5,744.4,1467.4,372.6,1323.8z"/>
	<path class="st0" d="M2348.3,2795.3l-0.9-0.2c0,0,0,0,0,0.1l0,0.1L2348.3,2795.3z"/>
	<path class="st0" d="M849.5,1409.3c-167.1,25.1-325.4,21.4-511-53.6C109.1,1263-9.1,1188-68.3,1113.4
		c-62.7-79.3-59.1-158.2-51-258.1c4.7-58.3,10.9-123.7,6.2-200.5c-0.5,2.2-1,4.3-1.6,6.4c4,74-1.9,137.4-6.6,194.2
		c-8.2,99.8-11.8,179.2,51.3,258.8c59.4,75,178,150,407.4,242.8c185.9,75.2,344.9,78.9,512.1,53.7
		c167.2-25.2,342.9-79.1,562.1-119.3c731.2-134.2,1078.3-62.5,1214,108.9c141.7,178.6,54.3,466.4-67.6,743.7
		c-112.7,256.4-255.2,504.1-273.1,648.8l1.9,0.3c17.6-144.1,160.2-392.1,273.2-648.9c122.1-277.5,209.7-565.6,67.5-745
		c-136.6-172.2-484.7-243.7-1216.1-109.5C1192.1,1330.2,1016.6,1384.2,849.5,1409.3z"/>
</g>
</svg>
